<?xml version="1.0" encoding="UTF-8"?>
<svg id="Layer_1" xmlns="http://www.w3.org/2000/svg" version="1.1" viewBox="0 0 268 268">
  <!-- Generator: Adobe Illustrator 29.1.0, SVG Export Plug-In . SVG Version: 2.1.0 Build 142)  -->
  <defs>
    <style>
      .st0 {
        fill: #fff;
      }
    </style>
  </defs>
  <path class="st0" d="M81.8,194.8c-3.4,0-5.9-.2-6.1-.2l-2.1-.2-.2-2.1c-.3-3.5-.3-7.1,0-10.6.5-7.9,2.3-13.5,5.5-16.7,2.4-2.4,5.3-3.6,8.1-4.7l1.9,4.6c-2.4,1-4.7,1.9-6.4,3.6-4,4-4.4,15.2-4.1,21.2,6,.3,17.1,0,21.2-4.1,1.7-1.6,2.8-3.7,3.4-5.9l4.9,1c-.7,3.2-2.4,6.2-4.8,8.5-3.1,3.1-8.7,5-16.7,5.5-1.6,0-3.1,0-4.5,0Z"/>
  <path class="st0" d="M194.6,75.7l-.2-2-2-.2c-1.4-.2-33.7-3.8-53.4,15.9-6.7,6.7-17.9,20.8-27.9,33.7l-23.4,2-13.5,13.5,18.2,8.6c0,.1,0,.1-.2.2v.2c-1.8,2.5-1.6,5.9.5,8.1l19.6,19.6c1.2,1.1,2.7,1.7,4.3,1.7,1.4,0,2.7-.4,3.8-1.2h0c0-.2.2-.2.2-.3l8.6,18.2,13.5-13.5,2-23.2c13.1-10.2,27.1-21.4,33.8-28.1,19.7-19.6,16.1-51.9,16-53.2ZM82.8,137.2l7.2-7.2,17-1.5c-1.2,1.6-2.4,3.1-3.6,4.6-2.9,3.8-5.5,7.2-7.7,10l-12.9-5.9ZM138,178l-7.2,7.2-6-12.8c.3-.3.7-.5,1-.8l13.6-10.4-1.4,16.8ZM122.9,167.7c-2.1,1.6-3.9,3-5.3,4-.5.3-1.2.3-1.7,0l-19.6-19.6c-.4-.5-.4-1.2,0-1.7,2.6-3.2,6.5-8.3,11.1-14.2,11.3-14.7,26.8-34.9,35.1-43.3,15.3-15.3,40-15.1,47.2-14.7.4,7.2.6,31.9-14.7,47.2-9.9,10.1-38.4,31.8-52.1,42.3h0Z"/>
  <path class="st0" d="M158.6,122.9c-7.4,0-13.4-6-13.4-13.4s6-13.4,13.4-13.4c3.5,0,6.9,1.4,9.4,3.9h0c5.2,5.3,5.2,13.7,0,19-2.5,2.5-5.9,3.9-9.5,3.9ZM158.6,101c-4.7,0-8.6,3.8-8.6,8.5,0,4.7,3.8,8.6,8.5,8.6,4.7,0,8.6-3.8,8.6-8.5,0-2.3-.9-4.5-2.5-6.1h0c-1.6-1.6-3.7-2.5-6-2.5h0Z"/>
</svg>