<?xml version="1.0" encoding="utf-8"?>
<!-- Generator: Adobe Illustrator 26.0.3, SVG Export Plug-In . SVG Version: 6.00 Build 0)  -->
<svg version="1.1" id="Layer_1" xmlns="http://www.w3.org/2000/svg" xmlns:xlink="http://www.w3.org/1999/xlink" x="0px" y="0px"
	 viewBox="0 0 381.1 253.3" style="enable-background:new 0 0 381.1 253.3;" xml:space="preserve">
<style type="text/css">
	.st0{fill:#344768;}
	.st1{fill:#474349;}
	.st2{fill:#FFFFFF;}
	.st3{fill:#618788;}
</style>
<g>
	<path class="st0" d="M326.8,46.7l3.6,3.6h-14.6v-17h14.6l-3.6,3.6h4.3l5.1-5.1l-5.1-5.1h-4.3l3.6,3.6h-14.6V0h-282v87h38.1
		c1.1-5.3,5.8-9.3,11.3-9.3s10.3,4,11.3,9.3h68.6c1.1-5.3,5.8-9.3,11.3-9.3s10.3,4,11.3,9.3H256c1.1-5.3,5.8-9.3,11.3-9.3
		s10.3,4,11.3,9.3h36.9V53.3h14.6l-3.6,3.6h4.3l5.1-5.1l-5.1-5.1L326.8,46.7L326.8,46.7z"/>
</g>
<path class="st1" d="M224.4,126.8c0-5,3.2-9.3,7.7-10.9V90h-49c0-0.2,0-0.5,0-0.7c0-4.7-3.8-8.6-8.6-8.6s-8.6,3.8-8.6,8.6
	c0,0.2,0,0.5,0,0.7h-48v28.2c-4.7,0-8.6,3.8-8.6,8.6s3.8,8.6,8.6,8.6V163h47.9c0,4.7,3.8,8.6,8.6,8.6s8.6-3.8,8.6-8.6h48.9v-25.3
	C227.6,136.1,224.4,131.8,224.4,126.8z"/>
<path class="st1" d="M114.2,115.9V90H91.7c0-0.2,0-0.5,0-0.7c0-4.7-3.8-8.6-8.6-8.6s-8.6,3.8-8.6,8.6c0,0.2,0,0.5,0,0.7H0v73h74.5
	c0,4.7,3.8,8.6,8.6,8.6s8.6-3.8,8.6-8.6h22.4v-25.3c-4.5-1.6-7.8-5.9-7.8-10.9S109.7,117.5,114.2,115.9z"/>
<path class="st0" d="M278.7,166.3c-1.4,4.8-5.9,8.3-11.1,8.3s-9.7-3.5-11.1-8.3h-70.8c-1.4,4.8-5.9,8.3-11.1,8.3s-9.7-3.5-11.1-8.3
	H94.4c-1.4,4.8-5.9,8.3-11.1,8.3s-9.7-3.5-11.1-8.3H33.9v87h282v-87H278.7z"/>
<g>
	<path class="st2" d="M70.2,219.1l-0.7-2.2c0-0.1-0.1-0.2-0.1-0.2s-0.1-0.1-0.2-0.1h-0.9v2.5h-1v-6.2c0.3,0,0.6-0.1,0.9-0.1
		s0.6,0,0.9,0s0.6,0,0.9,0.1s0.5,0.2,0.7,0.3s0.3,0.3,0.5,0.6c0.1,0.2,0.2,0.5,0.2,0.9s-0.1,0.8-0.2,1c-0.1,0.3-0.4,0.5-0.7,0.6l0,0
		l0.1,0.1c0,0.1,0.1,0.1,0.1,0.2l0.8,2.5L70.2,219.1L70.2,219.1z M70.2,214.7c0-0.4-0.1-0.6-0.3-0.8c-0.2-0.2-0.5-0.3-0.8-0.3
		c-0.1,0-0.3,0-0.4,0s-0.3,0-0.4,0v2.1h0.9c0.2,0,0.3,0,0.4-0.1c0.1,0,0.2-0.1,0.3-0.2c0.1-0.1,0.1-0.2,0.2-0.3
		C70.1,215.1,70.2,214.9,70.2,214.7z"/>
	<path class="st2" d="M76.7,216.5c0,0,0,0.1,0,0.2c0,0.1,0,0.2,0,0.2h-3.1c0,1,0.4,1.5,1.2,1.5c0.2,0,0.4,0,0.6-0.1s0.4-0.2,0.6-0.3
		l0.3,0.8c-0.3,0.2-0.5,0.3-0.8,0.4c-0.3,0.1-0.5,0.1-0.8,0.1c-0.4,0-0.7-0.1-1-0.2s-0.5-0.3-0.7-0.5s-0.3-0.5-0.4-0.8
		s-0.1-0.7-0.1-1.1c0-0.4,0.1-0.8,0.2-1.2c0.1-0.3,0.3-0.6,0.4-0.8c0.2-0.2,0.4-0.4,0.7-0.5c0.3-0.1,0.6-0.2,0.9-0.2
		c0.6,0,1.1,0.2,1.5,0.6C76.5,215,76.7,215.7,76.7,216.5z M75.7,215.6c0-0.2-0.1-0.3-0.2-0.5s-0.2-0.2-0.3-0.3
		c-0.1-0.1-0.3-0.1-0.5-0.1c-0.3,0-0.6,0.1-0.8,0.4c-0.2,0.3-0.3,0.6-0.3,1.1h2.1C75.7,216,75.7,215.8,75.7,215.6z"/>
	<path class="st2" d="M81.5,219.2c-0.2,0-0.3-0.1-0.4-0.2s-0.2-0.2-0.2-0.4l0,0c-0.2,0.2-0.4,0.4-0.7,0.5c-0.3,0.1-0.5,0.2-0.8,0.2
		c-0.2,0-0.4,0-0.6-0.1s-0.3-0.2-0.4-0.3s-0.2-0.3-0.3-0.5c-0.1-0.2-0.1-0.4-0.1-0.6c0-0.4,0.1-0.7,0.3-0.9c0.2-0.2,0.4-0.4,0.7-0.6
		s0.6-0.2,0.9-0.3s0.7-0.1,1-0.1v-0.2c0-0.1,0-0.3,0-0.4c0-0.1,0-0.2-0.1-0.3c0-0.1-0.1-0.1-0.2-0.2c-0.1,0-0.2-0.1-0.4-0.1
		c-0.3,0-0.6,0-0.9,0.1s-0.5,0.2-0.8,0.3l-0.3-0.8c0.3-0.2,0.6-0.3,0.9-0.4c0.3-0.1,0.7-0.1,1-0.1s0.6,0,0.8,0.1
		c0.2,0.1,0.4,0.2,0.5,0.3s0.2,0.3,0.3,0.6s0.1,0.5,0.1,0.8v2.3c0,0.1,0,0.2,0,0.2c0,0.1,0,0.1,0,0.2l0.1,0.1c0,0,0.1,0.1,0.2,0.1
		L81.5,219.2z M80.9,216.5c-0.2,0-0.4,0-0.7,0s-0.4,0.1-0.6,0.2c-0.2,0.1-0.3,0.2-0.4,0.4c-0.1,0.1-0.2,0.3-0.2,0.6
		c0,0.1,0,0.2,0,0.3s0.1,0.2,0.1,0.3c0.1,0.1,0.1,0.1,0.2,0.2c0.1,0,0.2,0.1,0.3,0.1c0.2,0,0.4,0,0.6-0.1s0.4-0.2,0.5-0.4v-1.6H80.9
		z"/>
	<path class="st2" d="M85.2,219.2c-0.1,0-0.2,0-0.4,0c-0.2,0-0.4,0-0.5-0.1s-0.2-0.1-0.3-0.2c-0.1-0.1-0.1-0.2-0.2-0.3
		c0-0.1-0.1-0.3-0.1-0.5v-5.7h1v5.5c0,0.1,0,0.2,0,0.2s0,0.1,0.1,0.1l0.1,0.1c0.1,0,0.1,0,0.2,0h0.2v0.8
		C85.4,219.1,85.3,219.1,85.2,219.2z"/>
	<path class="st2" d="M92.5,219.2c-0.1,0-0.2,0-0.3,0c-0.3,0-0.5,0-0.7-0.1s-0.3-0.1-0.4-0.3s-0.2-0.3-0.2-0.5s0-0.4,0-0.7V215h-0.7
		v-0.9h0.7v-1.4h1v1.4h1v0.9h-1v2.7c0,0.1,0,0.2,0,0.3s0,0.1,0.1,0.2c0,0,0.1,0.1,0.2,0.1s0.2,0,0.4,0h0.3v0.8
		C92.7,219.1,92.6,219.1,92.5,219.2z"/>
	<path class="st2" d="M95.5,212.7c0,0.2-0.1,0.3-0.2,0.4c-0.1,0.1-0.3,0.2-0.5,0.2s-0.4-0.1-0.5-0.2c-0.1-0.1-0.2-0.2-0.2-0.4
		s0.1-0.3,0.2-0.4c0.1-0.1,0.3-0.2,0.5-0.2s0.4,0.1,0.5,0.2S95.5,212.6,95.5,212.7z M94.4,219.1V214h1v5.1H94.4z"/>
	<path class="st2" d="M102.7,219.1v-3c0-0.2,0-0.4,0-0.5c0-0.2,0-0.3-0.1-0.4c-0.1-0.1-0.1-0.2-0.2-0.3s-0.2-0.1-0.4-0.1
		c-0.3,0-0.5,0.1-0.7,0.3c-0.1,0.2-0.2,0.5-0.2,0.8v3.2h-1v-3c0-0.2,0-0.4,0-0.5c0-0.2,0-0.3-0.1-0.4s-0.1-0.2-0.2-0.3
		s-0.2-0.1-0.4-0.1c-0.3,0-0.5,0.1-0.7,0.3c-0.1,0.2-0.2,0.5-0.2,0.8v3.2h-1V214h0.9l0.1,0.5l0,0c0.1-0.2,0.3-0.4,0.5-0.5
		s0.4-0.2,0.7-0.2c0.3,0,0.5,0.1,0.7,0.2c0.2,0.1,0.4,0.3,0.5,0.5c0.2-0.3,0.4-0.5,0.6-0.6s0.5-0.1,0.8-0.1s0.5,0,0.7,0.1
		s0.4,0.2,0.5,0.4s0.2,0.4,0.3,0.6c0.1,0.3,0.1,0.6,0.1,0.9v3.1h-1.2V219.1z"/>
	<path class="st2" d="M109.4,216.5c0,0,0,0.1,0,0.2c0,0.1,0,0.2,0,0.2h-3.1c0,1,0.4,1.5,1.2,1.5c0.2,0,0.4,0,0.6-0.1
		s0.4-0.2,0.6-0.3l0.3,0.8c-0.3,0.2-0.5,0.3-0.8,0.4c-0.3,0.1-0.5,0.1-0.8,0.1c-0.4,0-0.7-0.1-1-0.2s-0.5-0.3-0.7-0.5
		s-0.3-0.5-0.4-0.8s-0.1-0.7-0.1-1.1c0-0.4,0.1-0.8,0.2-1.2c0.1-0.3,0.3-0.6,0.4-0.8c0.2-0.2,0.4-0.4,0.7-0.5
		c0.3-0.1,0.6-0.2,0.9-0.2c0.6,0,1.1,0.2,1.5,0.6C109.3,215,109.4,215.7,109.4,216.5z M108.4,215.6c0-0.2-0.1-0.3-0.2-0.5
		s-0.2-0.2-0.3-0.3c-0.1-0.1-0.3-0.1-0.5-0.1c-0.3,0-0.6,0.1-0.8,0.4c-0.2,0.3-0.3,0.6-0.3,1.1h2.1
		C108.5,216,108.4,215.8,108.4,215.6z"/>
	<path class="st2" d="M117,219.1h-1.3l-1.5-5.1h1.1l1,4.2l0,0l1-4.2h1L117,219.1z"/>
	<path class="st2" d="M120.9,212.7c0,0.2-0.1,0.3-0.2,0.4c-0.1,0.1-0.3,0.2-0.5,0.2s-0.4-0.1-0.5-0.2c-0.1-0.1-0.2-0.2-0.2-0.4
		s0.1-0.3,0.2-0.4c0.1-0.1,0.3-0.2,0.5-0.2s0.4,0.1,0.5,0.2S120.9,212.6,120.9,212.7z M119.7,219.1V214h1v5.1H119.7z"/>
	<path class="st2" d="M126.5,216.5c0,0,0,0.1,0,0.2c0,0.1,0,0.2,0,0.2h-3.1c0,1,0.4,1.5,1.2,1.5c0.2,0,0.4,0,0.6-0.1
		s0.4-0.2,0.6-0.3l0.3,0.8c-0.3,0.2-0.5,0.3-0.8,0.4c-0.3,0.1-0.5,0.1-0.8,0.1c-0.4,0-0.7-0.1-1-0.2s-0.5-0.3-0.7-0.5
		s-0.3-0.5-0.4-0.8s-0.1-0.7-0.1-1.1c0-0.4,0.1-0.8,0.2-1.2c0.1-0.3,0.3-0.6,0.4-0.8c0.2-0.2,0.4-0.4,0.7-0.5
		c0.3-0.1,0.6-0.2,0.9-0.2c0.6,0,1.1,0.2,1.5,0.6C126.3,215,126.5,215.7,126.5,216.5z M125.5,215.6c0-0.2-0.1-0.3-0.2-0.5
		s-0.2-0.2-0.3-0.3c-0.1-0.1-0.3-0.1-0.5-0.1c-0.3,0-0.6,0.1-0.8,0.4c-0.2,0.3-0.3,0.6-0.3,1.1h2.1
		C125.6,216,125.5,215.8,125.5,215.6z"/>
	<path class="st2" d="M133.1,219.1h-1.2l-0.9-3.6l0,0l-0.9,3.6h-1.2l-1.2-5.1h1.1l0.7,4.1l0,0l1-4.1h0.9l1,4.1l0,0l0.8-4.1h1
		L133.1,219.1z"/>
	<path class="st2" d="M138.8,217.7c0,0.3,0,0.5-0.1,0.7s-0.2,0.4-0.4,0.5s-0.3,0.2-0.6,0.3s-0.5,0.1-0.7,0.1c-0.3,0-0.6,0-0.9-0.1
		c-0.3-0.1-0.6-0.2-0.8-0.4l0.3-0.8c0.2,0.1,0.4,0.3,0.7,0.4c0.3,0.1,0.5,0.1,0.8,0.1s0.5,0,0.6-0.1s0.2-0.3,0.2-0.5
		c0-0.1,0-0.2-0.1-0.3s-0.1-0.2-0.2-0.2s-0.2-0.1-0.3-0.2c-0.1-0.1-0.3-0.1-0.4-0.2c-0.2-0.1-0.3-0.1-0.5-0.2
		c-0.2-0.1-0.3-0.2-0.4-0.3c-0.1-0.1-0.2-0.2-0.3-0.4s-0.1-0.4-0.1-0.7c0-0.2,0-0.4,0.1-0.6c0.1-0.2,0.2-0.3,0.4-0.5
		s0.3-0.2,0.6-0.3c0.2-0.1,0.4-0.1,0.7-0.1s0.5,0,0.8,0.1s0.5,0.1,0.7,0.3l-0.2,0.8c-0.2-0.1-0.4-0.2-0.6-0.2
		c-0.2-0.1-0.4-0.1-0.6-0.1c-0.1,0-0.2,0-0.3,0s-0.2,0-0.3,0.1c-0.1,0-0.1,0.1-0.2,0.2c0,0.1-0.1,0.2-0.1,0.3s0,0.2,0.1,0.3
		s0.1,0.1,0.2,0.2c0.1,0.1,0.2,0.1,0.3,0.2c0.1,0,0.3,0.1,0.4,0.2c0.2,0.1,0.3,0.1,0.5,0.2c0.2,0.1,0.3,0.2,0.5,0.3s0.2,0.3,0.3,0.4
		C138.8,217.2,138.8,217.4,138.8,217.7z"/>
	<path class="st2" d="M148.1,216.6c0,0.4,0,0.8-0.1,1.1s-0.2,0.6-0.4,0.8s-0.4,0.4-0.7,0.5s-0.6,0.2-1,0.2s-0.7-0.1-1-0.2
		c-0.3-0.1-0.5-0.3-0.7-0.5s-0.3-0.5-0.4-0.8s-0.1-0.7-0.1-1.1c0-0.4,0-0.7,0.1-1.1c0.1-0.3,0.2-0.6,0.4-0.8s0.4-0.4,0.7-0.5
		s0.6-0.2,1-0.2s0.7,0.1,1,0.2c0.3,0.1,0.5,0.3,0.7,0.5s0.3,0.5,0.4,0.8C148.1,215.8,148.1,216.2,148.1,216.6z M147.1,216.6
		c0-0.2,0-0.5,0-0.7s-0.1-0.4-0.2-0.6c-0.1-0.2-0.2-0.3-0.3-0.4c-0.1-0.1-0.3-0.1-0.6-0.1c-0.2,0-0.4,0-0.6,0.1
		c-0.1,0.1-0.3,0.2-0.3,0.4c-0.1,0.2-0.1,0.4-0.2,0.6c0,0.2,0,0.4,0,0.7s0,0.5,0,0.7s0.1,0.4,0.2,0.6c0.1,0.2,0.2,0.3,0.3,0.4
		s0.3,0.1,0.5,0.1s0.4,0,0.5-0.1s0.3-0.2,0.3-0.4c0.1-0.2,0.1-0.4,0.2-0.6S147.1,216.8,147.1,216.6z"/>
	<path class="st2" d="M151.8,213.1c-0.1,0-0.1,0-0.2,0c-0.1,0-0.2,0-0.3,0s-0.1,0-0.2,0.1c0,0-0.1,0.1-0.1,0.2c0,0.1,0,0.2,0,0.3
		v0.5h0.9v0.8H151v4.1h-1V215h-0.6v-0.9h0.6v-0.4c0-0.3,0-0.5,0.1-0.7c0-0.2,0.1-0.3,0.2-0.4c0.1-0.1,0.3-0.2,0.4-0.2
		s0.4-0.1,0.7-0.1c0.1,0,0.2,0,0.3,0s0.2,0,0.3,0v0.8C151.9,213.1,151.9,213.1,151.8,213.1z"/>
	<path class="st2" d="M158.9,219.2c-0.1,0-0.2,0-0.3,0c-0.3,0-0.5,0-0.7-0.1s-0.3-0.1-0.4-0.3s-0.2-0.3-0.2-0.5s0-0.4,0-0.7V215
		h-0.7v-0.9h0.7v-1.4h1v1.4h1v0.9h-1v2.7c0,0.1,0,0.2,0,0.3s0,0.1,0.1,0.2c0,0,0.1,0.1,0.2,0.1c0.1,0,0.2,0,0.4,0h0.3v0.8
		C159.1,219.1,159,219.1,158.9,219.2z"/>
	<path class="st2" d="M163.6,219.1v-2.9c0-0.2,0-0.4,0-0.5c0-0.2,0-0.3-0.1-0.4c-0.1-0.1-0.1-0.2-0.2-0.3c-0.1-0.1-0.3-0.1-0.5-0.1
		c-0.4,0-0.6,0.1-0.8,0.3s-0.2,0.5-0.2,0.9v3.1h-1v-6.7h1v2.1l0,0c0.2-0.2,0.3-0.4,0.6-0.5c0.2-0.1,0.5-0.1,0.7-0.1
		c0.3,0,0.6,0,0.8,0.1s0.4,0.2,0.5,0.4s0.2,0.4,0.2,0.7s0.1,0.6,0.1,0.9v3H163.6z"/>
	<path class="st2" d="M170.4,216.5c0,0,0,0.1,0,0.2c0,0.1,0,0.2,0,0.2h-3.1c0,1,0.4,1.5,1.2,1.5c0.2,0,0.4,0,0.6-0.1
		s0.4-0.2,0.6-0.3l0.3,0.8c-0.3,0.2-0.5,0.3-0.8,0.4c-0.3,0.1-0.5,0.1-0.8,0.1c-0.4,0-0.7-0.1-1-0.2s-0.5-0.3-0.7-0.5
		s-0.3-0.5-0.4-0.8c-0.1-0.3-0.1-0.7-0.1-1.1c0-0.4,0.1-0.8,0.2-1.2c0.1-0.3,0.3-0.6,0.4-0.8c0.2-0.2,0.4-0.4,0.7-0.5
		s0.6-0.2,0.9-0.2c0.6,0,1.1,0.2,1.5,0.6C170.2,215,170.4,215.7,170.4,216.5z M169.4,215.6c0-0.2-0.1-0.3-0.2-0.5s-0.2-0.2-0.3-0.3
		s-0.3-0.1-0.5-0.1c-0.3,0-0.6,0.1-0.8,0.4c-0.2,0.3-0.3,0.6-0.3,1.1h2.1C169.5,216,169.4,215.8,169.4,215.6z"/>
	<path class="st2" d="M175.3,219.2c-0.2,0-0.3-0.1-0.4-0.2s-0.2-0.2-0.2-0.4l0,0c-0.2,0.2-0.4,0.4-0.7,0.5s-0.5,0.2-0.8,0.2
		c-0.2,0-0.4,0-0.6-0.1s-0.3-0.2-0.4-0.3s-0.2-0.3-0.3-0.5s-0.1-0.4-0.1-0.6c0-0.4,0.1-0.7,0.3-0.9s0.4-0.4,0.7-0.6s0.6-0.2,0.9-0.3
		c0.3-0.1,0.7-0.1,1-0.1v-0.2c0-0.1,0-0.3,0-0.4c0-0.1,0-0.2-0.1-0.3c0-0.1-0.1-0.1-0.2-0.2c-0.1,0-0.2-0.1-0.4-0.1
		c-0.3,0-0.6,0-0.9,0.1c-0.3,0.1-0.5,0.2-0.8,0.3l-0.3-0.8c0.3-0.2,0.6-0.3,0.9-0.4c0.3-0.1,0.7-0.1,1-0.1s0.6,0,0.8,0.1
		s0.4,0.2,0.5,0.3s0.2,0.3,0.3,0.6s0.1,0.5,0.1,0.8v2.3c0,0.1,0,0.2,0,0.2c0,0.1,0,0.1,0,0.2l0.1,0.1c0,0,0.1,0.1,0.2,0.1
		L175.3,219.2z M174.6,216.5c-0.2,0-0.4,0-0.7,0s-0.4,0.1-0.6,0.2c-0.2,0.1-0.3,0.2-0.4,0.4c-0.1,0.1-0.2,0.3-0.2,0.6
		c0,0.1,0,0.2,0,0.3s0.1,0.2,0.1,0.3c0.1,0.1,0.1,0.1,0.2,0.2c0.1,0,0.2,0.1,0.3,0.1c0.2,0,0.4,0,0.6-0.1s0.4-0.2,0.5-0.4v-1.6
		H174.6z"/>
	<path class="st2" d="M179.3,219.2c-0.1,0-0.2,0-0.3,0c-0.3,0-0.5,0-0.7-0.1s-0.3-0.1-0.4-0.3s-0.2-0.3-0.2-0.5s0-0.4,0-0.7V215H177
		v-0.9h0.7v-1.4h1v1.4h1v0.9h-1v2.7c0,0.1,0,0.2,0,0.3s0,0.1,0.1,0.2c0,0,0.1,0.1,0.2,0.1c0.1,0,0.2,0,0.4,0h0.3v0.8
		C179.5,219.1,179.4,219.1,179.3,219.2z"/>
	<path class="st2" d="M183.5,214.9c-0.2,0-0.4,0-0.5,0.1s-0.3,0.1-0.4,0.2c-0.1,0.1-0.2,0.2-0.2,0.3c-0.1,0.1-0.1,0.3-0.1,0.5v3.1
		h-1V214h0.9l0.1,0.6l0,0c0.1-0.2,0.3-0.4,0.5-0.5s0.4-0.2,0.8-0.2h0.3v1L183.5,214.9L183.5,214.9z"/>
	<path class="st2" d="M188.9,216.5c0,0,0,0.1,0,0.2c0,0.1,0,0.2,0,0.2h-3.1c0,1,0.4,1.5,1.2,1.5c0.2,0,0.4,0,0.6-0.1
		s0.4-0.2,0.6-0.3l0.3,0.8c-0.3,0.2-0.5,0.3-0.8,0.4c-0.3,0.1-0.5,0.1-0.8,0.1c-0.4,0-0.7-0.1-1-0.2s-0.5-0.3-0.7-0.5
		s-0.3-0.5-0.4-0.8c-0.1-0.3-0.1-0.7-0.1-1.1c0-0.4,0.1-0.8,0.2-1.2c0.1-0.3,0.3-0.6,0.4-0.8c0.2-0.2,0.4-0.4,0.7-0.5
		s0.6-0.2,0.9-0.2c0.6,0,1.1,0.2,1.5,0.6C188.7,215,188.9,215.7,188.9,216.5z M187.9,215.6c0-0.2-0.1-0.3-0.2-0.5s-0.2-0.2-0.3-0.3
		s-0.3-0.1-0.5-0.1c-0.3,0-0.6,0.1-0.8,0.4c-0.2,0.3-0.3,0.6-0.3,1.1h2.1C187.9,216,187.9,215.8,187.9,215.6z"/>
	<path class="st2" d="M193.7,217.7c0,0.3,0,0.5-0.1,0.7s-0.2,0.4-0.4,0.5s-0.3,0.2-0.6,0.3s-0.5,0.1-0.7,0.1c-0.3,0-0.6,0-0.9-0.1
		c-0.3-0.1-0.6-0.2-0.8-0.4l0.3-0.8c0.2,0.1,0.4,0.3,0.7,0.4c0.3,0.1,0.5,0.1,0.8,0.1s0.5,0,0.6-0.1s0.2-0.3,0.2-0.5
		c0-0.1,0-0.2-0.1-0.3s-0.1-0.2-0.2-0.2s-0.2-0.1-0.3-0.2c-0.1-0.1-0.3-0.1-0.4-0.2c-0.2-0.1-0.3-0.1-0.5-0.2
		c-0.2-0.1-0.3-0.2-0.4-0.3c-0.1-0.1-0.2-0.2-0.3-0.4s-0.1-0.4-0.1-0.7c0-0.2,0-0.4,0.1-0.6c0.1-0.2,0.2-0.3,0.4-0.5
		s0.3-0.2,0.6-0.3c0.2-0.1,0.4-0.1,0.7-0.1s0.5,0,0.8,0.1s0.5,0.1,0.7,0.3l-0.2,0.8c-0.2-0.1-0.4-0.2-0.6-0.2
		c-0.2-0.1-0.4-0.1-0.6-0.1c-0.1,0-0.2,0-0.3,0s-0.2,0-0.3,0.1c-0.1,0-0.1,0.1-0.2,0.2c0,0.1-0.1,0.2-0.1,0.3s0,0.2,0.1,0.3
		s0.1,0.1,0.2,0.2c0.1,0.1,0.2,0.1,0.3,0.2c0.1,0,0.3,0.1,0.4,0.2c0.2,0.1,0.3,0.1,0.5,0.2c0.2,0.1,0.3,0.2,0.5,0.3s0.2,0.3,0.3,0.4
		C193.6,217.2,193.7,217.4,193.7,217.7z"/>
	<path class="st2" d="M195.5,220.3h-0.7l0.3-2.2h1.1L195.5,220.3z"/>
	<path class="st2" d="M204.6,215.2c-0.2-0.2-0.3-0.3-0.5-0.4c-0.2-0.1-0.4-0.1-0.6-0.1c-0.2,0-0.4,0.1-0.6,0.2
		c-0.2,0.1-0.3,0.3-0.4,0.4c-0.1,0.2-0.1,0.4-0.2,0.6c0,0.2,0,0.4,0,0.6c0,0.2,0,0.4,0,0.6c0,0.2,0.1,0.4,0.2,0.6
		c0.1,0.2,0.2,0.3,0.4,0.4c0.2,0.1,0.4,0.2,0.6,0.2c0.2,0,0.4,0,0.6-0.1s0.4-0.2,0.6-0.3l0.3,0.8c-0.2,0.2-0.5,0.3-0.8,0.4
		s-0.5,0.1-0.8,0.1c-0.4,0-0.7-0.1-1-0.2c-0.3-0.1-0.5-0.3-0.7-0.6c-0.2-0.2-0.3-0.5-0.4-0.8s-0.1-0.7-0.1-1c0-0.4,0-0.7,0.1-1
		s0.2-0.6,0.4-0.8s0.4-0.4,0.7-0.6c0.3-0.1,0.6-0.2,1-0.2c0.3,0,0.5,0,0.8,0.1s0.5,0.2,0.7,0.4L204.6,215.2z"/>
	<path class="st2" d="M207.8,219.2c-0.1,0-0.2,0-0.4,0s-0.4,0-0.5-0.1s-0.2-0.1-0.3-0.2c-0.1-0.1-0.1-0.2-0.2-0.3
		c0-0.1-0.1-0.3-0.1-0.5v-5.7h1v5.5c0,0.1,0,0.2,0,0.2s0,0.1,0.1,0.1l0.1,0.1c0.1,0,0.1,0,0.2,0h0.2v0.8
		C208,219.1,207.9,219.1,207.8,219.2z"/>
	<path class="st2" d="M210.7,212.7c0,0.2-0.1,0.3-0.2,0.4c-0.1,0.1-0.3,0.2-0.5,0.2s-0.4-0.1-0.5-0.2c-0.1-0.1-0.2-0.2-0.2-0.4
		s0.1-0.3,0.2-0.4c0.1-0.1,0.3-0.2,0.5-0.2s0.4,0.1,0.5,0.2S210.7,212.6,210.7,212.7z M209.6,219.1V214h1v5.1H209.6z"/>
	<path class="st2" d="M215.3,219.1v-2.9c0-0.2,0-0.4,0-0.6c0-0.2,0-0.3-0.1-0.4c-0.1-0.1-0.1-0.2-0.2-0.3c-0.1-0.1-0.3-0.1-0.5-0.1
		c-0.4,0-0.6,0.1-0.8,0.3s-0.2,0.5-0.2,0.9v3.1h-1V214h0.9l0.1,0.5l0,0c0.1-0.2,0.3-0.4,0.6-0.5c0.2-0.1,0.5-0.1,0.8-0.1
		s0.6,0,0.8,0.1s0.4,0.2,0.5,0.4s0.2,0.4,0.2,0.7s0.1,0.6,0.1,0.9v3L215.3,219.1L215.3,219.1z"/>
	<path class="st2" d="M219.4,212.7c0,0.2-0.1,0.3-0.2,0.4c-0.1,0.1-0.3,0.2-0.5,0.2s-0.4-0.1-0.5-0.2c-0.1-0.1-0.2-0.2-0.2-0.4
		s0.1-0.3,0.2-0.4c0.1-0.1,0.3-0.2,0.5-0.2s0.4,0.1,0.5,0.2S219.4,212.6,219.4,212.7z M218.2,219.1V214h1v5.1H218.2z"/>
	<path class="st2" d="M224.2,215.2c-0.2-0.2-0.3-0.3-0.5-0.4c-0.2-0.1-0.4-0.1-0.6-0.1c-0.2,0-0.4,0.1-0.6,0.2
		c-0.2,0.1-0.3,0.3-0.4,0.4c-0.1,0.2-0.1,0.4-0.2,0.6c0,0.2,0,0.4,0,0.6c0,0.2,0,0.4,0,0.6c0,0.2,0.1,0.4,0.2,0.6
		c0.1,0.2,0.2,0.3,0.4,0.4c0.2,0.1,0.4,0.2,0.6,0.2c0.2,0,0.4,0,0.6-0.1s0.4-0.2,0.6-0.3l0.3,0.8c-0.2,0.2-0.5,0.3-0.8,0.4
		s-0.5,0.1-0.8,0.1c-0.4,0-0.7-0.1-1-0.2c-0.3-0.1-0.5-0.3-0.7-0.6c-0.2-0.2-0.3-0.5-0.4-0.8s-0.1-0.7-0.1-1c0-0.4,0-0.7,0.1-1
		s0.2-0.6,0.4-0.8s0.4-0.4,0.7-0.6c0.3-0.1,0.6-0.2,1-0.2c0.3,0,0.5,0,0.8,0.1s0.5,0.2,0.7,0.4L224.2,215.2z"/>
	<path class="st2" d="M229.1,217.7c0,0.3,0,0.5-0.1,0.7s-0.2,0.4-0.4,0.5s-0.3,0.2-0.6,0.3s-0.5,0.1-0.7,0.1c-0.3,0-0.6,0-0.9-0.1
		c-0.3-0.1-0.6-0.2-0.8-0.4l0.3-0.8c0.2,0.1,0.4,0.3,0.7,0.4c0.3,0.1,0.5,0.1,0.8,0.1s0.5,0,0.6-0.1s0.2-0.3,0.2-0.5
		c0-0.1,0-0.2-0.1-0.3s-0.1-0.2-0.2-0.2s-0.2-0.1-0.3-0.2c-0.1-0.1-0.3-0.1-0.4-0.2c-0.2-0.1-0.3-0.1-0.5-0.2
		c-0.2-0.1-0.3-0.2-0.4-0.3c-0.1-0.1-0.2-0.2-0.3-0.4s-0.1-0.4-0.1-0.7c0-0.2,0-0.4,0.1-0.6c0.1-0.2,0.2-0.3,0.4-0.5
		s0.3-0.2,0.6-0.3c0.2-0.1,0.4-0.1,0.7-0.1s0.5,0,0.8,0.1s0.5,0.1,0.7,0.3l-0.2,0.8c-0.2-0.1-0.4-0.2-0.6-0.2
		c-0.2-0.1-0.4-0.1-0.6-0.1c-0.1,0-0.2,0-0.3,0s-0.2,0-0.3,0.1c-0.1,0-0.1,0.1-0.2,0.2c0,0.1-0.1,0.2-0.1,0.3s0,0.2,0.1,0.3
		s0.1,0.1,0.2,0.2c0.1,0.1,0.2,0.1,0.3,0.2c0.1,0,0.3,0.1,0.4,0.2c0.2,0.1,0.3,0.1,0.5,0.2c0.2,0.1,0.3,0.2,0.5,0.3s0.2,0.3,0.3,0.4
		C229.1,217.2,229.1,217.4,229.1,217.7z"/>
	<path class="st2" d="M237.6,219.2c-0.2,0-0.3-0.1-0.4-0.2s-0.2-0.2-0.2-0.4l0,0c-0.2,0.2-0.4,0.4-0.7,0.5s-0.5,0.2-0.8,0.2
		c-0.2,0-0.4,0-0.6-0.1s-0.3-0.2-0.4-0.3s-0.2-0.3-0.3-0.5s-0.1-0.4-0.1-0.6c0-0.4,0.1-0.7,0.3-0.9s0.4-0.4,0.7-0.6s0.6-0.2,0.9-0.3
		c0.3-0.1,0.7-0.1,1-0.1v-0.2c0-0.1,0-0.3,0-0.4c0-0.1,0-0.2-0.1-0.3c0-0.1-0.1-0.1-0.2-0.2c-0.1,0-0.2-0.1-0.4-0.1
		c-0.3,0-0.6,0-0.9,0.1c-0.3,0.1-0.5,0.2-0.8,0.3l-0.3-0.8c0.3-0.2,0.6-0.3,0.9-0.4c0.3-0.1,0.7-0.1,1-0.1s0.6,0,0.8,0.1
		s0.4,0.2,0.5,0.3s0.2,0.3,0.3,0.6s0.1,0.5,0.1,0.8v2.3c0,0.1,0,0.2,0,0.2c0,0.1,0,0.1,0,0.2l0.1,0.1c0,0,0.1,0.1,0.2,0.1
		L237.6,219.2z M236.9,216.5c-0.2,0-0.4,0-0.7,0s-0.4,0.1-0.6,0.2c-0.2,0.1-0.3,0.2-0.4,0.4c-0.1,0.1-0.2,0.3-0.2,0.6
		c0,0.1,0,0.2,0,0.3s0.1,0.2,0.1,0.3c0.1,0.1,0.1,0.1,0.2,0.2c0.1,0,0.2,0.1,0.3,0.1c0.2,0,0.4,0,0.6-0.1s0.4-0.2,0.5-0.4v-1.6
		H236.9z"/>
	<path class="st2" d="M242.7,219.1v-2.9c0-0.2,0-0.4,0-0.6c0-0.2,0-0.3-0.1-0.4c-0.1-0.1-0.1-0.2-0.2-0.3c-0.1-0.1-0.3-0.1-0.5-0.1
		c-0.4,0-0.6,0.1-0.8,0.3s-0.2,0.5-0.2,0.9v3.1h-1V214h0.9l0.1,0.5l0,0c0.1-0.2,0.3-0.4,0.6-0.5c0.2-0.1,0.5-0.1,0.8-0.1
		s0.6,0,0.8,0.1s0.4,0.2,0.5,0.4s0.2,0.4,0.2,0.7s0.1,0.6,0.1,0.9v3L242.7,219.1L242.7,219.1z"/>
	<path class="st2" d="M248.5,219.1l-0.1-0.6l0,0c-0.2,0.2-0.3,0.4-0.5,0.5s-0.4,0.2-0.7,0.2s-0.6-0.1-0.9-0.2
		c-0.2-0.2-0.4-0.4-0.6-0.6c-0.1-0.3-0.2-0.5-0.3-0.9c-0.1-0.3-0.1-0.6-0.1-1s0-0.7,0.1-1.1s0.2-0.6,0.3-0.8
		c0.2-0.2,0.3-0.4,0.6-0.5c0.2-0.1,0.5-0.2,0.8-0.2c0.2,0,0.5,0,0.7,0.1s0.4,0.2,0.5,0.5l0,0v-2.2h1v6.7L248.5,219.1L248.5,219.1z
		 M248.4,215.8c0-0.4-0.1-0.6-0.3-0.8s-0.4-0.3-0.7-0.3c-0.2,0-0.4,0-0.5,0.1s-0.2,0.2-0.3,0.4s-0.1,0.4-0.1,0.6c0,0.2,0,0.5,0,0.7
		s0,0.5,0,0.7s0.1,0.4,0.2,0.6c0.1,0.2,0.2,0.3,0.3,0.4s0.3,0.2,0.5,0.2s0.3,0,0.5-0.1s0.2-0.2,0.3-0.3s0.1-0.2,0.2-0.4
		c0-0.1,0-0.3,0-0.5v-1.3H248.4z"/>
	<path class="st2" d="M259.1,216.6c0,0.4,0,0.8-0.1,1.1s-0.2,0.6-0.4,0.8s-0.4,0.4-0.7,0.5s-0.6,0.2-1,0.2s-0.7-0.1-1-0.2
		c-0.3-0.1-0.5-0.3-0.7-0.5s-0.3-0.5-0.4-0.8s-0.1-0.7-0.1-1.1c0-0.4,0-0.7,0.1-1.1c0.1-0.3,0.2-0.6,0.4-0.8s0.4-0.4,0.7-0.5
		s0.6-0.2,1-0.2s0.7,0.1,1,0.2c0.3,0.1,0.5,0.3,0.7,0.5s0.3,0.5,0.4,0.8C259,215.8,259.1,216.2,259.1,216.6z M258,216.6
		c0-0.2,0-0.5,0-0.7s-0.1-0.4-0.2-0.6c-0.1-0.2-0.2-0.3-0.3-0.4c-0.1-0.1-0.3-0.1-0.6-0.1c-0.2,0-0.4,0-0.6,0.1
		c-0.1,0.1-0.3,0.2-0.3,0.4c-0.1,0.2-0.1,0.4-0.2,0.6c0,0.2,0,0.4,0,0.7s0,0.5,0,0.7s0.1,0.4,0.2,0.6c0.1,0.2,0.2,0.3,0.3,0.4
		s0.3,0.1,0.5,0.1s0.4,0,0.5-0.1s0.3-0.2,0.3-0.4c0.1-0.2,0.1-0.4,0.2-0.6S258,216.8,258,216.6z"/>
	<path class="st2" d="M263.5,219.1v-2.9c0-0.2,0-0.4,0-0.6c0-0.2,0-0.3-0.1-0.4c-0.1-0.1-0.1-0.2-0.2-0.3c-0.1-0.1-0.3-0.1-0.5-0.1
		c-0.4,0-0.6,0.1-0.8,0.3s-0.2,0.5-0.2,0.9v3.1h-1V214h0.9l0.1,0.5l0,0c0.1-0.2,0.3-0.4,0.6-0.5c0.2-0.1,0.5-0.1,0.8-0.1
		s0.6,0,0.8,0.1s0.4,0.2,0.5,0.4s0.2,0.4,0.2,0.7s0.1,0.6,0.1,0.9v3L263.5,219.1L263.5,219.1z"/>
	<path class="st2" d="M269.5,215.2c-0.2-0.2-0.3-0.3-0.5-0.4c-0.2-0.1-0.4-0.1-0.6-0.1c-0.2,0-0.4,0.1-0.6,0.2
		c-0.2,0.1-0.3,0.3-0.4,0.4c-0.1,0.2-0.1,0.4-0.2,0.6c0,0.2,0,0.4,0,0.6c0,0.2,0,0.4,0,0.6c0,0.2,0.1,0.4,0.2,0.6
		c0.1,0.2,0.2,0.3,0.4,0.4c0.2,0.1,0.4,0.2,0.6,0.2c0.2,0,0.4,0,0.6-0.1s0.4-0.2,0.6-0.3l0.3,0.8c-0.2,0.2-0.5,0.3-0.8,0.4
		s-0.5,0.1-0.8,0.1c-0.4,0-0.7-0.1-1-0.2c-0.3-0.1-0.5-0.3-0.7-0.6c-0.2-0.2-0.3-0.5-0.4-0.8s-0.1-0.7-0.1-1c0-0.4,0-0.7,0.1-1
		s0.2-0.6,0.4-0.8s0.4-0.4,0.7-0.6c0.3-0.1,0.6-0.2,1-0.2c0.3,0,0.5,0,0.8,0.1s0.5,0.2,0.7,0.4L269.5,215.2z"/>
	<path class="st2" d="M274.6,219.2c-0.2,0-0.3-0.1-0.4-0.2s-0.2-0.2-0.2-0.4l0,0c-0.2,0.2-0.4,0.4-0.7,0.5s-0.5,0.2-0.8,0.2
		c-0.2,0-0.4,0-0.6-0.1s-0.3-0.2-0.4-0.3s-0.2-0.3-0.3-0.5s-0.1-0.4-0.1-0.6c0-0.4,0.1-0.7,0.3-0.9s0.4-0.4,0.7-0.6s0.6-0.2,0.9-0.3
		c0.3-0.1,0.7-0.1,1-0.1v-0.2c0-0.1,0-0.3,0-0.4c0-0.1,0-0.2-0.1-0.3c0-0.1-0.1-0.1-0.2-0.2c-0.1,0-0.2-0.1-0.4-0.1
		c-0.3,0-0.6,0-0.9,0.1c-0.3,0.1-0.5,0.2-0.8,0.3l-0.3-0.8c0.3-0.2,0.6-0.3,0.9-0.4c0.3-0.1,0.7-0.1,1-0.1s0.6,0,0.8,0.1
		s0.4,0.2,0.5,0.3s0.2,0.3,0.3,0.6s0.1,0.5,0.1,0.8v2.3c0,0.1,0,0.2,0,0.2c0,0.1,0,0.1,0,0.2l0.1,0.1c0,0,0.1,0.1,0.2,0.1
		L274.6,219.2z M273.9,216.5c-0.2,0-0.4,0-0.7,0s-0.4,0.1-0.6,0.2c-0.2,0.1-0.3,0.2-0.4,0.4c-0.1,0.1-0.2,0.3-0.2,0.6
		c0,0.1,0,0.2,0,0.3s0.1,0.2,0.1,0.3c0.1,0.1,0.1,0.1,0.2,0.2c0.1,0,0.2,0.1,0.3,0.1c0.2,0,0.4,0,0.6-0.1s0.4-0.2,0.5-0.4v-1.6
		H273.9z"/>
	<path class="st2" d="M278.2,219.2c-0.1,0-0.2,0-0.4,0s-0.4,0-0.5-0.1s-0.2-0.1-0.3-0.2c-0.1-0.1-0.1-0.2-0.2-0.3
		c0-0.1-0.1-0.3-0.1-0.5v-5.7h1v5.5c0,0.1,0,0.2,0,0.2s0,0.1,0.1,0.1l0.1,0.1c0.1,0,0.1,0,0.2,0h0.2v0.8
		C278.5,219.1,278.3,219.1,278.2,219.2z"/>
	<path class="st2" d="M281.4,219.2c-0.1,0-0.2,0-0.4,0s-0.4,0-0.5-0.1s-0.2-0.1-0.3-0.2c-0.1-0.1-0.1-0.2-0.2-0.3
		c0-0.1-0.1-0.3-0.1-0.5v-5.7h1v5.5c0,0.1,0,0.2,0,0.2s0,0.1,0.1,0.1l0.1,0.1c0.1,0,0.1,0,0.2,0h0.2v0.8
		C281.6,219.1,281.5,219.1,281.4,219.2z"/>
	<path class="st2" d="M286.3,217.7c0,0.3,0,0.5-0.1,0.7s-0.2,0.4-0.4,0.5s-0.3,0.2-0.6,0.3s-0.5,0.1-0.7,0.1c-0.3,0-0.6,0-0.9-0.1
		c-0.3-0.1-0.6-0.2-0.8-0.4l0.3-0.8c0.2,0.1,0.4,0.3,0.7,0.4c0.3,0.1,0.5,0.1,0.8,0.1s0.5,0,0.6-0.1s0.2-0.3,0.2-0.5
		c0-0.1,0-0.2-0.1-0.3s-0.1-0.2-0.2-0.2s-0.2-0.1-0.3-0.2c-0.1-0.1-0.3-0.1-0.4-0.2c-0.2-0.1-0.3-0.1-0.5-0.2
		c-0.2-0.1-0.3-0.2-0.4-0.3c-0.1-0.1-0.2-0.2-0.3-0.4s-0.1-0.4-0.1-0.7c0-0.2,0-0.4,0.1-0.6c0.1-0.2,0.2-0.3,0.4-0.5
		s0.3-0.2,0.6-0.3c0.2-0.1,0.4-0.1,0.7-0.1s0.5,0,0.8,0.1s0.5,0.1,0.7,0.3l-0.2,0.8c-0.2-0.1-0.4-0.2-0.6-0.2
		c-0.2-0.1-0.4-0.1-0.6-0.1c-0.1,0-0.2,0-0.3,0s-0.2,0-0.3,0.1c-0.1,0-0.1,0.1-0.2,0.2c0,0.1-0.1,0.2-0.1,0.3s0,0.2,0.1,0.3
		s0.1,0.1,0.2,0.2c0.1,0.1,0.2,0.1,0.3,0.2c0.1,0,0.3,0.1,0.4,0.2c0.2,0.1,0.3,0.1,0.5,0.2c0.2,0.1,0.3,0.2,0.5,0.3s0.2,0.3,0.3,0.4
		C286.2,217.2,286.3,217.4,286.3,217.7z"/>
</g>
<g>
	<path class="st2" d="M77.8,58.6c-0.3,0.2-0.7,0.2-1.1,0.2c-0.5,0-0.8-0.1-1.2-0.2c-0.3-0.2-0.6-0.4-0.8-0.7s-0.4-0.6-0.4-1
		c-0.1-0.4-0.1-0.8-0.1-1.3c0-0.4,0-0.8,0.1-1.2c0.1-0.4,0.2-0.7,0.5-1c0.2-0.3,0.5-0.5,0.8-0.7s0.7-0.3,1.2-0.3
		c0.4,0,0.7,0.1,1,0.2s0.6,0.4,0.9,0.7L78.1,54c-0.1-0.1-0.2-0.2-0.3-0.3c-0.1-0.1-0.2-0.2-0.3-0.2c-0.1-0.1-0.2-0.1-0.3-0.1
		c-0.1,0-0.2,0-0.4,0c-0.2,0-0.5,0.1-0.6,0.2s-0.3,0.3-0.5,0.5c-0.1,0.2-0.2,0.4-0.3,0.7c-0.1,0.3-0.1,0.6-0.1,1
		c0,0.3,0,0.5,0.1,0.8c0,0.3,0.1,0.5,0.2,0.8c0.1,0.2,0.3,0.4,0.5,0.5s0.4,0.2,0.7,0.2c0.3,0,0.5-0.1,0.7-0.2s0.4-0.3,0.6-0.5
		l0.6,0.7C78.4,58.2,78.1,58.4,77.8,58.6z"/>
	<path class="st2" d="M83.8,56.1c0,0,0,0.1,0,0.2s0,0.2,0,0.2h-3.1c0,1,0.4,1.5,1.2,1.5c0.2,0,0.4,0,0.6-0.1s0.4-0.2,0.6-0.3
		l0.3,0.8c-0.3,0.2-0.5,0.3-0.8,0.4s-0.5,0.1-0.8,0.1c-0.4,0-0.7-0.1-1-0.2s-0.5-0.3-0.7-0.5s-0.3-0.5-0.4-0.8s-0.1-0.7-0.1-1.1
		s0.1-0.8,0.2-1.2c0.1-0.3,0.3-0.6,0.4-0.8c0.2-0.2,0.4-0.4,0.7-0.5c0.3-0.1,0.6-0.2,0.9-0.2c0.6,0,1.1,0.2,1.5,0.6
		C83.7,54.6,83.8,55.3,83.8,56.1z M82.8,55.2c0-0.2-0.1-0.3-0.2-0.5s-0.2-0.2-0.3-0.3c-0.1-0.1-0.3-0.1-0.5-0.1
		c-0.3,0-0.6,0.1-0.8,0.4c-0.2,0.3-0.3,0.6-0.3,1.1h2.1C82.9,55.6,82.9,55.4,82.8,55.2z"/>
	<path class="st2" d="M88.3,58.7v-2.9c0-0.2,0-0.4,0-0.6s0-0.3-0.1-0.4s-0.1-0.2-0.2-0.3c-0.1-0.1-0.3-0.1-0.5-0.1
		c-0.4,0-0.6,0.1-0.8,0.3s-0.2,0.5-0.2,0.9v3.1h-1v-5.1h0.9l0.1,0.5l0,0c0.1-0.2,0.3-0.4,0.6-0.5c0.2-0.1,0.5-0.1,0.8-0.1
		s0.6,0,0.8,0.1c0.2,0.1,0.4,0.2,0.5,0.4c0.1,0.2,0.2,0.4,0.2,0.7c0,0.3,0.1,0.6,0.1,0.9v3h-1.2V58.7z"/>
	<path class="st2" d="M93,58.8c-0.1,0-0.2,0-0.3,0c-0.3,0-0.5,0-0.7-0.1s-0.3-0.1-0.4-0.3s-0.2-0.3-0.2-0.5s0-0.4,0-0.7v-2.6h-0.7
		v-0.9h0.7v-1.4h1v1.4h1v0.9h-1v2.7c0,0.1,0,0.2,0,0.3c0,0.1,0,0.1,0.1,0.2c0,0,0.1,0.1,0.2,0.1s0.2,0,0.4,0h0.3v0.8
		C93.2,58.7,93.1,58.7,93,58.8z"/>
	<path class="st2" d="M97.1,54.5c-0.2,0-0.4,0-0.5,0.1s-0.3,0.1-0.4,0.2S96,55,96,55.1c-0.1,0.1-0.1,0.3-0.1,0.5v3.1h-1v-5.1h0.9
		l0.1,0.6l0,0c0.1-0.2,0.3-0.4,0.5-0.5s0.4-0.2,0.8-0.2h0.3v1H97.1z"/>
	<path class="st2" d="M101.9,58.8c-0.2,0-0.3-0.1-0.4-0.2s-0.2-0.2-0.2-0.4l0,0c-0.2,0.2-0.4,0.4-0.7,0.5c-0.3,0.1-0.5,0.2-0.8,0.2
		c-0.2,0-0.4,0-0.6-0.1s-0.3-0.2-0.4-0.3s-0.2-0.3-0.3-0.5c-0.1-0.2-0.1-0.4-0.1-0.6c0-0.4,0.1-0.7,0.3-0.9c0.2-0.2,0.4-0.4,0.7-0.6
		s0.6-0.2,0.9-0.3c0.3-0.1,0.7-0.1,1-0.1v-0.2c0-0.1,0-0.3,0-0.4s0-0.2-0.1-0.3c0-0.1-0.1-0.1-0.2-0.2c-0.1,0-0.2-0.1-0.4-0.1
		c-0.3,0-0.6,0-0.9,0.1s-0.5,0.2-0.8,0.3l-0.3-0.8c0.3-0.2,0.6-0.3,0.9-0.4s0.7-0.1,1-0.1s0.6,0,0.8,0.1c0.2,0.1,0.4,0.2,0.5,0.3
		c0.1,0.1,0.2,0.3,0.3,0.6s0.1,0.5,0.1,0.8v2.3c0,0.1,0,0.2,0,0.2c0,0.1,0,0.1,0,0.2l0.1,0.1c0,0,0.1,0.1,0.2,0.1L101.9,58.8z
		 M101.2,56.1c-0.2,0-0.4,0-0.7,0s-0.4,0.1-0.6,0.2s-0.3,0.2-0.4,0.4c-0.1,0.1-0.2,0.3-0.2,0.6c0,0.1,0,0.2,0,0.3
		c0,0.1,0.1,0.2,0.1,0.3c0.1,0.1,0.1,0.1,0.2,0.2c0.1,0,0.2,0.1,0.3,0.1c0.2,0,0.4,0,0.6-0.1s0.4-0.2,0.5-0.4v-1.6H101.2z"/>
	<path class="st2" d="M105.6,58.8c-0.1,0-0.2,0-0.4,0c-0.2,0-0.4,0-0.5-0.1s-0.2-0.1-0.3-0.2c-0.1-0.1-0.1-0.2-0.2-0.3
		c0-0.1-0.1-0.3-0.1-0.5V52h1v5.5c0,0.1,0,0.2,0,0.2s0,0.1,0.1,0.1l0.1,0.1c0.1,0,0.1,0,0.2,0h0.2v0.8
		C105.8,58.7,105.7,58.7,105.6,58.8z"/>
	<path class="st2" d="M108.7,58.8c-0.1,0-0.2,0-0.4,0c-0.2,0-0.4,0-0.5-0.1s-0.2-0.1-0.3-0.2c-0.1-0.1-0.1-0.2-0.2-0.3
		c0-0.1-0.1-0.3-0.1-0.5V52h1v5.5c0,0.1,0,0.2,0,0.2s0,0.1,0.1,0.1l0.1,0.1c0.1,0,0.1,0,0.2,0h0.2v0.8
		C109,58.7,108.9,58.7,108.7,58.8z"/>
	<path class="st2" d="M112.5,59c-0.1,0.3-0.2,0.5-0.3,0.8c-0.1,0.2-0.2,0.4-0.3,0.5c-0.1,0.1-0.3,0.2-0.4,0.3
		c-0.2,0.1-0.4,0.1-0.6,0.1c-0.1,0-0.2,0-0.3,0c-0.1,0-0.2,0-0.3,0v-0.9c0,0,0.1,0,0.2,0s0.2,0,0.2,0c0.1,0,0.2,0,0.3,0
		c0.1,0,0.1-0.1,0.2-0.1s0.1-0.1,0.1-0.2s0.1-0.2,0.1-0.4l0.1-0.4l-1.6-5.1h1.1l1.1,4l0,0l1-4h1.1L112.5,59z"/>
	<path class="st2" d="M122.3,54.8c-0.2-0.2-0.3-0.3-0.5-0.4s-0.4-0.1-0.6-0.1s-0.4,0.1-0.6,0.2s-0.3,0.3-0.4,0.4
		c-0.1,0.2-0.1,0.4-0.2,0.6c0,0.2,0,0.4,0,0.6s0,0.4,0,0.6s0.1,0.4,0.2,0.6s0.2,0.3,0.4,0.4c0.2,0.1,0.4,0.2,0.6,0.2s0.4,0,0.6-0.1
		s0.4-0.2,0.6-0.3l0.3,0.8c-0.2,0.2-0.5,0.3-0.8,0.4s-0.5,0.1-0.8,0.1c-0.4,0-0.7-0.1-1-0.2s-0.5-0.3-0.7-0.6
		c-0.2-0.2-0.3-0.5-0.4-0.8s-0.1-0.7-0.1-1c0-0.4,0-0.7,0.1-1s0.2-0.6,0.4-0.8c0.2-0.2,0.4-0.4,0.7-0.6c0.3-0.1,0.6-0.2,1-0.2
		c0.3,0,0.5,0,0.8,0.1s0.5,0.2,0.7,0.4L122.3,54.8z"/>
	<path class="st2" d="M128.2,56.2c0,0.4,0,0.8-0.1,1.1c-0.1,0.3-0.2,0.6-0.4,0.8c-0.2,0.2-0.4,0.4-0.7,0.5c-0.3,0.1-0.6,0.2-1,0.2
		s-0.7-0.1-1-0.2s-0.5-0.3-0.7-0.5s-0.3-0.5-0.4-0.8s-0.1-0.7-0.1-1.1s0-0.7,0.1-1.1c0.1-0.3,0.2-0.6,0.4-0.8
		c0.2-0.2,0.4-0.4,0.7-0.5c0.3-0.1,0.6-0.2,1-0.2s0.7,0.1,1,0.2s0.5,0.3,0.7,0.5s0.3,0.5,0.4,0.8S128.2,55.8,128.2,56.2z
		 M127.2,56.2c0-0.2,0-0.5,0-0.7s-0.1-0.4-0.2-0.6s-0.2-0.3-0.3-0.4c-0.1-0.1-0.3-0.1-0.6-0.1c-0.2,0-0.4,0-0.6,0.1
		c-0.1,0.1-0.3,0.2-0.3,0.4c-0.1,0.2-0.1,0.4-0.2,0.6c0,0.2,0,0.4,0,0.7c0,0.3,0,0.5,0,0.7s0.1,0.4,0.2,0.6s0.2,0.3,0.3,0.4
		s0.3,0.1,0.5,0.1s0.4,0,0.5-0.1s0.3-0.2,0.3-0.4c0.1-0.2,0.1-0.4,0.2-0.6S127.2,56.5,127.2,56.2z"/>
	<path class="st2" d="M133.9,56.2c0,0.4,0,0.8-0.1,1.1c-0.1,0.3-0.2,0.6-0.4,0.8c-0.2,0.2-0.4,0.4-0.7,0.5c-0.3,0.1-0.6,0.2-1,0.2
		s-0.7-0.1-1-0.2s-0.5-0.3-0.7-0.5s-0.3-0.5-0.4-0.8s-0.1-0.7-0.1-1.1s0-0.7,0.1-1.1c0.1-0.3,0.2-0.6,0.4-0.8
		c0.2-0.2,0.4-0.4,0.7-0.5c0.3-0.1,0.6-0.2,1-0.2s0.7,0.1,1,0.2s0.5,0.3,0.7,0.5s0.3,0.5,0.4,0.8S133.9,55.8,133.9,56.2z
		 M132.9,56.2c0-0.2,0-0.5,0-0.7s-0.1-0.4-0.2-0.6s-0.2-0.3-0.3-0.4c-0.1-0.1-0.3-0.1-0.6-0.1c-0.2,0-0.4,0-0.6,0.1
		c-0.1,0.1-0.3,0.2-0.3,0.4c-0.1,0.2-0.1,0.4-0.2,0.6c0,0.2,0,0.4,0,0.7c0,0.3,0,0.5,0,0.7s0.1,0.4,0.2,0.6s0.2,0.3,0.3,0.4
		s0.3,0.1,0.5,0.1s0.4,0,0.5-0.1s0.3-0.2,0.3-0.4c0.1-0.2,0.1-0.4,0.2-0.6S132.9,56.5,132.9,56.2z"/>
	<path class="st2" d="M137.8,54.5c-0.2,0-0.4,0-0.5,0.1s-0.3,0.1-0.4,0.2c-0.1,0.1-0.2,0.2-0.2,0.3c-0.1,0.1-0.1,0.3-0.1,0.5v3.1h-1
		v-5.1h0.9l0.1,0.6l0,0c0.1-0.2,0.3-0.4,0.5-0.5s0.4-0.2,0.8-0.2h0.3v1H137.8z"/>
	<path class="st2" d="M142.2,58.7l-0.1-0.6l0,0c-0.2,0.2-0.3,0.4-0.5,0.5s-0.4,0.2-0.7,0.2s-0.6-0.1-0.9-0.2
		c-0.2-0.2-0.4-0.4-0.6-0.6c-0.1-0.3-0.2-0.5-0.3-0.9c-0.1-0.3-0.1-0.6-0.1-1s0-0.7,0.1-1.1s0.2-0.6,0.3-0.8
		c0.2-0.2,0.3-0.4,0.6-0.5c0.2-0.1,0.5-0.2,0.8-0.2c0.2,0,0.5,0,0.7,0.1s0.4,0.2,0.5,0.5l0,0v-2.2h1v6.7h-0.8V58.7z M142.1,55.4
		c0-0.4-0.1-0.6-0.3-0.8c-0.2-0.2-0.4-0.3-0.7-0.3c-0.2,0-0.4,0-0.5,0.1s-0.2,0.2-0.3,0.4c-0.1,0.2-0.1,0.4-0.1,0.6s0,0.5,0,0.7
		s0,0.5,0,0.7s0.1,0.4,0.2,0.6c0.1,0.2,0.2,0.3,0.3,0.4s0.3,0.2,0.5,0.2s0.3,0,0.5-0.1s0.2-0.2,0.3-0.3c0.1-0.1,0.1-0.2,0.2-0.4
		c0-0.1,0-0.3,0-0.5v-1.3H142.1z"/>
	<path class="st2" d="M146.2,52.3c0,0.2-0.1,0.3-0.2,0.4c-0.1,0.1-0.3,0.2-0.5,0.2s-0.4-0.1-0.5-0.2s-0.2-0.2-0.2-0.4
		c0-0.2,0.1-0.3,0.2-0.4c0.1-0.1,0.3-0.2,0.5-0.2s0.4,0.1,0.5,0.2S146.2,52.2,146.2,52.3z M145,58.7v-5.1h1v5.1H145z"/>
	<path class="st2" d="M150.8,58.7v-2.9c0-0.2,0-0.4,0-0.6s0-0.3-0.1-0.4s-0.1-0.2-0.2-0.3c-0.1-0.1-0.3-0.1-0.5-0.1
		c-0.4,0-0.6,0.1-0.8,0.3s-0.2,0.5-0.2,0.9v3.1h-1v-5.1h0.9l0.1,0.5l0,0c0.1-0.2,0.3-0.4,0.6-0.5c0.2-0.1,0.5-0.1,0.8-0.1
		s0.6,0,0.8,0.1s0.4,0.2,0.5,0.4c0.1,0.2,0.2,0.4,0.2,0.7c0,0.3,0.1,0.6,0.1,0.9v3h-1.2V58.7z"/>
	<path class="st2" d="M156.9,58.8c-0.2,0-0.3-0.1-0.4-0.2s-0.2-0.2-0.2-0.4l0,0c-0.2,0.2-0.4,0.4-0.7,0.5s-0.5,0.2-0.8,0.2
		c-0.2,0-0.4,0-0.6-0.1s-0.3-0.2-0.4-0.3s-0.2-0.3-0.3-0.5s-0.1-0.4-0.1-0.6c0-0.4,0.1-0.7,0.3-0.9c0.2-0.2,0.4-0.4,0.7-0.6
		s0.6-0.2,0.9-0.3c0.3-0.1,0.7-0.1,1-0.1v-0.2c0-0.1,0-0.3,0-0.4s0-0.2-0.1-0.3c0-0.1-0.1-0.1-0.2-0.2c-0.1,0-0.2-0.1-0.4-0.1
		c-0.3,0-0.6,0-0.9,0.1c-0.3,0.1-0.5,0.2-0.8,0.3l-0.3-0.8c0.3-0.2,0.6-0.3,0.9-0.4c0.3-0.1,0.7-0.1,1-0.1s0.6,0,0.8,0.1
		s0.4,0.2,0.5,0.3c0.1,0.1,0.2,0.3,0.3,0.6s0.1,0.5,0.1,0.8v2.3c0,0.1,0,0.2,0,0.2c0,0.1,0,0.1,0,0.2l0.1,0.1c0,0,0.1,0.1,0.2,0.1
		L156.9,58.8z M156.2,56.1c-0.2,0-0.4,0-0.7,0s-0.4,0.1-0.6,0.2c-0.2,0.1-0.3,0.2-0.4,0.4c-0.1,0.1-0.2,0.3-0.2,0.6
		c0,0.1,0,0.2,0,0.3c0,0.1,0.1,0.2,0.1,0.3c0.1,0.1,0.1,0.1,0.2,0.2c0.1,0,0.2,0.1,0.3,0.1c0.2,0,0.4,0,0.6-0.1s0.4-0.2,0.5-0.4
		v-1.6H156.2z"/>
	<path class="st2" d="M160.9,58.8c-0.1,0-0.2,0-0.3,0c-0.3,0-0.5,0-0.7-0.1s-0.3-0.1-0.4-0.3s-0.2-0.3-0.2-0.5s0-0.4,0-0.7v-2.6
		h-0.7v-0.9h0.7v-1.4h1v1.4h1v0.9h-1v2.7c0,0.1,0,0.2,0,0.3c0,0.1,0,0.1,0.1,0.2c0,0,0.1,0.1,0.2,0.1c0.1,0,0.2,0,0.4,0h0.3v0.8
		C161.2,58.7,161,58.7,160.9,58.8z"/>
	<path class="st2" d="M166.6,56.1c0,0,0,0.1,0,0.2s0,0.2,0,0.2h-3.1c0,1,0.4,1.5,1.2,1.5c0.2,0,0.4,0,0.6-0.1s0.4-0.2,0.6-0.3
		l0.3,0.8c-0.3,0.2-0.5,0.3-0.8,0.4s-0.5,0.1-0.8,0.1c-0.4,0-0.7-0.1-1-0.2s-0.5-0.3-0.7-0.5s-0.3-0.5-0.4-0.8
		c-0.1-0.3-0.1-0.7-0.1-1.1s0.1-0.8,0.2-1.2c0.1-0.3,0.3-0.6,0.4-0.8c0.2-0.2,0.4-0.4,0.7-0.5s0.6-0.2,0.9-0.2
		c0.6,0,1.1,0.2,1.5,0.6C166.5,54.6,166.6,55.3,166.6,56.1z M165.6,55.2c0-0.2-0.1-0.3-0.2-0.5s-0.2-0.2-0.3-0.3
		c-0.1-0.1-0.3-0.1-0.5-0.1c-0.3,0-0.6,0.1-0.8,0.4s-0.3,0.6-0.3,1.1h2.1C165.7,55.6,165.6,55.4,165.6,55.2z"/>
	<path class="st2" d="M175.2,58.8c-0.2,0-0.3-0.1-0.4-0.2s-0.2-0.2-0.2-0.4l0,0c-0.2,0.2-0.4,0.4-0.7,0.5s-0.5,0.2-0.8,0.2
		c-0.2,0-0.4,0-0.6-0.1s-0.3-0.2-0.4-0.3s-0.2-0.3-0.3-0.5s-0.1-0.4-0.1-0.6c0-0.4,0.1-0.7,0.3-0.9c0.2-0.2,0.4-0.4,0.7-0.6
		s0.6-0.2,0.9-0.3c0.3-0.1,0.7-0.1,1-0.1v-0.2c0-0.1,0-0.3,0-0.4s0-0.2-0.1-0.3c0-0.1-0.1-0.1-0.2-0.2c-0.1,0-0.2-0.1-0.4-0.1
		c-0.3,0-0.6,0-0.9,0.1c-0.3,0.1-0.5,0.2-0.8,0.3l-0.3-0.8c0.3-0.2,0.6-0.3,0.9-0.4c0.3-0.1,0.7-0.1,1-0.1s0.6,0,0.8,0.1
		s0.4,0.2,0.5,0.3c0.1,0.1,0.2,0.3,0.3,0.6s0.1,0.5,0.1,0.8v2.3c0,0.1,0,0.2,0,0.2c0,0.1,0,0.1,0,0.2l0.1,0.1c0,0,0.1,0.1,0.2,0.1
		L175.2,58.8z M174.5,56.1c-0.2,0-0.4,0-0.7,0s-0.4,0.1-0.6,0.2c-0.2,0.1-0.3,0.2-0.4,0.4c-0.1,0.1-0.2,0.3-0.2,0.6
		c0,0.1,0,0.2,0,0.3c0,0.1,0.1,0.2,0.1,0.3c0.1,0.1,0.1,0.1,0.2,0.2c0.1,0,0.2,0.1,0.3,0.1c0.2,0,0.4,0,0.6-0.1s0.4-0.2,0.5-0.4
		v-1.6H174.5z"/>
	<path class="st2" d="M180.3,58.7v-2.9c0-0.2,0-0.4,0-0.6s0-0.3-0.1-0.4s-0.1-0.2-0.2-0.3c-0.1-0.1-0.3-0.1-0.5-0.1
		c-0.4,0-0.6,0.1-0.8,0.3s-0.2,0.5-0.2,0.9v3.1h-1v-5.1h0.9l0.1,0.5l0,0c0.1-0.2,0.3-0.4,0.6-0.5c0.2-0.1,0.5-0.1,0.8-0.1
		s0.6,0,0.8,0.1s0.4,0.2,0.5,0.4c0.1,0.2,0.2,0.4,0.2,0.7c0,0.3,0.1,0.6,0.1,0.9v3h-1.2V58.7z"/>
	<path class="st2" d="M186.1,58.7l-0.1-0.6l0,0c-0.2,0.2-0.3,0.4-0.5,0.5s-0.4,0.2-0.7,0.2s-0.6-0.1-0.9-0.2
		c-0.2-0.2-0.4-0.4-0.6-0.6c-0.1-0.3-0.2-0.5-0.3-0.9c-0.1-0.3-0.1-0.6-0.1-1s0-0.7,0.1-1.1s0.2-0.6,0.3-0.8
		c0.2-0.2,0.3-0.4,0.6-0.5c0.2-0.1,0.5-0.2,0.8-0.2c0.2,0,0.5,0,0.7,0.1s0.4,0.2,0.5,0.5l0,0v-2.2h1v6.7h-0.8V58.7z M186,55.4
		c0-0.4-0.1-0.6-0.3-0.8c-0.2-0.2-0.4-0.3-0.7-0.3c-0.2,0-0.4,0-0.5,0.1s-0.2,0.2-0.3,0.4c-0.1,0.2-0.1,0.4-0.1,0.6s0,0.5,0,0.7
		s0,0.5,0,0.7s0.1,0.4,0.2,0.6c0.1,0.2,0.2,0.3,0.3,0.4s0.3,0.2,0.5,0.2s0.3,0,0.5-0.1s0.2-0.2,0.3-0.3c0.1-0.1,0.1-0.2,0.2-0.4
		c0-0.1,0-0.3,0-0.5v-1.3H186z"/>
	<path class="st2" d="M194.9,54.5c-0.2,0-0.4,0-0.5,0.1s-0.3,0.1-0.4,0.2c-0.1,0.1-0.2,0.2-0.2,0.3c-0.1,0.1-0.1,0.3-0.1,0.5v3.1h-1
		v-5.1h0.9l0.1,0.6l0,0c0.1-0.2,0.3-0.4,0.5-0.5s0.4-0.2,0.8-0.2h0.3v1H194.9z"/>
	<path class="st2" d="M200.3,56.1c0,0,0,0.1,0,0.2s0,0.2,0,0.2h-3.1c0,1,0.4,1.5,1.2,1.5c0.2,0,0.4,0,0.6-0.1s0.4-0.2,0.6-0.3
		l0.3,0.8c-0.3,0.2-0.5,0.3-0.8,0.4s-0.5,0.1-0.8,0.1c-0.4,0-0.7-0.1-1-0.2s-0.5-0.3-0.7-0.5s-0.3-0.5-0.4-0.8
		c-0.1-0.3-0.1-0.7-0.1-1.1s0.1-0.8,0.2-1.2c0.1-0.3,0.3-0.6,0.4-0.8c0.2-0.2,0.4-0.4,0.7-0.5s0.6-0.2,0.9-0.2
		c0.6,0,1.1,0.2,1.5,0.6C200.1,54.6,200.3,55.3,200.3,56.1z M199.3,55.2c0-0.2-0.1-0.3-0.2-0.5s-0.2-0.2-0.3-0.3
		c-0.1-0.1-0.3-0.1-0.5-0.1c-0.3,0-0.6,0.1-0.8,0.4s-0.3,0.6-0.3,1.1h2.1C199.3,55.6,199.3,55.4,199.3,55.2z"/>
	<path class="st2" d="M206,56.2c0,0.2,0,0.4,0,0.6s-0.1,0.4-0.1,0.6c-0.1,0.2-0.1,0.4-0.2,0.6c-0.1,0.2-0.2,0.3-0.3,0.5
		c-0.1,0.1-0.3,0.2-0.5,0.3c-0.2,0.1-0.4,0.1-0.6,0.1c-0.3,0-0.5,0-0.7-0.1s-0.3-0.2-0.5-0.5l0,0v2.4h-1v-7h0.9l0.1,0.5l0,0
		c0.1-0.2,0.3-0.4,0.5-0.5s0.4-0.1,0.7-0.1c0.4,0,0.7,0.1,0.9,0.2c0.2,0.2,0.4,0.4,0.6,0.6s0.2,0.5,0.3,0.8S206,55.9,206,56.2z
		 M204.9,56.2c0-0.2,0-0.4,0-0.6s-0.1-0.4-0.1-0.6c-0.1-0.2-0.2-0.3-0.3-0.5c-0.1-0.1-0.3-0.2-0.6-0.2c-0.2,0-0.3,0-0.4,0.1
		c-0.1,0.1-0.2,0.1-0.3,0.2s-0.1,0.2-0.2,0.4s-0.1,0.3-0.1,0.4v1.3c0,0.2,0,0.3,0,0.5s0.1,0.3,0.2,0.4c0.1,0.1,0.2,0.2,0.3,0.3
		c0.1,0.1,0.3,0.1,0.5,0.1s0.4-0.1,0.5-0.2s0.2-0.3,0.3-0.5s0.1-0.4,0.1-0.6C204.9,56.5,204.9,56.4,204.9,56.2z"/>
	<path class="st2" d="M211.7,56.2c0,0.4,0,0.8-0.1,1.1c-0.1,0.3-0.2,0.6-0.4,0.8c-0.2,0.2-0.4,0.4-0.7,0.5s-0.6,0.2-1,0.2
		s-0.7-0.1-1-0.2s-0.5-0.3-0.7-0.5s-0.3-0.5-0.4-0.8s-0.1-0.7-0.1-1.1s0-0.7,0.1-1.1c0.1-0.3,0.2-0.6,0.4-0.8
		c0.2-0.2,0.4-0.4,0.7-0.5s0.6-0.2,1-0.2s0.7,0.1,1,0.2s0.5,0.3,0.7,0.5s0.3,0.5,0.4,0.8C211.6,55.4,211.7,55.8,211.7,56.2z
		 M210.6,56.2c0-0.2,0-0.5,0-0.7s-0.1-0.4-0.2-0.6c-0.1-0.2-0.2-0.3-0.3-0.4s-0.3-0.1-0.6-0.1c-0.2,0-0.4,0-0.6,0.1
		c-0.1,0.1-0.3,0.2-0.3,0.4c-0.1,0.2-0.1,0.4-0.2,0.6c0,0.2,0,0.4,0,0.7c0,0.3,0,0.5,0,0.7s0.1,0.4,0.2,0.6c0.1,0.2,0.2,0.3,0.3,0.4
		s0.3,0.1,0.5,0.1s0.4,0,0.5-0.1s0.3-0.2,0.3-0.4c0.1-0.2,0.1-0.4,0.2-0.6S210.6,56.5,210.6,56.2z"/>
	<path class="st2" d="M215.5,54.5c-0.2,0-0.4,0-0.5,0.1s-0.3,0.1-0.4,0.2c-0.1,0.1-0.2,0.2-0.2,0.3c-0.1,0.1-0.1,0.3-0.1,0.5v3.1h-1
		v-5.1h0.9l0.1,0.6l0,0c0.1-0.2,0.3-0.4,0.5-0.5s0.4-0.2,0.8-0.2h0.3v1H215.5z"/>
	<path class="st2" d="M219,58.8c-0.1,0-0.2,0-0.3,0c-0.3,0-0.5,0-0.7-0.1s-0.3-0.1-0.4-0.3s-0.2-0.3-0.2-0.5s0-0.4,0-0.7v-2.6h-0.7
		v-0.9h0.7v-1.4h1v1.4h1v0.9h-1v2.7c0,0.1,0,0.2,0,0.3c0,0.1,0,0.1,0.1,0.2c0,0,0.1,0.1,0.2,0.1c0.1,0,0.2,0,0.4,0h0.3v0.8
		C219.2,58.7,219.1,58.7,219,58.8z"/>
	<path class="st2" d="M228.7,56.2c0,0.4,0,0.8-0.1,1.1c-0.1,0.3-0.2,0.6-0.4,0.8c-0.2,0.2-0.4,0.4-0.7,0.5s-0.6,0.2-1,0.2
		s-0.7-0.1-1-0.2s-0.5-0.3-0.7-0.5s-0.3-0.5-0.4-0.8s-0.1-0.7-0.1-1.1s0-0.7,0.1-1.1c0.1-0.3,0.2-0.6,0.4-0.8
		c0.2-0.2,0.4-0.4,0.7-0.5s0.6-0.2,1-0.2s0.7,0.1,1,0.2s0.5,0.3,0.7,0.5s0.3,0.5,0.4,0.8C228.7,55.4,228.7,55.8,228.7,56.2z
		 M227.7,56.2c0-0.2,0-0.5,0-0.7s-0.1-0.4-0.2-0.6c-0.1-0.2-0.2-0.3-0.3-0.4s-0.3-0.1-0.6-0.1c-0.2,0-0.4,0-0.6,0.1
		c-0.1,0.1-0.3,0.2-0.3,0.4c-0.1,0.2-0.1,0.4-0.2,0.6c0,0.2,0,0.4,0,0.7c0,0.3,0,0.5,0,0.7s0.1,0.4,0.2,0.6c0.1,0.2,0.2,0.3,0.3,0.4
		s0.3,0.1,0.5,0.1s0.4,0,0.5-0.1s0.3-0.2,0.3-0.4c0.1-0.2,0.1-0.4,0.2-0.6S227.7,56.5,227.7,56.2z"/>
	<path class="st2" d="M233.2,58.7v-2.9c0-0.2,0-0.4,0-0.6s0-0.3-0.1-0.4s-0.1-0.2-0.2-0.3c-0.1-0.1-0.3-0.1-0.5-0.1
		c-0.4,0-0.6,0.1-0.8,0.3s-0.2,0.5-0.2,0.9v3.1h-1v-5.1h0.9l0.1,0.5l0,0c0.1-0.2,0.3-0.4,0.6-0.5c0.2-0.1,0.5-0.1,0.8-0.1
		s0.6,0,0.8,0.1s0.4,0.2,0.5,0.4c0.1,0.2,0.2,0.4,0.2,0.7c0,0.3,0.1,0.6,0.1,0.9v3h-1.2V58.7z"/>
	<path class="st2" d="M243,58.8c-0.2,0-0.3-0.1-0.4-0.2s-0.2-0.2-0.2-0.4l0,0c-0.2,0.2-0.4,0.4-0.7,0.5s-0.5,0.2-0.8,0.2
		c-0.2,0-0.4,0-0.6-0.1s-0.3-0.2-0.4-0.3s-0.2-0.3-0.3-0.5s-0.1-0.4-0.1-0.6c0-0.4,0.1-0.7,0.3-0.9c0.2-0.2,0.4-0.4,0.7-0.6
		s0.6-0.2,0.9-0.3c0.3-0.1,0.7-0.1,1-0.1v-0.2c0-0.1,0-0.3,0-0.4s0-0.2-0.1-0.3c0-0.1-0.1-0.1-0.2-0.2c-0.1,0-0.2-0.1-0.4-0.1
		c-0.3,0-0.6,0-0.9,0.1c-0.3,0.1-0.5,0.2-0.8,0.3l-0.3-0.8c0.3-0.2,0.6-0.3,0.9-0.4c0.3-0.1,0.7-0.1,1-0.1s0.6,0,0.8,0.1
		s0.4,0.2,0.5,0.3c0.1,0.1,0.2,0.3,0.3,0.6s0.1,0.5,0.1,0.8v2.3c0,0.1,0,0.2,0,0.2c0,0.1,0,0.1,0,0.2l0.1,0.1c0,0,0.1,0.1,0.2,0.1
		L243,58.8z M242.4,56.1c-0.2,0-0.4,0-0.7,0s-0.4,0.1-0.6,0.2c-0.2,0.1-0.3,0.2-0.4,0.4c-0.1,0.1-0.2,0.3-0.2,0.6c0,0.1,0,0.2,0,0.3
		c0,0.1,0.1,0.2,0.1,0.3c0.1,0.1,0.1,0.1,0.2,0.2c0.1,0,0.2,0.1,0.3,0.1c0.2,0,0.4,0,0.6-0.1s0.4-0.2,0.5-0.4v-1.6H242.4z"/>
	<path class="st2" d="M246.7,58.8c-0.1,0-0.2,0-0.4,0s-0.4,0-0.5-0.1s-0.2-0.1-0.3-0.2s-0.1-0.2-0.2-0.3c0-0.1-0.1-0.3-0.1-0.5V52h1
		v5.5c0,0.1,0,0.2,0,0.2s0,0.1,0.1,0.1l0.1,0.1c0.1,0,0.1,0,0.2,0h0.2v0.8C246.9,58.7,246.8,58.7,246.7,58.8z"/>
	<path class="st2" d="M249.9,58.8c-0.1,0-0.2,0-0.4,0s-0.4,0-0.5-0.1s-0.2-0.1-0.3-0.2s-0.1-0.2-0.2-0.3c0-0.1-0.1-0.3-0.1-0.5V52h1
		v5.5c0,0.1,0,0.2,0,0.2s0,0.1,0.1,0.1l0.1,0.1c0.1,0,0.1,0,0.2,0h0.2v0.8C250.1,58.7,250,58.7,249.9,58.8z"/>
	<path class="st2" d="M257.6,54.5c-0.2,0-0.4,0-0.5,0.1s-0.3,0.1-0.4,0.2c-0.1,0.1-0.2,0.2-0.2,0.3c-0.1,0.1-0.1,0.3-0.1,0.5v3.1h-1
		v-5.1h0.9l0.1,0.6l0,0c0.1-0.2,0.3-0.4,0.5-0.5s0.4-0.2,0.8-0.2h0.3v1H257.6z"/>
	<path class="st2" d="M263.3,56.2c0,0.4,0,0.8-0.1,1.1c-0.1,0.3-0.2,0.6-0.4,0.8c-0.2,0.2-0.4,0.4-0.7,0.5s-0.6,0.2-1,0.2
		s-0.7-0.1-1-0.2s-0.5-0.3-0.7-0.5s-0.3-0.5-0.4-0.8s-0.1-0.7-0.1-1.1s0-0.7,0.1-1.1c0.1-0.3,0.2-0.6,0.4-0.8
		c0.2-0.2,0.4-0.4,0.7-0.5s0.6-0.2,1-0.2s0.7,0.1,1,0.2s0.5,0.3,0.7,0.5s0.3,0.5,0.4,0.8C263.2,55.4,263.3,55.8,263.3,56.2z
		 M262.2,56.2c0-0.2,0-0.5,0-0.7s-0.1-0.4-0.2-0.6c-0.1-0.2-0.2-0.3-0.3-0.4s-0.3-0.1-0.6-0.1c-0.2,0-0.4,0-0.6,0.1
		c-0.1,0.1-0.3,0.2-0.3,0.4c-0.1,0.2-0.1,0.4-0.2,0.6c0,0.2,0,0.4,0,0.7c0,0.3,0,0.5,0,0.7s0.1,0.4,0.2,0.6c0.1,0.2,0.2,0.3,0.3,0.4
		s0.3,0.1,0.5,0.1s0.4,0,0.5-0.1s0.3-0.2,0.3-0.4c0.1-0.2,0.1-0.4,0.2-0.6S262.2,56.5,262.2,56.2z"/>
	<path class="st2" d="M266.5,58.8c-0.1,0-0.2,0-0.3,0c-0.3,0-0.5,0-0.7-0.1s-0.3-0.1-0.4-0.3s-0.2-0.3-0.2-0.5s0-0.4,0-0.7v-2.6
		h-0.7v-0.9h0.7v-1.4h1v1.4h1v0.9h-1v2.7c0,0.1,0,0.2,0,0.3c0,0.1,0,0.1,0.1,0.2c0,0,0.1,0.1,0.2,0.1c0.1,0,0.2,0,0.4,0h0.3v0.8
		C266.8,58.7,266.7,58.7,266.5,58.8z"/>
	<path class="st2" d="M271.6,58.8c-0.2,0-0.3-0.1-0.4-0.2s-0.2-0.2-0.2-0.4l0,0c-0.2,0.2-0.4,0.4-0.7,0.5s-0.5,0.2-0.8,0.2
		c-0.2,0-0.4,0-0.6-0.1s-0.3-0.2-0.4-0.3s-0.2-0.3-0.3-0.5s-0.1-0.4-0.1-0.6c0-0.4,0.1-0.7,0.3-0.9c0.2-0.2,0.4-0.4,0.7-0.6
		s0.6-0.2,0.9-0.3c0.3-0.1,0.7-0.1,1-0.1v-0.2c0-0.1,0-0.3,0-0.4s0-0.2-0.1-0.3c0-0.1-0.1-0.1-0.2-0.2c-0.1,0-0.2-0.1-0.4-0.1
		c-0.3,0-0.6,0-0.9,0.1c-0.3,0.1-0.5,0.2-0.8,0.3l-0.3-0.8c0.3-0.2,0.6-0.3,0.9-0.4c0.3-0.1,0.7-0.1,1-0.1s0.6,0,0.8,0.1
		s0.4,0.2,0.5,0.3c0.1,0.1,0.2,0.3,0.3,0.6s0.1,0.5,0.1,0.8v2.3c0,0.1,0,0.2,0,0.2c0,0.1,0,0.1,0,0.2L272,58c0,0,0.1,0.1,0.2,0.1
		L271.6,58.8z M270.9,56.1c-0.2,0-0.4,0-0.7,0s-0.4,0.1-0.6,0.2c-0.2,0.1-0.3,0.2-0.4,0.4c-0.1,0.1-0.2,0.3-0.2,0.6
		c0,0.1,0,0.2,0,0.3c0,0.1,0.1,0.2,0.1,0.3c0.1,0.1,0.1,0.1,0.2,0.2c0.1,0,0.2,0.1,0.3,0.1c0.2,0,0.4,0,0.6-0.1s0.4-0.2,0.5-0.4
		v-1.6H270.9z"/>
	<path class="st2" d="M277,57.3c0,0.3,0,0.5-0.1,0.7s-0.2,0.4-0.4,0.5s-0.3,0.2-0.6,0.3s-0.5,0.1-0.7,0.1c-0.3,0-0.6,0-0.9-0.1
		c-0.3-0.1-0.6-0.2-0.8-0.4l0.3-0.8c0.2,0.1,0.4,0.3,0.7,0.4s0.5,0.1,0.8,0.1s0.5,0,0.6-0.1s0.2-0.3,0.2-0.5c0-0.1,0-0.2-0.1-0.3
		c-0.1-0.1-0.1-0.2-0.2-0.2s-0.2-0.1-0.3-0.2s-0.3-0.1-0.4-0.2c-0.2-0.1-0.3-0.1-0.5-0.2s-0.3-0.2-0.4-0.3c-0.1-0.1-0.2-0.2-0.3-0.4
		s-0.1-0.4-0.1-0.7c0-0.2,0-0.4,0.1-0.6s0.2-0.3,0.4-0.5s0.3-0.2,0.6-0.3c0.2-0.1,0.4-0.1,0.7-0.1s0.5,0,0.8,0.1s0.5,0.1,0.7,0.3
		l-0.2,0.8c-0.2-0.1-0.4-0.2-0.6-0.2c-0.2-0.1-0.4-0.1-0.6-0.1c-0.1,0-0.2,0-0.3,0s-0.2,0-0.3,0.1c-0.1,0-0.1,0.1-0.2,0.2
		c0,0.1-0.1,0.2-0.1,0.3s0,0.2,0.1,0.3s0.1,0.1,0.2,0.2c0.1,0.1,0.2,0.1,0.3,0.2c0.1,0,0.3,0.1,0.4,0.2c0.2,0.1,0.3,0.1,0.5,0.2
		s0.3,0.2,0.5,0.3s0.2,0.3,0.3,0.4C277,56.8,277,57,277,57.3z"/>
</g>
<g>
	<path class="st2" d="M141.8,198.3c0,1-0.1,1.8-0.3,2.6s-0.5,1.5-1,2s-1,1-1.6,1.3c-0.7,0.3-1.4,0.5-2.3,0.5c-0.9,0-1.6-0.2-2.3-0.5
		c-0.7-0.3-1.2-0.7-1.6-1.3s-0.7-1.2-1-2c-0.2-0.8-0.3-1.7-0.3-2.6c0-0.9,0.1-1.8,0.3-2.6c0.2-0.8,0.5-1.5,1-2c0.4-0.6,1-1,1.6-1.3
		s1.4-0.5,2.3-0.5c0.9,0,1.6,0.2,2.3,0.5s1.2,0.7,1.6,1.3c0.4,0.6,0.7,1.2,1,2C141.7,196.5,141.8,197.4,141.8,198.3z M139.6,198.3
		c0-0.7,0-1.3-0.1-1.9c-0.1-0.6-0.3-1.1-0.5-1.5s-0.5-0.7-0.9-1c-0.4-0.2-0.9-0.3-1.4-0.3s-1.1,0.1-1.4,0.3c-0.4,0.2-0.7,0.6-0.9,1
		c-0.2,0.4-0.4,0.9-0.5,1.5s-0.1,1.2-0.1,1.9s0,1.3,0.1,1.9c0.1,0.6,0.3,1.1,0.5,1.5s0.5,0.7,0.9,1s0.9,0.3,1.5,0.3
		c0.6,0,1-0.1,1.4-0.4c0.4-0.2,0.7-0.6,0.9-1s0.4-0.9,0.5-1.5C139.6,199.6,139.6,199,139.6,198.3z"/>
	<path class="st2" d="M149.4,204.6h-2.5l-2.9-10.2h2.2l2.1,8.5h0.1l2-8.5h2.1L149.4,204.6z"/>
	<path class="st2" d="M162.7,199.4c0,0.1,0,0.2,0,0.4s0,0.3,0,0.4h-6.1c0,1.9,0.8,2.9,2.4,2.9c0.5,0,0.9-0.1,1.3-0.2
		c0.4-0.1,0.8-0.4,1.3-0.7l0.6,1.5c-0.5,0.3-1.1,0.6-1.6,0.7s-1.1,0.2-1.7,0.2c-0.7,0-1.4-0.1-1.9-0.4c-0.6-0.2-1-0.6-1.4-1.1
		s-0.7-1-0.8-1.7c-0.2-0.7-0.3-1.4-0.3-2.2c0-0.9,0.1-1.7,0.3-2.3c0.2-0.7,0.5-1.2,0.9-1.6c0.4-0.4,0.8-0.8,1.4-1
		c0.5-0.2,1.1-0.3,1.7-0.3c1.3,0,2.3,0.4,2.9,1.3C162.4,196.4,162.7,197.7,162.7,199.4z M160.7,197.6c-0.1-0.4-0.2-0.7-0.3-0.9
		s-0.4-0.5-0.6-0.6c-0.3-0.2-0.6-0.2-1-0.2c-0.7,0-1.2,0.3-1.6,0.8c-0.4,0.5-0.6,1.2-0.6,2.2h4.2
		C160.8,198.3,160.7,197.9,160.7,197.6z"/>
	<path class="st2" d="M170.4,196.1c-0.4,0-0.7,0-1,0.1s-0.6,0.2-0.8,0.4s-0.4,0.4-0.5,0.7s-0.2,0.6-0.2,1.1v6.2h-2v-10.2h1.9
		l0.1,1.2l0,0c0.3-0.5,0.6-0.9,1-1.1c0.4-0.2,0.9-0.3,1.5-0.3h0.5v1.9L170.4,196.1L170.4,196.1z"/>
	<path class="st2" d="M178.2,204.6h-2.6l-2.9-10.2h2.2l2.1,8.5h0.1l2-8.5h2.1L178.2,204.6z"/>
	<path class="st2" d="M186.1,191.8c0,0.4-0.1,0.6-0.4,0.9c-0.2,0.2-0.6,0.3-1,0.3s-0.7-0.1-0.9-0.3s-0.3-0.5-0.3-0.9
		c0-0.3,0.1-0.6,0.3-0.8s0.5-0.3,0.9-0.3s0.7,0.1,1,0.3S186.1,191.5,186.1,191.8z M183.7,204.6v-10.2h2.1v10.2H183.7z"/>
	<path class="st2" d="M197.3,199.4c0,0.1,0,0.2,0,0.4s0,0.3,0,0.4h-6.1c0,1.9,0.8,2.9,2.4,2.9c0.5,0,0.9-0.1,1.3-0.2
		c0.4-0.1,0.8-0.4,1.3-0.7l0.6,1.5c-0.5,0.3-1.1,0.6-1.6,0.7s-1.1,0.2-1.7,0.2c-0.7,0-1.4-0.1-1.9-0.4c-0.6-0.2-1-0.6-1.4-1.1
		s-0.7-1-0.8-1.7c-0.2-0.7-0.3-1.4-0.3-2.2c0-0.9,0.1-1.7,0.3-2.3c0.2-0.7,0.5-1.2,0.9-1.6c0.4-0.4,0.8-0.8,1.4-1
		c0.5-0.2,1.1-0.3,1.7-0.3c1.3,0,2.3,0.4,2.9,1.3C197,196.4,197.3,197.7,197.3,199.4z M195.3,197.6c-0.1-0.4-0.2-0.7-0.3-0.9
		s-0.4-0.5-0.6-0.6c-0.3-0.2-0.6-0.2-1-0.2c-0.7,0-1.2,0.3-1.6,0.8c-0.4,0.5-0.6,1.2-0.6,2.2h4.2
		C195.4,198.3,195.4,197.9,195.3,197.6z"/>
	<path class="st2" d="M210.5,204.6h-2.3l-1.8-7.1h-0.1l-1.9,7.1H202l-2.3-10.2h2.1l1.5,8.2l0,0l2-8.2h1.9l2,8.2l0,0l1.5-8.2h2.1
		L210.5,204.6z"/>
	<path class="st2" d="M221.9,201.6c0,0.5-0.1,1-0.2,1.4c-0.2,0.4-0.4,0.7-0.7,1s-0.7,0.4-1.1,0.6c-0.4,0.1-0.9,0.2-1.5,0.2
		c-0.7,0-1.3-0.1-1.9-0.3c-0.6-0.2-1.2-0.4-1.7-0.7l0.7-1.6c0.4,0.3,0.9,0.5,1.4,0.7s1,0.3,1.5,0.3s0.9-0.1,1.2-0.3s0.4-0.5,0.4-1
		c0-0.2-0.1-0.4-0.2-0.6c-0.1-0.2-0.3-0.3-0.5-0.4c-0.2-0.1-0.4-0.2-0.7-0.3s-0.5-0.2-0.8-0.3s-0.7-0.3-1-0.4
		c-0.3-0.1-0.6-0.3-0.9-0.5c-0.3-0.2-0.5-0.5-0.6-0.8c-0.2-0.3-0.2-0.8-0.2-1.3s0.1-0.9,0.3-1.2s0.4-0.7,0.7-0.9s0.7-0.4,1.1-0.6
		c0.4-0.1,0.9-0.2,1.4-0.2s1.1,0.1,1.6,0.2s1,0.3,1.5,0.5l-0.5,1.6c-0.3-0.2-0.7-0.4-1.1-0.5c-0.4-0.1-0.8-0.2-1.3-0.2
		c-0.2,0-0.5,0-0.7,0s-0.4,0.1-0.5,0.2c-0.1,0.1-0.3,0.2-0.3,0.3c-0.1,0.1-0.1,0.3-0.1,0.5s0.1,0.4,0.2,0.5c0.1,0.1,0.3,0.3,0.5,0.4
		c0.2,0.1,0.4,0.2,0.7,0.3s0.5,0.2,0.8,0.3s0.7,0.3,1,0.4c0.3,0.2,0.6,0.4,0.9,0.6c0.3,0.2,0.5,0.5,0.7,0.9
		C221.8,200.7,221.9,201.1,221.9,201.6z"/>
</g>
<g>
	<path class="st2" d="M104.1,42.5c-0.6,0.3-1.4,0.5-2.2,0.5c-0.9,0-1.7-0.2-2.3-0.5c-0.6-0.3-1.2-0.8-1.6-1.4s-0.7-1.3-0.9-2
		s-0.3-1.6-0.3-2.5c0-0.8,0.1-1.6,0.3-2.4s0.5-1.5,0.9-2c0.4-0.6,0.9-1.1,1.6-1.4c0.6-0.4,1.4-0.5,2.3-0.5c0.8,0,1.4,0.1,2,0.4
		s1.2,0.7,1.8,1.3l-1.3,1.5c-0.2-0.2-0.4-0.4-0.6-0.6s-0.4-0.3-0.6-0.4s-0.4-0.2-0.6-0.3c-0.2-0.1-0.5-0.1-0.7-0.1
		c-0.5,0-0.9,0.1-1.3,0.3c-0.4,0.2-0.7,0.5-0.9,0.9c-0.2,0.4-0.4,0.9-0.5,1.5S99,36,99,36.7c0,0.5,0,1.1,0.1,1.7s0.2,1.1,0.5,1.5
		s0.5,0.8,0.9,1.1c0.4,0.3,0.9,0.4,1.4,0.4s1-0.1,1.5-0.4c0.4-0.2,0.9-0.6,1.3-1.1l1.1,1.5C105.3,41.8,104.8,42.2,104.1,42.5z"/>
	<path class="st2" d="M116.2,37.6c0,0.1,0,0.2,0,0.4c0,0.2,0,0.3,0,0.4h-6.1c0,1.9,0.8,2.9,2.4,2.9c0.5,0,0.9-0.1,1.3-0.2
		s0.8-0.4,1.3-0.7l0.6,1.5c-0.5,0.3-1.1,0.6-1.6,0.7s-1.1,0.2-1.7,0.2c-0.7,0-1.4-0.1-1.9-0.4c-0.6-0.2-1-0.6-1.4-1.1
		s-0.7-1-0.8-1.7c-0.2-0.7-0.3-1.4-0.3-2.2c0-0.9,0.1-1.7,0.3-2.3c0.2-0.7,0.5-1.2,0.9-1.6s0.8-0.8,1.4-1c0.5-0.2,1.1-0.3,1.7-0.3
		c1.3,0,2.3,0.4,2.9,1.3C115.9,34.6,116.2,35.9,116.2,37.6z M114.2,35.8c-0.1-0.4-0.2-0.7-0.3-0.9s-0.4-0.5-0.6-0.6
		c-0.3-0.2-0.6-0.2-1-0.2c-0.7,0-1.2,0.3-1.6,0.8s-0.6,1.2-0.6,2.2h4.2C114.3,36.6,114.3,36.2,114.2,35.8z"/>
	<path class="st2" d="M125.1,42.8V37c0-0.4,0-0.8,0-1.1s-0.1-0.6-0.2-0.9s-0.3-0.5-0.5-0.6s-0.5-0.2-0.9-0.2c-0.7,0-1.2,0.2-1.5,0.6
		s-0.5,1-0.5,1.8v6.2h-2.1V32.6h1.8l0.2,1.1l0,0c0.3-0.5,0.7-0.8,1.1-1c0.5-0.2,1-0.3,1.5-0.3c0.6,0,1.1,0.1,1.5,0.3
		c0.4,0.2,0.7,0.5,1,0.8s0.4,0.8,0.5,1.3s0.1,1.1,0.1,1.8v6.1h-2V42.8z"/>
	<path class="st2" d="M134.4,42.9c-0.2,0-0.5,0-0.7,0c-0.6,0-1-0.1-1.3-0.2s-0.6-0.3-0.8-0.5c-0.2-0.2-0.3-0.6-0.4-0.9
		c-0.1-0.4-0.1-0.8-0.1-1.4v-5.3h-1.4v-1.7h1.4v-2.8h2v2.8h1.9v1.7h-1.9V40c0,0.2,0,0.4,0,0.6s0.1,0.3,0.2,0.4s0.2,0.1,0.4,0.2
		c0.2,0,0.4,0,0.7,0h0.5v1.6C134.9,42.8,134.7,42.9,134.4,42.9z"/>
	<path class="st2" d="M142.7,34.4c-0.4,0-0.7,0-1,0.1s-0.6,0.2-0.8,0.4c-0.2,0.2-0.4,0.4-0.5,0.7c-0.1,0.3-0.2,0.6-0.2,1.1v6.2h-2.1
		V32.7h1.9l0.1,1.2l0,0c0.3-0.5,0.6-0.9,1-1.1s0.9-0.3,1.5-0.3h0.5v1.9L142.7,34.4L142.7,34.4z"/>
	<path class="st2" d="M152.4,42.9c-0.3-0.1-0.6-0.2-0.8-0.4c-0.2-0.2-0.3-0.4-0.4-0.8l0,0c-0.4,0.4-0.8,0.7-1.3,0.9
		c-0.5,0.2-1,0.3-1.6,0.3c-0.4,0-0.8-0.1-1.2-0.2c-0.3-0.1-0.6-0.4-0.9-0.6s-0.4-0.6-0.5-1s-0.2-0.8-0.2-1.2c0-0.8,0.2-1.4,0.5-1.9
		s0.8-0.9,1.3-1.1c0.5-0.3,1.2-0.5,1.8-0.6c0.7-0.1,1.3-0.2,2-0.2v-0.4c0-0.3,0-0.5,0-0.8c0-0.2-0.1-0.4-0.2-0.6
		c-0.1-0.2-0.2-0.3-0.4-0.4s-0.4-0.1-0.7-0.1c-0.6,0-1.2,0.1-1.7,0.3c-0.5,0.2-1.1,0.4-1.6,0.7l-0.5-1.5c0.6-0.3,1.3-0.6,1.9-0.8
		c0.6-0.2,1.3-0.3,2-0.3c0.6,0,1.2,0.1,1.6,0.2c0.4,0.1,0.8,0.4,1,0.7s0.4,0.7,0.5,1.1s0.2,0.9,0.2,1.5v4.5c0,0.2,0,0.4,0,0.5
		s0,0.2,0.1,0.3c0,0.1,0.1,0.2,0.2,0.3s0.2,0.2,0.3,0.2L152.4,42.9z M151,37.6c-0.4,0-0.9,0-1.3,0.1c-0.4,0.1-0.8,0.2-1.2,0.3
		s-0.6,0.4-0.8,0.7c-0.2,0.3-0.3,0.7-0.3,1.1c0,0.2,0,0.5,0.1,0.7s0.1,0.4,0.2,0.5c0.1,0.2,0.3,0.3,0.4,0.4s0.4,0.1,0.6,0.1
		c0.4,0,0.8-0.1,1.2-0.3c0.4-0.2,0.7-0.4,1.1-0.8V37.6z"/>
	<path class="st2" d="M159.7,42.9c-0.3,0-0.5,0-0.7,0c-0.4,0-0.7,0-1-0.1s-0.5-0.2-0.6-0.4c-0.2-0.2-0.3-0.4-0.4-0.7
		c-0.1-0.3-0.1-0.6-0.1-1V29.3h2.1v10.9c0,0.2,0,0.4,0,0.5s0.1,0.2,0.1,0.3s0.2,0.1,0.3,0.1s0.3,0,0.4,0h0.5v1.6
		C160.2,42.8,159.9,42.9,159.7,42.9z"/>
	<path class="st2" d="M176.7,42.8l-1.4-4.4c-0.1-0.2-0.2-0.4-0.2-0.5s-0.2-0.1-0.4-0.1h-1.9v5h-2.1V30.4c0.6-0.1,1.3-0.1,1.8-0.2
		c0.6,0,1.2,0,1.8,0s1.2,0.1,1.7,0.2s1,0.3,1.4,0.6s0.7,0.7,0.9,1.1c0.2,0.5,0.3,1,0.3,1.7c0,0.8-0.1,1.5-0.4,2s-0.8,0.9-1.4,1.2
		l0,0c0.1,0,0.1,0.1,0.2,0.3c0.1,0.1,0.1,0.3,0.2,0.4l1.7,4.9h-2.2V42.8z M176.6,34c0-0.7-0.2-1.2-0.5-1.6s-0.9-0.5-1.7-0.5
		c-0.3,0-0.6,0-0.8,0s-0.5,0-0.8,0.1v4.1h1.8c0.3,0,0.6,0,0.9-0.1c0.2-0.1,0.5-0.2,0.6-0.3s0.3-0.4,0.4-0.6S176.6,34.4,176.6,34z"/>
	<path class="st2" d="M189.6,37.6c0,0.1,0,0.2,0,0.4c0,0.2,0,0.3,0,0.4h-6.1c0,1.9,0.8,2.9,2.4,2.9c0.5,0,0.9-0.1,1.3-0.2
		c0.4-0.1,0.8-0.4,1.3-0.7l0.6,1.5c-0.5,0.3-1.1,0.6-1.6,0.7s-1.1,0.2-1.7,0.2c-0.7,0-1.4-0.1-1.9-0.4c-0.6-0.2-1-0.6-1.4-1.1
		s-0.7-1-0.8-1.7c-0.2-0.7-0.3-1.4-0.3-2.2c0-0.9,0.1-1.7,0.3-2.3c0.2-0.7,0.5-1.2,0.9-1.6s0.8-0.8,1.4-1c0.5-0.2,1.1-0.3,1.7-0.3
		c1.3,0,2.3,0.4,2.9,1.3C189.3,34.6,189.6,35.9,189.6,37.6z M187.6,35.8c-0.1-0.4-0.2-0.7-0.3-0.9s-0.4-0.5-0.6-0.6
		c-0.3-0.2-0.6-0.2-1-0.2c-0.7,0-1.2,0.3-1.6,0.8c-0.4,0.5-0.6,1.2-0.6,2.2h4.2C187.7,36.6,187.7,36.2,187.6,35.8z"/>
	<path class="st2" d="M200.9,37.7c0,0.4,0,0.8-0.1,1.2c0,0.4-0.1,0.8-0.2,1.2s-0.3,0.8-0.5,1.1c-0.2,0.3-0.4,0.7-0.7,0.9
		s-0.6,0.5-1,0.6c-0.4,0.2-0.8,0.2-1.3,0.2s-1-0.1-1.3-0.3c-0.4-0.2-0.7-0.5-1-0.9l0,0v4.8h-2.1v-14h1.8l0.2,1.1l0,0
		c0.3-0.5,0.6-0.8,1-1s0.9-0.3,1.4-0.3c0.7,0,1.3,0.2,1.8,0.5s0.8,0.7,1.1,1.2s0.5,1.1,0.6,1.7C200.9,36.5,200.9,37.1,200.9,37.7z
		 M198.8,37.7c0-0.4,0-0.8,0-1.2c0-0.4-0.1-0.8-0.2-1.2c-0.1-0.4-0.3-0.7-0.6-0.9c-0.3-0.2-0.7-0.4-1.1-0.4c-0.3,0-0.6,0.1-0.9,0.2
		c-0.2,0.1-0.4,0.3-0.6,0.5s-0.3,0.4-0.3,0.7S195,36,195,36.3v2.5c0,0.3,0,0.6,0.1,1c0.1,0.3,0.2,0.6,0.3,0.8
		c0.1,0.2,0.3,0.4,0.6,0.6c0.2,0.1,0.6,0.2,0.9,0.2c0.5,0,0.8-0.1,1.1-0.4s0.5-0.6,0.6-1s0.2-0.8,0.3-1.2
		C198.8,38.5,198.8,38.1,198.8,37.7z"/>
	<path class="st2" d="M212.3,37.7c0,0.8-0.1,1.5-0.3,2.2s-0.4,1.2-0.8,1.7c-0.4,0.5-0.8,0.8-1.3,1.1c-0.5,0.3-1.2,0.4-1.9,0.4
		s-1.4-0.1-1.9-0.4s-1-0.6-1.4-1.1s-0.6-1-0.8-1.7s-0.3-1.4-0.3-2.2c0-0.8,0.1-1.5,0.3-2.1s0.4-1.2,0.8-1.7s0.8-0.8,1.4-1.1
		s1.2-0.4,1.9-0.4s1.4,0.1,1.9,0.4c0.5,0.2,1,0.6,1.3,1.1s0.6,1,0.8,1.7C212.3,36.2,212.3,36.9,212.3,37.7z M210.2,37.7
		c0-0.5,0-0.9-0.1-1.4c-0.1-0.4-0.2-0.8-0.3-1.2c-0.2-0.3-0.4-0.6-0.7-0.8c-0.3-0.2-0.7-0.3-1.1-0.3c-0.5,0-0.9,0.1-1.1,0.3
		c-0.3,0.2-0.5,0.5-0.7,0.8s-0.3,0.7-0.3,1.2c-0.1,0.4-0.1,0.9-0.1,1.4s0,1,0.1,1.5s0.2,0.8,0.4,1.2s0.4,0.6,0.7,0.7
		c0.3,0.2,0.7,0.3,1.1,0.3c0.4,0,0.8-0.1,1.1-0.3c0.3-0.2,0.5-0.4,0.7-0.7s0.3-0.7,0.4-1.2S210.2,38.3,210.2,37.7z"/>
	<path class="st2" d="M220.1,34.4c-0.4,0-0.7,0-1,0.1s-0.6,0.2-0.8,0.4c-0.2,0.2-0.4,0.4-0.5,0.7c-0.1,0.3-0.2,0.6-0.2,1.1v6.2h-2.1
		V32.7h1.9l0.1,1.2l0,0c0.3-0.5,0.6-0.9,1-1.1s0.9-0.3,1.5-0.3h0.5v1.9L220.1,34.4L220.1,34.4z"/>
	<path class="st2" d="M227,42.9c-0.2,0-0.5,0-0.7,0c-0.6,0-1-0.1-1.3-0.2s-0.6-0.3-0.8-0.5s-0.3-0.6-0.4-0.9
		c-0.1-0.4-0.1-0.8-0.1-1.4v-5.3h-1.4v-1.7h1.4v-2.8h2v2.8h1.9v1.7h-1.9V40c0,0.2,0,0.4,0,0.6s0.1,0.3,0.2,0.4
		c0.1,0.1,0.2,0.1,0.4,0.2c0.2,0,0.4,0,0.7,0h0.5v1.6C227.5,42.8,227.2,42.9,227,42.9z"/>
	<path class="st2" d="M233.2,30.1c0,0.4-0.1,0.6-0.4,0.9c-0.2,0.2-0.6,0.3-1,0.3s-0.7-0.1-0.9-0.3c-0.2-0.2-0.3-0.5-0.3-0.9
		c0-0.3,0.1-0.6,0.3-0.8c0.2-0.2,0.5-0.3,0.9-0.3s0.7,0.1,1,0.3S233.2,29.7,233.2,30.1z M230.8,42.8V32.6h2.1v10.2H230.8z"/>
	<path class="st2" d="M242.3,42.8V37c0-0.4,0-0.8,0-1.1s-0.1-0.6-0.2-0.9c-0.1-0.3-0.3-0.5-0.5-0.6s-0.5-0.2-0.9-0.2
		c-0.7,0-1.2,0.2-1.5,0.6s-0.5,1-0.5,1.8v6.2h-2.1V32.6h1.8l0.2,1.1l0,0c0.3-0.5,0.7-0.8,1.1-1c0.5-0.2,1-0.3,1.5-0.3
		c0.6,0,1.1,0.1,1.5,0.3c0.4,0.2,0.7,0.5,1,0.8s0.4,0.8,0.5,1.3s0.1,1.1,0.1,1.8v6.1h-2V42.8z"/>
	<path class="st2" d="M255.6,44.5c-0.1,0.5-0.3,0.9-0.6,1.2c-0.3,0.3-0.7,0.6-1.2,0.7s-1.1,0.3-1.8,0.3s-1.3-0.1-2-0.2
		c-0.6-0.1-1.2-0.4-1.7-0.7l0.6-1.7c0.5,0.3,1,0.5,1.5,0.6s1,0.2,1.6,0.2c0.3,0,0.6,0,0.8-0.1s0.4-0.2,0.5-0.3
		c0.1-0.1,0.2-0.3,0.3-0.6c0.1-0.2,0.1-0.6,0.1-0.9v-1.8h-0.1c-0.3,0.4-0.6,0.7-1,0.9c-0.4,0.2-0.8,0.3-1.3,0.3
		c-0.6,0-1.1-0.1-1.6-0.3s-0.8-0.5-1.1-1c-0.3-0.4-0.5-0.9-0.7-1.5s-0.2-1.3-0.2-2.1c0-0.7,0.1-1.3,0.2-1.9s0.3-1.2,0.6-1.7
		s0.7-0.9,1.1-1.2c0.5-0.3,1.1-0.4,1.8-0.4c0.5,0,1,0.1,1.4,0.3c0.4,0.2,0.8,0.5,1,1l0,0l0.1-1.1h1.8v10.2
		C255.7,43.5,255.7,44.1,255.6,44.5z M253.7,36.3c0-0.3,0-0.6-0.1-0.9s-0.2-0.5-0.4-0.7s-0.4-0.4-0.6-0.5c-0.2-0.1-0.5-0.2-0.9-0.2
		s-0.8,0.1-1,0.3c-0.3,0.2-0.5,0.4-0.6,0.8s-0.3,0.7-0.3,1.1c-0.1,0.4-0.1,0.9-0.1,1.4c0,0.4,0,0.8,0.1,1.2c0,0.4,0.1,0.8,0.3,1.1
		c0.1,0.3,0.3,0.6,0.6,0.8c0.3,0.2,0.6,0.3,1,0.3s0.7-0.1,1-0.3c0.3-0.2,0.5-0.4,0.6-0.7s0.3-0.6,0.3-0.9s0.1-0.6,0.1-1L253.7,36.3
		L253.7,36.3z"/>
</g>
<g>
	<path class="st2" d="M145.6,125.3v-8.6h-0.1l-3,5l-3-5h-0.1v8.5h-2.1v-12.4h2l3.1,5.2l3.1-5.2h2v12.4L145.6,125.3L145.6,125.3z"/>
	<path class="st2" d="M159.1,120.1c0,0.1,0,0.2,0,0.4s0,0.3,0,0.4h-6.2c0,1.9,0.8,2.9,2.4,2.9c0.5,0,0.9-0.1,1.3-0.2
		c0.4-0.1,0.8-0.4,1.3-0.7l0.6,1.5c-0.5,0.3-1.1,0.6-1.6,0.7s-1.1,0.2-1.7,0.2c-0.7,0-1.4-0.1-1.9-0.4c-0.6-0.2-1-0.6-1.4-1.1
		s-0.7-1-0.8-1.7c-0.2-0.7-0.3-1.4-0.3-2.2c0-0.9,0.1-1.7,0.3-2.3c0.2-0.7,0.5-1.2,0.9-1.6c0.4-0.4,0.8-0.8,1.4-1
		c0.5-0.2,1.1-0.3,1.7-0.3c1.3,0,2.3,0.4,2.9,1.3C158.8,117.1,159.1,118.4,159.1,120.1z M157.1,118.3c-0.1-0.4-0.2-0.7-0.3-0.9
		s-0.4-0.5-0.6-0.6c-0.3-0.2-0.6-0.2-1-0.2c-0.7,0-1.2,0.3-1.6,0.8c-0.4,0.5-0.6,1.2-0.6,2.2h4.2
		C157.2,119.1,157.1,118.7,157.1,118.3z"/>
	<path class="st2" d="M168.1,125.3l-0.1-1.2l0,0c-0.3,0.5-0.7,0.8-1.1,1.1c-0.4,0.2-0.9,0.3-1.4,0.3c-0.7,0-1.3-0.2-1.7-0.5
		s-0.8-0.7-1.1-1.2s-0.5-1.1-0.6-1.7c-0.1-0.6-0.2-1.3-0.2-1.9c0-0.8,0.1-1.5,0.2-2.1c0.1-0.6,0.4-1.2,0.7-1.7s0.7-0.8,1.1-1.1
		s1-0.4,1.7-0.4c0.5,0,0.9,0.1,1.3,0.3c0.4,0.2,0.7,0.5,1,0.9l0,0v-4.3h2.1v13.5L168.1,125.3L168.1,125.3z M167.9,118.7
		c0-0.7-0.2-1.3-0.5-1.6c-0.3-0.4-0.8-0.5-1.4-0.5c-0.4,0-0.8,0.1-1.1,0.3s-0.5,0.4-0.6,0.8c-0.1,0.3-0.2,0.7-0.3,1.2
		c0,0.4-0.1,0.9-0.1,1.4s0,0.9,0.1,1.4c0.1,0.4,0.2,0.8,0.3,1.2s0.4,0.6,0.6,0.8c0.3,0.2,0.6,0.3,1,0.3s0.7-0.1,0.9-0.2
		c0.2-0.1,0.4-0.3,0.6-0.5c0.1-0.2,0.3-0.5,0.3-0.8c0.1-0.3,0.1-0.6,0.1-0.9v-2.9H167.9z"/>
	<path class="st2" d="M176,112.6c0,0.4-0.1,0.6-0.4,0.9c-0.2,0.2-0.6,0.3-1,0.3s-0.7-0.1-0.9-0.3s-0.3-0.5-0.3-0.9
		c0-0.3,0.1-0.6,0.3-0.8s0.5-0.3,0.9-0.3s0.7,0.1,1,0.3S176,112.2,176,112.6z M173.7,125.3v-10.2h2.1v10.2H173.7z"/>
	<path class="st2" d="M184,116.9c-0.4,0-0.7,0-1,0.1s-0.6,0.2-0.8,0.4s-0.4,0.4-0.5,0.7s-0.2,0.6-0.2,1.1v6.2h-2.1v-10.2h1.9
		l0.1,1.2l0,0c0.3-0.5,0.6-0.9,1-1.1c0.4-0.2,0.9-0.3,1.5-0.3h0.5v1.9L184,116.9L184,116.9z"/>
	<path class="st2" d="M195.3,120.2c0,0.8-0.1,1.5-0.3,2.2s-0.4,1.2-0.8,1.7c-0.4,0.5-0.8,0.8-1.3,1.1s-1.2,0.4-1.9,0.4
		s-1.4-0.1-1.9-0.4s-1-0.6-1.4-1.1s-0.6-1-0.8-1.7s-0.3-1.4-0.3-2.2s0.1-1.5,0.3-2.1s0.4-1.2,0.8-1.7s0.8-0.8,1.4-1.1
		s1.2-0.4,1.9-0.4s1.4,0.1,1.9,0.4c0.5,0.2,1,0.6,1.3,1.1s0.6,1,0.8,1.7C195.2,118.7,195.3,119.4,195.3,120.2z M193.2,120.2
		c0-0.5,0-0.9-0.1-1.4c-0.1-0.4-0.2-0.8-0.3-1.2c-0.2-0.3-0.4-0.6-0.7-0.8s-0.7-0.3-1.1-0.3c-0.5,0-0.9,0.1-1.1,0.3
		c-0.3,0.2-0.5,0.5-0.7,0.8s-0.3,0.7-0.3,1.2c-0.1,0.4-0.1,0.9-0.1,1.4s0,1,0.1,1.5s0.2,0.8,0.4,1.2s0.4,0.6,0.7,0.7
		c0.3,0.2,0.7,0.3,1.1,0.3c0.4,0,0.8-0.1,1.1-0.3s0.5-0.4,0.7-0.7s0.3-0.7,0.4-1.2S193.2,120.8,193.2,120.2z"/>
	<path class="st2" d="M201.9,125.4c-0.2,0-0.5,0-0.7,0c-0.6,0-1-0.1-1.3-0.2c-0.3-0.1-0.6-0.3-0.8-0.5s-0.3-0.6-0.4-0.9
		c-0.1-0.4-0.1-0.8-0.1-1.4v-5.3h-1.4v-1.7h1.4v-2.8h2v2.8h1.9v1.7h-1.9v5.4c0,0.2,0,0.4,0,0.6s0.1,0.3,0.2,0.4
		c0.1,0.1,0.2,0.1,0.4,0.2c0.2,0,0.4,0,0.7,0h0.5v1.6C202.3,125.3,202.1,125.4,201.9,125.4z"/>
	<path class="st2" d="M212,125.4c-0.3-0.1-0.6-0.2-0.8-0.4s-0.3-0.4-0.4-0.8l0,0c-0.4,0.4-0.8,0.7-1.3,0.9s-1,0.3-1.6,0.3
		c-0.4,0-0.8-0.1-1.2-0.2c-0.3-0.1-0.6-0.4-0.9-0.6s-0.4-0.6-0.5-1s-0.2-0.8-0.2-1.2c0-0.8,0.2-1.4,0.5-1.9s0.8-0.9,1.3-1.1
		c0.5-0.3,1.2-0.5,1.8-0.6c0.7-0.1,1.3-0.2,2-0.2v-0.4c0-0.3,0-0.5,0-0.8c0-0.2-0.1-0.4-0.2-0.6c-0.1-0.2-0.2-0.3-0.4-0.4
		s-0.4-0.1-0.7-0.1c-0.6,0-1.2,0.1-1.7,0.3s-1.1,0.4-1.6,0.7l-0.5-1.5c0.6-0.3,1.3-0.6,1.9-0.8c0.6-0.2,1.3-0.3,2-0.3
		c0.6,0,1.2,0.1,1.6,0.2c0.4,0.1,0.8,0.4,1,0.7s0.4,0.7,0.5,1.1s0.2,0.9,0.2,1.5v4.5c0,0.2,0,0.4,0,0.5s0,0.2,0.1,0.3
		c0,0.1,0.1,0.2,0.2,0.3s0.2,0.2,0.3,0.2L212,125.4z M210.6,120.1c-0.4,0-0.9,0-1.3,0.1c-0.4,0.1-0.8,0.2-1.2,0.3s-0.6,0.4-0.8,0.7
		s-0.3,0.7-0.3,1.1c0,0.2,0,0.5,0.1,0.7s0.1,0.4,0.2,0.5c0.1,0.2,0.3,0.3,0.4,0.4s0.4,0.1,0.6,0.1c0.4,0,0.8-0.1,1.2-0.3
		s0.7-0.4,1.1-0.8V120.1z"/>
</g>
<g>
	<path class="st0" d="M345.8,38.7V26.3h6.7v1.8h-4.6v3.3h4.1v1.8h-4.1V37h4.7v1.8L345.8,38.7L345.8,38.7z"/>
	<path class="st0" d="M362.7,35.1c0,0.7-0.1,1.2-0.3,1.7s-0.5,0.9-0.8,1.2s-0.8,0.5-1.3,0.7c-0.5,0.1-1,0.2-1.6,0.2
		c-0.8,0-1.5-0.1-2.1-0.3c-0.6-0.2-1.2-0.5-1.8-0.9l0.8-1.7c0.4,0.3,0.9,0.6,1.4,0.9s1.1,0.4,1.7,0.4c0.3,0,0.5,0,0.8-0.1
		s0.5-0.2,0.7-0.3c0.2-0.1,0.3-0.3,0.5-0.6s0.2-0.5,0.2-0.9c0-0.3-0.1-0.6-0.2-0.8c-0.1-0.2-0.3-0.4-0.5-0.6s-0.5-0.3-0.7-0.5
		s-0.6-0.3-0.9-0.4c-0.4-0.2-0.8-0.3-1.2-0.5s-0.7-0.4-1-0.7s-0.6-0.6-0.8-1s-0.3-0.9-0.3-1.5s0.1-1.1,0.3-1.5s0.5-0.8,0.8-1
		c0.3-0.3,0.7-0.5,1.2-0.6s0.9-0.2,1.4-0.2c0.6,0,1.2,0.1,1.8,0.2c0.5,0.2,1.1,0.4,1.6,0.7l-0.6,1.7c-0.4-0.3-0.8-0.6-1.3-0.7
		c-0.4-0.2-0.9-0.3-1.4-0.3c-0.3,0-0.5,0-0.7,0.1s-0.4,0.1-0.6,0.3c-0.2,0.1-0.3,0.3-0.4,0.5c-0.1,0.2-0.1,0.4-0.1,0.7
		c0,0.3,0.1,0.5,0.2,0.7s0.3,0.4,0.5,0.5s0.4,0.3,0.7,0.4s0.6,0.2,0.9,0.4c0.4,0.2,0.8,0.3,1.1,0.5c0.4,0.2,0.7,0.4,1,0.7
		c0.3,0.3,0.6,0.6,0.8,1.1C362.7,34,362.7,34.5,362.7,35.1z"/>
	<path class="st0" d="M371.7,38.7l-1.4-4.4c-0.1-0.2-0.2-0.4-0.2-0.5s-0.2-0.1-0.4-0.1h-1.9v5h-2.1V26.3c0.6-0.1,1.3-0.1,1.8-0.2
		c0.6,0,1.2,0,1.8,0s1.2,0.1,1.7,0.2s1,0.3,1.4,0.6s0.7,0.7,0.9,1.1c0.2,0.5,0.3,1,0.3,1.7c0,0.8-0.1,1.5-0.4,2s-0.8,0.9-1.4,1.2
		l0,0c0.1,0,0.1,0.1,0.2,0.3c0.1,0.1,0.1,0.3,0.2,0.4l1.7,4.9h-2.2V38.7z M371.6,29.9c0-0.7-0.2-1.2-0.5-1.6s-0.9-0.5-1.7-0.5
		c-0.3,0-0.6,0-0.8,0s-0.5,0-0.8,0.1V32h1.8c0.3,0,0.6,0,0.9-0.1c0.2-0.1,0.5-0.2,0.6-0.3s0.3-0.4,0.4-0.6S371.6,30.3,371.6,29.9z"
		/>
</g>
<g>
	<path class="st0" d="M352.8,58.7l-0.9-2.9h-4.1l-0.8,2.9h-2.2l3.9-12.5h2.5l3.9,12.5H352.8z M349.9,48.2L349.9,48.2l-1.7,5.8h3.3
		L349.9,48.2z"/>
	<path class="st0" d="M365.7,50.1c0,1.3-0.3,2.3-0.9,3s-1.6,1-3,1h-2v4.6h-2.1V46.3c0.5-0.1,1.1-0.1,1.7-0.1c0.6,0,1.2,0,1.9,0
		s1.3,0.1,1.8,0.2s1,0.4,1.4,0.7c0.4,0.3,0.7,0.7,0.9,1.2C365.6,48.7,365.7,49.3,365.7,50.1z M363.5,50.1c0-0.4,0-0.8-0.1-1.1
		c-0.1-0.3-0.2-0.5-0.4-0.7s-0.4-0.3-0.7-0.4s-0.6-0.1-1-0.1c-0.2,0-0.5,0-0.8,0s-0.5,0-0.9,0.1v4.5h1.6c0.4,0,0.7,0,1-0.1
		s0.5-0.2,0.7-0.3c0.2-0.2,0.3-0.4,0.4-0.7S363.5,50.6,363.5,50.1z"/>
	<path class="st0" d="M368.9,58.7V46.3h2.1v12.4H368.9z"/>
	<path class="st0" d="M381,55.8c0,0.5-0.1,1-0.2,1.4c-0.2,0.4-0.4,0.7-0.7,1s-0.7,0.4-1.1,0.6c-0.4,0.1-0.9,0.2-1.5,0.2
		c-0.7,0-1.3-0.1-1.9-0.3c-0.6-0.2-1.2-0.4-1.7-0.7l0.7-1.6c0.4,0.3,0.9,0.5,1.4,0.7s1,0.3,1.5,0.3s0.9-0.1,1.2-0.3
		c0.3-0.2,0.4-0.5,0.4-1c0-0.2-0.1-0.4-0.2-0.6c-0.1-0.2-0.3-0.3-0.5-0.4s-0.4-0.2-0.7-0.3s-0.5-0.2-0.8-0.3c-0.3-0.1-0.7-0.3-1-0.4
		s-0.6-0.3-0.9-0.5c-0.3-0.2-0.5-0.5-0.6-0.8c-0.2-0.3-0.2-0.8-0.2-1.3s0.1-0.9,0.3-1.2s0.4-0.7,0.7-0.9s0.7-0.4,1.1-0.6
		c0.4-0.1,0.9-0.2,1.4-0.2s1.1,0.1,1.6,0.2s1,0.3,1.5,0.5l-0.5,1.6c-0.3-0.2-0.7-0.4-1.1-0.5c-0.4-0.1-0.8-0.2-1.3-0.2
		c-0.2,0-0.5,0-0.7,0s-0.4,0.1-0.5,0.2s-0.3,0.2-0.3,0.3c-0.1,0.1-0.1,0.3-0.1,0.5s0.1,0.4,0.2,0.5c0.1,0.1,0.3,0.3,0.5,0.4
		s0.4,0.2,0.7,0.3c0.3,0.1,0.5,0.2,0.8,0.3c0.3,0.1,0.7,0.3,1,0.4c0.3,0.2,0.6,0.4,0.9,0.6c0.3,0.2,0.5,0.5,0.7,0.9
		C381,54.8,381,55.2,381,55.8z"/>
</g>
<g>
	<path class="st2" d="M148.6,138.6c-0.3,0.2-0.7,0.2-1.1,0.2c-0.5,0-0.8-0.1-1.2-0.2c-0.3-0.2-0.6-0.4-0.8-0.7s-0.4-0.6-0.4-1
		c-0.1-0.4-0.1-0.8-0.1-1.3c0-0.4,0-0.8,0.1-1.2s0.2-0.7,0.5-1c0.2-0.3,0.5-0.5,0.8-0.7s0.7-0.3,1.2-0.3c0.4,0,0.7,0.1,1,0.2
		c0.3,0.1,0.6,0.4,0.9,0.7l-0.6,0.7c-0.1-0.1-0.2-0.2-0.3-0.3s-0.2-0.2-0.3-0.2c-0.1-0.1-0.2-0.1-0.3-0.1s-0.2,0-0.4,0
		s-0.5,0.1-0.6,0.2s-0.3,0.3-0.5,0.5c-0.1,0.2-0.2,0.4-0.3,0.7s-0.1,0.6-0.1,1c0,0.3,0,0.5,0.1,0.8c0,0.3,0.1,0.5,0.2,0.8
		c0.1,0.2,0.3,0.4,0.5,0.5s0.4,0.2,0.7,0.2s0.5-0.1,0.7-0.2s0.4-0.3,0.6-0.5l0.6,0.7C149.2,138.3,148.9,138.5,148.6,138.6z"/>
	<path class="st2" d="M152.2,138.8c-0.1,0-0.2,0-0.4,0s-0.4,0-0.5-0.1s-0.2-0.1-0.3-0.2c-0.1-0.1-0.1-0.2-0.2-0.3
		c0-0.1-0.1-0.3-0.1-0.5V132h1v5.5c0,0.1,0,0.2,0,0.2s0,0.1,0.1,0.1l0.1,0.1c0.1,0,0.1,0,0.2,0h0.2v0.8
		C152.4,138.8,152.3,138.8,152.2,138.8z"/>
	<path class="st2" d="M155.1,132.4c0,0.2-0.1,0.3-0.2,0.4c-0.1,0.1-0.3,0.2-0.5,0.2s-0.4-0.1-0.5-0.2c-0.1-0.1-0.2-0.2-0.2-0.4
		s0.1-0.3,0.2-0.4c0.1-0.1,0.3-0.2,0.5-0.2s0.4,0.1,0.5,0.2S155.1,132.2,155.1,132.4z M154,138.8v-5.1h1v5.1H154z"/>
	<path class="st2" d="M159.7,138.8v-2.9c0-0.2,0-0.4,0-0.6c0-0.2,0-0.3-0.1-0.4c-0.1-0.1-0.1-0.2-0.2-0.3c-0.1-0.1-0.3-0.1-0.5-0.1
		c-0.4,0-0.6,0.1-0.8,0.3s-0.2,0.5-0.2,0.9v3.1h-1v-5.1h0.9l0.1,0.5l0,0c0.1-0.2,0.3-0.4,0.6-0.5c0.2-0.1,0.5-0.1,0.8-0.1
		s0.6,0,0.8,0.1s0.4,0.2,0.5,0.4s0.2,0.4,0.2,0.7s0.1,0.6,0.1,0.9v3L159.7,138.8L159.7,138.8z"/>
	<path class="st2" d="M163.8,132.4c0,0.2-0.1,0.3-0.2,0.4c-0.1,0.1-0.3,0.2-0.5,0.2s-0.4-0.1-0.5-0.2c-0.1-0.1-0.2-0.2-0.2-0.4
		s0.1-0.3,0.2-0.4c0.1-0.1,0.3-0.2,0.5-0.2s0.4,0.1,0.5,0.2S163.8,132.2,163.8,132.4z M162.6,138.8v-5.1h1v5.1H162.6z"/>
	<path class="st2" d="M168.6,134.9c-0.2-0.2-0.3-0.3-0.5-0.4c-0.2-0.1-0.4-0.1-0.6-0.1c-0.2,0-0.4,0.1-0.6,0.2
		c-0.2,0.1-0.3,0.3-0.4,0.4c-0.1,0.2-0.1,0.4-0.2,0.6c0,0.2,0,0.4,0,0.6c0,0.2,0,0.4,0,0.6c0,0.2,0.1,0.4,0.2,0.6
		c0.1,0.2,0.2,0.3,0.4,0.4c0.2,0.1,0.4,0.2,0.6,0.2c0.2,0,0.4,0,0.6-0.1s0.4-0.2,0.6-0.3l0.3,0.8c-0.2,0.2-0.5,0.3-0.8,0.4
		s-0.5,0.1-0.8,0.1c-0.4,0-0.7-0.1-1-0.2c-0.3-0.1-0.5-0.3-0.7-0.6c-0.2-0.2-0.3-0.5-0.4-0.8s-0.1-0.7-0.1-1c0-0.4,0-0.7,0.1-1
		s0.2-0.6,0.4-0.8s0.4-0.4,0.7-0.6c0.3-0.1,0.6-0.2,1-0.2c0.3,0,0.5,0,0.8,0.1s0.5,0.2,0.7,0.4L168.6,134.9z"/>
	<path class="st2" d="M173.6,138.8c-0.2,0-0.3-0.1-0.4-0.2s-0.2-0.2-0.2-0.4l0,0c-0.2,0.2-0.4,0.4-0.7,0.5s-0.5,0.2-0.8,0.2
		c-0.2,0-0.4,0-0.6-0.1s-0.3-0.2-0.4-0.3s-0.2-0.3-0.3-0.5s-0.1-0.4-0.1-0.6c0-0.4,0.1-0.7,0.3-0.9s0.4-0.4,0.7-0.6s0.6-0.2,0.9-0.3
		c0.3-0.1,0.7-0.1,1-0.1v-0.2c0-0.1,0-0.3,0-0.4c0-0.1,0-0.2-0.1-0.3c0-0.1-0.1-0.1-0.2-0.2c-0.1,0-0.2-0.1-0.4-0.1
		c-0.3,0-0.6,0-0.9,0.1c-0.3,0.1-0.5,0.2-0.8,0.3l-0.3-0.8c0.3-0.2,0.6-0.3,0.9-0.4c0.3-0.1,0.7-0.1,1-0.1s0.6,0,0.8,0.1
		s0.4,0.2,0.5,0.3s0.2,0.3,0.3,0.6s0.1,0.5,0.1,0.8v2.3c0,0.1,0,0.2,0,0.2c0,0.1,0,0.1,0,0.2l0.1,0.1c0,0,0.1,0.1,0.2,0.1
		L173.6,138.8z M173,136.1c-0.2,0-0.4,0-0.7,0s-0.4,0.1-0.6,0.2c-0.2,0.1-0.3,0.2-0.4,0.4c-0.1,0.1-0.2,0.3-0.2,0.6
		c0,0.1,0,0.2,0,0.3s0.1,0.2,0.1,0.3c0.1,0.1,0.1,0.1,0.2,0.2c0.1,0,0.2,0.1,0.3,0.1c0.2,0,0.4,0,0.6-0.1s0.4-0.2,0.5-0.4v-1.6H173z
		"/>
	<path class="st2" d="M177.3,138.8c-0.1,0-0.2,0-0.4,0s-0.4,0-0.5-0.1s-0.2-0.1-0.3-0.2c-0.1-0.1-0.1-0.2-0.2-0.3
		c0-0.1-0.1-0.3-0.1-0.5V132h1v5.5c0,0.1,0,0.2,0,0.2s0,0.1,0.1,0.1l0.1,0.1c0.1,0,0.1,0,0.2,0h0.2v0.8
		C177.5,138.8,177.4,138.8,177.3,138.8z"/>
	<path class="st2" d="M185.7,138.8l-0.1-0.6l0,0c-0.2,0.2-0.3,0.4-0.5,0.5s-0.4,0.2-0.7,0.2s-0.6-0.1-0.9-0.2
		c-0.2-0.2-0.4-0.4-0.6-0.6c-0.1-0.3-0.2-0.5-0.3-0.9c-0.1-0.3-0.1-0.6-0.1-1s0-0.7,0.1-1.1s0.2-0.6,0.3-0.8
		c0.2-0.2,0.3-0.4,0.6-0.5c0.2-0.1,0.5-0.2,0.8-0.2c0.2,0,0.5,0,0.7,0.1s0.4,0.2,0.5,0.5l0,0V132h1v6.7L185.7,138.8L185.7,138.8z
		 M185.6,135.5c0-0.4-0.1-0.6-0.3-0.8s-0.4-0.3-0.7-0.3c-0.2,0-0.4,0-0.5,0.1s-0.2,0.2-0.3,0.4s-0.1,0.4-0.1,0.6c0,0.2,0,0.5,0,0.7
		s0,0.5,0,0.7s0.1,0.4,0.2,0.6c0.1,0.2,0.2,0.3,0.3,0.4s0.3,0.2,0.5,0.2s0.3,0,0.5-0.1s0.2-0.2,0.3-0.3s0.1-0.2,0.2-0.4
		c0-0.1,0-0.3,0-0.5v-1.3H185.6z"/>
	<path class="st2" d="M192.3,136.2c0,0,0,0.1,0,0.2c0,0.1,0,0.2,0,0.2h-3.1c0,1,0.4,1.5,1.2,1.5c0.2,0,0.4,0,0.6-0.1
		s0.4-0.2,0.6-0.3l0.3,0.8c-0.3,0.2-0.5,0.3-0.8,0.4c-0.3,0.1-0.5,0.1-0.8,0.1c-0.4,0-0.7-0.1-1-0.2s-0.5-0.3-0.7-0.5
		s-0.3-0.5-0.4-0.8c-0.1-0.3-0.1-0.7-0.1-1.1c0-0.4,0.1-0.8,0.2-1.2c0.1-0.3,0.3-0.6,0.4-0.8c0.2-0.2,0.4-0.4,0.7-0.5
		s0.6-0.2,0.9-0.2c0.6,0,1.1,0.2,1.5,0.6C192.2,134.7,192.3,135.3,192.3,136.2z M191.3,135.3c0-0.2-0.1-0.3-0.2-0.5
		s-0.2-0.2-0.3-0.3s-0.3-0.1-0.5-0.1c-0.3,0-0.6,0.1-0.8,0.4c-0.2,0.3-0.3,0.6-0.3,1.1h2.1C191.4,135.7,191.4,135.5,191.3,135.3z"/>
	<path class="st2" d="M198,136.2c0,0.2,0,0.4,0,0.6c0,0.2-0.1,0.4-0.1,0.6c-0.1,0.2-0.1,0.4-0.2,0.6c-0.1,0.2-0.2,0.3-0.3,0.5
		c-0.1,0.1-0.3,0.2-0.5,0.3s-0.4,0.1-0.6,0.1c-0.3,0-0.5,0-0.7-0.1s-0.3-0.2-0.5-0.5l0,0v2.4h-1v-7h0.9l0.1,0.5l0,0
		c0.1-0.2,0.3-0.4,0.5-0.5s0.4-0.1,0.7-0.1c0.4,0,0.7,0.1,0.9,0.2c0.2,0.2,0.4,0.4,0.6,0.6s0.2,0.5,0.3,0.8S198,135.9,198,136.2z
		 M197,136.2c0-0.2,0-0.4,0-0.6s-0.1-0.4-0.1-0.6c-0.1-0.2-0.2-0.3-0.3-0.5c-0.1-0.1-0.3-0.2-0.6-0.2c-0.2,0-0.3,0-0.4,0.1
		c-0.1,0.1-0.2,0.1-0.3,0.2c-0.1,0.1-0.1,0.2-0.2,0.4s-0.1,0.3-0.1,0.4v1.3c0,0.2,0,0.3,0,0.5s0.1,0.3,0.2,0.4
		c0.1,0.1,0.2,0.2,0.3,0.3s0.3,0.1,0.5,0.1s0.4-0.1,0.5-0.2c0.1-0.1,0.2-0.3,0.3-0.5s0.1-0.4,0.1-0.6
		C196.9,136.6,197,136.4,197,136.2z"/>
	<path class="st2" d="M201.3,138.8c-0.1,0-0.2,0-0.3,0c-0.3,0-0.5,0-0.7-0.1s-0.3-0.1-0.4-0.3s-0.2-0.3-0.2-0.5s0-0.4,0-0.7v-2.6
		H199v-0.9h0.7v-1.4h1v1.4h1v0.9h-1v2.7c0,0.1,0,0.2,0,0.3s0,0.1,0.1,0.2c0,0,0.1,0.1,0.2,0.1c0.1,0,0.2,0,0.4,0h0.3v0.8
		C201.5,138.8,201.4,138.8,201.3,138.8z"/>
	<path class="st2" d="M204.2,138.2c0,0.2-0.1,0.3-0.2,0.5c-0.1,0.1-0.3,0.2-0.5,0.2s-0.3-0.1-0.5-0.2c-0.1-0.1-0.2-0.3-0.2-0.5
		s0.1-0.3,0.2-0.4c0.1-0.1,0.3-0.2,0.5-0.2s0.3,0.1,0.5,0.2C204.1,137.9,204.2,138.1,204.2,138.2z"/>
</g>
<g>
	<path class="st2" d="M27.7,125.3v-8.6h-0.1l-3,5l-3-5h-0.1v8.5h-2.1v-12.4h2l3.1,5.2l3.1-5.2h2v12.4L27.7,125.3L27.7,125.3z"/>
	<path class="st2" d="M41.2,120.1c0,0.1,0,0.2,0,0.4s0,0.3,0,0.4h-6.1c0,1.9,0.8,2.9,2.4,2.9c0.5,0,0.9-0.1,1.3-0.2
		c0.4-0.1,0.8-0.4,1.3-0.7l0.6,1.5c-0.5,0.3-1.1,0.6-1.6,0.7s-1.1,0.2-1.7,0.2c-0.7,0-1.4-0.1-1.9-0.4c-0.6-0.2-1-0.6-1.4-1.1
		s-0.7-1-0.8-1.7c-0.2-0.7-0.3-1.4-0.3-2.2c0-0.9,0.1-1.7,0.3-2.3c0.2-0.7,0.5-1.2,0.9-1.6c0.4-0.4,0.8-0.8,1.4-1
		c0.5-0.2,1.1-0.3,1.7-0.3c1.3,0,2.3,0.4,2.9,1.3C40.9,117.1,41.2,118.4,41.2,120.1z M39.2,118.3c-0.1-0.4-0.2-0.7-0.3-0.9
		s-0.4-0.5-0.6-0.6c-0.3-0.2-0.6-0.2-1-0.2c-0.7,0-1.2,0.3-1.6,0.8s-0.6,1.2-0.6,2.2h4.2C39.3,119.1,39.3,118.7,39.2,118.3z"/>
	<path class="st2" d="M50.3,125.3l-0.1-1.2l0,0c-0.3,0.5-0.7,0.8-1.1,1.1c-0.4,0.2-0.9,0.3-1.4,0.3c-0.7,0-1.3-0.2-1.7-0.5
		s-0.8-0.7-1.1-1.2c-0.3-0.5-0.5-1.1-0.6-1.7c-0.1-0.6-0.2-1.3-0.2-1.9c0-0.8,0.1-1.5,0.2-2.1s0.4-1.2,0.7-1.7
		c0.3-0.5,0.7-0.8,1.1-1.1s1-0.4,1.7-0.4c0.5,0,0.9,0.1,1.3,0.3s0.7,0.5,1,0.9l0,0v-4.3h2.1v13.5L50.3,125.3L50.3,125.3z
		 M50.1,118.7c0-0.7-0.2-1.3-0.5-1.6c-0.3-0.4-0.8-0.5-1.4-0.5c-0.4,0-0.8,0.1-1.1,0.3c-0.3,0.2-0.5,0.4-0.6,0.8
		c-0.1,0.3-0.2,0.7-0.3,1.2c0,0.4-0.1,0.9-0.1,1.4s0,0.9,0.1,1.4c0.1,0.4,0.2,0.8,0.3,1.2s0.4,0.6,0.6,0.8c0.3,0.2,0.6,0.3,1,0.3
		s0.7-0.1,0.9-0.2c0.2-0.1,0.4-0.3,0.6-0.5c0.1-0.2,0.3-0.5,0.3-0.8c0.1-0.3,0.1-0.6,0.1-0.9v-2.9H50.1z"/>
	<path class="st2" d="M58.2,112.6c0,0.4-0.1,0.6-0.4,0.9c-0.2,0.2-0.6,0.3-1,0.3s-0.7-0.1-0.9-0.3c-0.2-0.2-0.3-0.5-0.3-0.9
		c0-0.3,0.1-0.6,0.3-0.8c0.2-0.2,0.5-0.3,0.9-0.3s0.7,0.1,1,0.3S58.2,112.2,58.2,112.6z M55.8,125.3v-10.2h2.1v10.2H55.8z"/>
	<path class="st2" d="M66.2,116.9c-0.4,0-0.7,0-1,0.1s-0.6,0.2-0.8,0.4c-0.2,0.2-0.4,0.4-0.5,0.7s-0.2,0.6-0.2,1.1v6.2h-2.1v-10.2
		h1.9l0.1,1.2l0,0c0.3-0.5,0.6-0.9,1-1.1c0.4-0.2,0.9-0.3,1.5-0.3h0.5v1.9L66.2,116.9L66.2,116.9z"/>
	<path class="st2" d="M77.4,120.2c0,0.8-0.1,1.5-0.3,2.2c-0.2,0.7-0.4,1.2-0.8,1.7s-0.8,0.8-1.3,1.1s-1.2,0.4-1.9,0.4
		c-0.7,0-1.4-0.1-1.9-0.4s-1-0.6-1.4-1.1s-0.6-1-0.8-1.7c-0.2-0.7-0.3-1.4-0.3-2.2s0.1-1.5,0.3-2.1c0.2-0.6,0.4-1.2,0.8-1.7
		s0.8-0.8,1.4-1.1s1.2-0.4,1.9-0.4c0.7,0,1.4,0.1,1.9,0.4c0.5,0.2,1,0.6,1.3,1.1s0.6,1,0.8,1.7C77.4,118.7,77.4,119.4,77.4,120.2z
		 M75.3,120.2c0-0.5,0-0.9-0.1-1.4c-0.1-0.4-0.2-0.8-0.3-1.2c-0.2-0.3-0.4-0.6-0.7-0.8c-0.3-0.2-0.7-0.3-1.1-0.3
		c-0.5,0-0.9,0.1-1.1,0.3c-0.3,0.2-0.5,0.5-0.7,0.8s-0.3,0.7-0.3,1.2c-0.1,0.4-0.1,0.9-0.1,1.4s0,1,0.1,1.5s0.2,0.8,0.4,1.2
		s0.4,0.6,0.7,0.7c0.3,0.2,0.7,0.3,1.1,0.3s0.8-0.1,1.1-0.3c0.3-0.2,0.5-0.4,0.7-0.7s0.3-0.7,0.4-1.2S75.3,120.8,75.3,120.2z"/>
	<path class="st2" d="M84,125.4c-0.2,0-0.5,0-0.7,0c-0.6,0-1-0.1-1.3-0.2c-0.3-0.1-0.6-0.3-0.8-0.5c-0.2-0.2-0.3-0.6-0.4-0.9
		c-0.1-0.4-0.1-0.8-0.1-1.4v-5.3h-1.4v-1.7h1.4v-2.8h2v2.8h1.9v1.7h-1.9v5.4c0,0.2,0,0.4,0,0.6s0.1,0.3,0.2,0.4
		c0.1,0.1,0.2,0.1,0.4,0.2c0.2,0,0.4,0,0.7,0h0.5v1.6C84.5,125.3,84.2,125.4,84,125.4z"/>
	<path class="st2" d="M94.2,125.4c-0.3-0.1-0.6-0.2-0.8-0.4c-0.2-0.2-0.3-0.4-0.4-0.8l0,0c-0.4,0.4-0.8,0.7-1.3,0.9s-1,0.3-1.6,0.3
		c-0.4,0-0.8-0.1-1.2-0.2c-0.3-0.1-0.6-0.4-0.9-0.6s-0.4-0.6-0.5-1s-0.2-0.8-0.2-1.2c0-0.8,0.2-1.4,0.5-1.9s0.8-0.9,1.3-1.1
		c0.5-0.3,1.2-0.5,1.8-0.6c0.7-0.1,1.3-0.2,2-0.2v-0.4c0-0.3,0-0.5,0-0.8c0-0.2-0.1-0.4-0.2-0.6c-0.1-0.2-0.2-0.3-0.4-0.4
		s-0.4-0.1-0.7-0.1c-0.6,0-1.2,0.1-1.7,0.3s-1.1,0.4-1.6,0.7l-0.5-1.5c0.6-0.3,1.3-0.6,1.9-0.8s1.3-0.3,2-0.3c0.6,0,1.2,0.1,1.6,0.2
		c0.4,0.1,0.8,0.4,1,0.7s0.4,0.7,0.5,1.1s0.2,0.9,0.2,1.5v4.5c0,0.2,0,0.4,0,0.5s0,0.2,0.1,0.3c0,0.1,0.1,0.2,0.2,0.3
		s0.2,0.2,0.3,0.2L94.2,125.4z M92.8,120.1c-0.4,0-0.9,0-1.3,0.1s-0.8,0.2-1.2,0.3s-0.6,0.4-0.8,0.7c-0.2,0.3-0.3,0.7-0.3,1.1
		c0,0.2,0,0.5,0.1,0.7s0.1,0.4,0.2,0.5c0.1,0.2,0.3,0.3,0.4,0.4s0.4,0.1,0.6,0.1c0.4,0,0.8-0.1,1.2-0.3c0.4-0.2,0.7-0.4,1.1-0.8
		L92.8,120.1L92.8,120.1z"/>
</g>
<g>
	<path class="st2" d="M30.8,138.6c-0.3,0.2-0.7,0.2-1.1,0.2c-0.5,0-0.8-0.1-1.2-0.2c-0.3-0.2-0.6-0.4-0.8-0.7s-0.4-0.6-0.4-1
		c-0.1-0.4-0.1-0.8-0.1-1.3c0-0.4,0-0.8,0.1-1.2s0.2-0.7,0.5-1c0.2-0.3,0.5-0.5,0.8-0.7s0.7-0.3,1.2-0.3c0.4,0,0.7,0.1,1,0.2
		c0.3,0.1,0.6,0.4,0.9,0.7l-0.6,0.7c-0.1-0.1-0.2-0.2-0.3-0.3c-0.1-0.1-0.2-0.2-0.3-0.2c-0.1-0.1-0.2-0.1-0.3-0.1
		c-0.1,0-0.2,0-0.4,0c-0.2,0-0.5,0.1-0.6,0.2s-0.3,0.3-0.5,0.5c-0.1,0.2-0.2,0.4-0.3,0.7c-0.1,0.3-0.1,0.6-0.1,1
		c0,0.3,0,0.5,0.1,0.8c0,0.3,0.1,0.5,0.2,0.8c0.1,0.2,0.3,0.4,0.5,0.5s0.4,0.2,0.7,0.2c0.3,0,0.5-0.1,0.7-0.2s0.4-0.3,0.6-0.5
		l0.6,0.7C31.4,138.3,31.1,138.5,30.8,138.6z"/>
	<path class="st2" d="M34.3,138.8c-0.1,0-0.2,0-0.4,0c-0.2,0-0.4,0-0.5-0.1s-0.2-0.1-0.3-0.2c-0.1-0.1-0.1-0.2-0.2-0.3
		c0-0.1-0.1-0.3-0.1-0.5V132h1v5.5c0,0.1,0,0.2,0,0.2s0,0.1,0.1,0.1l0.1,0.1c0.1,0,0.1,0,0.2,0h0.2v0.8
		C34.6,138.8,34.5,138.8,34.3,138.8z"/>
	<path class="st2" d="M37.3,132.4c0,0.2-0.1,0.3-0.2,0.4c-0.1,0.1-0.3,0.2-0.5,0.2s-0.4-0.1-0.5-0.2c-0.1-0.1-0.2-0.2-0.2-0.4
		s0.1-0.3,0.2-0.4c0.1-0.1,0.3-0.2,0.5-0.2s0.4,0.1,0.5,0.2S37.3,132.2,37.3,132.4z M36.1,138.8v-5.1h1v5.1H36.1z"/>
	<path class="st2" d="M41.9,138.8v-2.9c0-0.2,0-0.4,0-0.6c0-0.2,0-0.3-0.1-0.4c-0.1-0.1-0.1-0.2-0.2-0.3s-0.3-0.1-0.5-0.1
		c-0.4,0-0.6,0.1-0.8,0.3s-0.2,0.5-0.2,0.9v3.1h-1v-5.1H40l0.1,0.5l0,0c0.1-0.2,0.3-0.4,0.6-0.5c0.2-0.1,0.5-0.1,0.8-0.1
		s0.6,0,0.8,0.1c0.2,0.1,0.4,0.2,0.5,0.4s0.2,0.4,0.2,0.7s0.1,0.6,0.1,0.9v3L41.9,138.8L41.9,138.8z"/>
	<path class="st2" d="M45.9,132.4c0,0.2-0.1,0.3-0.2,0.4c-0.1,0.1-0.3,0.2-0.5,0.2s-0.4-0.1-0.5-0.2c-0.1-0.1-0.2-0.2-0.2-0.4
		s0.1-0.3,0.2-0.4c0.1-0.1,0.3-0.2,0.5-0.2s0.4,0.1,0.5,0.2S45.9,132.2,45.9,132.4z M44.8,138.8v-5.1h1v5.1H44.8z"/>
	<path class="st2" d="M50.7,134.9c-0.2-0.2-0.3-0.3-0.5-0.4c-0.2-0.1-0.4-0.1-0.6-0.1s-0.4,0.1-0.6,0.2c-0.2,0.1-0.3,0.3-0.4,0.4
		c-0.1,0.2-0.1,0.4-0.2,0.6c0,0.2,0,0.4,0,0.6c0,0.2,0,0.4,0,0.6c0,0.2,0.1,0.4,0.2,0.6c0.1,0.2,0.2,0.3,0.4,0.4
		c0.2,0.1,0.4,0.2,0.6,0.2s0.4,0,0.6-0.1s0.4-0.2,0.6-0.3l0.3,0.8c-0.2,0.2-0.5,0.3-0.8,0.4s-0.5,0.1-0.8,0.1c-0.4,0-0.7-0.1-1-0.2
		c-0.3-0.1-0.5-0.3-0.7-0.6c-0.2-0.2-0.3-0.5-0.4-0.8s-0.1-0.7-0.1-1c0-0.4,0-0.7,0.1-1s0.2-0.6,0.4-0.8c0.2-0.2,0.4-0.4,0.7-0.6
		c0.3-0.1,0.6-0.2,1-0.2c0.3,0,0.5,0,0.8,0.1s0.5,0.2,0.7,0.4L50.7,134.9z"/>
	<path class="st2" d="M55.8,138.8c-0.2,0-0.3-0.1-0.4-0.2s-0.2-0.2-0.2-0.4l0,0c-0.2,0.2-0.4,0.4-0.7,0.5c-0.3,0.1-0.5,0.2-0.8,0.2
		c-0.2,0-0.4,0-0.6-0.1s-0.3-0.2-0.4-0.3s-0.2-0.3-0.3-0.5c-0.1-0.2-0.1-0.4-0.1-0.6c0-0.4,0.1-0.7,0.3-0.9c0.2-0.2,0.4-0.4,0.7-0.6
		s0.6-0.2,0.9-0.3s0.7-0.1,1-0.1v-0.2c0-0.1,0-0.3,0-0.4c0-0.1,0-0.2-0.1-0.3c0-0.1-0.1-0.1-0.2-0.2c-0.1,0-0.2-0.1-0.4-0.1
		c-0.3,0-0.6,0-0.9,0.1s-0.5,0.2-0.8,0.3l-0.3-0.8c0.3-0.2,0.6-0.3,0.9-0.4c0.3-0.1,0.7-0.1,1-0.1s0.6,0,0.8,0.1
		c0.2,0.1,0.4,0.2,0.5,0.3s0.2,0.3,0.3,0.6s0.1,0.5,0.1,0.8v2.3c0,0.1,0,0.2,0,0.2c0,0.1,0,0.1,0,0.2l0.1,0.1c0,0,0.1,0.1,0.2,0.1
		L55.8,138.8z M55.1,136.1c-0.2,0-0.4,0-0.7,0s-0.4,0.1-0.6,0.2c-0.2,0.1-0.3,0.2-0.4,0.4c-0.1,0.1-0.2,0.3-0.2,0.6
		c0,0.1,0,0.2,0,0.3s0.1,0.2,0.1,0.3c0.1,0.1,0.1,0.1,0.2,0.2c0.1,0,0.2,0.1,0.3,0.1c0.2,0,0.4,0,0.6-0.1s0.4-0.2,0.5-0.4v-1.6H55.1
		z"/>
	<path class="st2" d="M59.4,138.8c-0.1,0-0.2,0-0.4,0c-0.2,0-0.4,0-0.5-0.1s-0.2-0.1-0.3-0.2c-0.1-0.1-0.1-0.2-0.2-0.3
		c0-0.1-0.1-0.3-0.1-0.5V132h1v5.5c0,0.1,0,0.2,0,0.2s0,0.1,0.1,0.1l0.1,0.1c0.1,0,0.1,0,0.2,0h0.2v0.8
		C59.7,138.8,59.6,138.8,59.4,138.8z"/>
	<path class="st2" d="M67.9,138.8l-0.1-0.6l0,0c-0.2,0.2-0.3,0.4-0.5,0.5s-0.4,0.2-0.7,0.2c-0.3,0-0.6-0.1-0.9-0.2
		c-0.2-0.2-0.4-0.4-0.6-0.6c-0.1-0.3-0.2-0.5-0.3-0.9c-0.1-0.3-0.1-0.6-0.1-1s0-0.7,0.1-1.1s0.2-0.6,0.3-0.8
		c0.2-0.2,0.3-0.4,0.6-0.5c0.2-0.1,0.5-0.2,0.8-0.2c0.2,0,0.5,0,0.7,0.1s0.4,0.2,0.5,0.5l0,0V132h1v6.7L67.9,138.8L67.9,138.8z
		 M67.7,135.5c0-0.4-0.1-0.6-0.3-0.8c-0.2-0.2-0.4-0.3-0.7-0.3c-0.2,0-0.4,0-0.5,0.1s-0.2,0.2-0.3,0.4c-0.1,0.2-0.1,0.4-0.1,0.6
		c0,0.2,0,0.5,0,0.7s0,0.5,0,0.7s0.1,0.4,0.2,0.6c0.1,0.2,0.2,0.3,0.3,0.4s0.3,0.2,0.5,0.2s0.3,0,0.5-0.1s0.2-0.2,0.3-0.3
		c0.1-0.1,0.1-0.2,0.2-0.4c0-0.1,0-0.3,0-0.5v-1.3H67.7z"/>
	<path class="st2" d="M74.5,136.2c0,0,0,0.1,0,0.2c0,0.1,0,0.2,0,0.2h-3.1c0,1,0.4,1.5,1.2,1.5c0.2,0,0.4,0,0.6-0.1s0.4-0.2,0.6-0.3
		l0.3,0.8c-0.3,0.2-0.5,0.3-0.8,0.4c-0.3,0.1-0.5,0.1-0.8,0.1c-0.4,0-0.7-0.1-1-0.2s-0.5-0.3-0.7-0.5s-0.3-0.5-0.4-0.8
		s-0.1-0.7-0.1-1.1c0-0.4,0.1-0.8,0.2-1.2c0.1-0.3,0.3-0.6,0.4-0.8c0.2-0.2,0.4-0.4,0.7-0.5c0.3-0.1,0.6-0.2,0.9-0.2
		c0.6,0,1.1,0.2,1.5,0.6C74.3,134.7,74.5,135.3,74.5,136.2z M73.5,135.3c0-0.2-0.1-0.3-0.2-0.5s-0.2-0.2-0.3-0.3
		c-0.1-0.1-0.3-0.1-0.5-0.1c-0.3,0-0.6,0.1-0.8,0.4c-0.2,0.3-0.3,0.6-0.3,1.1h2.1C73.5,135.7,73.5,135.5,73.5,135.3z"/>
	<path class="st2" d="M80.2,136.2c0,0.2,0,0.4,0,0.6c0,0.2-0.1,0.4-0.1,0.6c-0.1,0.2-0.1,0.4-0.2,0.6c-0.1,0.2-0.2,0.3-0.3,0.5
		c-0.1,0.1-0.3,0.2-0.5,0.3s-0.4,0.1-0.6,0.1c-0.3,0-0.5,0-0.7-0.1s-0.3-0.2-0.5-0.5l0,0v2.4h-1v-7h0.9l0.1,0.5l0,0
		c0.1-0.2,0.3-0.4,0.5-0.5s0.4-0.1,0.7-0.1c0.4,0,0.7,0.1,0.9,0.2c0.2,0.2,0.4,0.4,0.6,0.6s0.2,0.5,0.3,0.8S80.2,135.9,80.2,136.2z
		 M79.1,136.2c0-0.2,0-0.4,0-0.6S79,135.2,79,135c-0.1-0.2-0.2-0.3-0.3-0.5c-0.1-0.1-0.3-0.2-0.6-0.2c-0.2,0-0.3,0-0.4,0.1
		s-0.2,0.1-0.3,0.2c-0.1,0.1-0.1,0.2-0.2,0.4s-0.1,0.3-0.1,0.4v1.3c0,0.2,0,0.3,0,0.5s0.1,0.3,0.2,0.4c0.1,0.1,0.2,0.2,0.3,0.3
		c0.1,0.1,0.3,0.1,0.5,0.1s0.4-0.1,0.5-0.2c0.1-0.1,0.2-0.3,0.3-0.5s0.1-0.4,0.1-0.6C79.1,136.6,79.1,136.4,79.1,136.2z"/>
	<path class="st2" d="M83.4,138.8c-0.1,0-0.2,0-0.3,0c-0.3,0-0.5,0-0.7-0.1s-0.3-0.1-0.4-0.3s-0.2-0.3-0.2-0.5s0-0.4,0-0.7v-2.6
		h-0.7v-0.9h0.7v-1.4h1v1.4h1v0.9h-1v2.7c0,0.1,0,0.2,0,0.3s0,0.1,0.1,0.2c0,0,0.1,0.1,0.2,0.1s0.2,0,0.4,0h0.3v0.8
		C83.7,138.8,83.5,138.8,83.4,138.8z"/>
	<path class="st2" d="M86.3,138.2c0,0.2-0.1,0.3-0.2,0.5c-0.1,0.1-0.3,0.2-0.5,0.2s-0.3-0.1-0.5-0.2c-0.1-0.1-0.2-0.3-0.2-0.5
		s0.1-0.3,0.2-0.4c0.1-0.1,0.3-0.2,0.5-0.2s0.3,0.1,0.5,0.2S86.3,138.1,86.3,138.2z"/>
</g>
<path class="st3" d="M276.1,90c0-0.2,0-0.5,0-0.7c0-4.7-3.8-8.6-8.6-8.6s-8.6,3.8-8.6,8.6c0,0.2,0,0.5,0,0.7h-23.1v28.2l0,0
	c-4.7,0-8.6,3.8-8.6,8.6s3.8,8.6,8.6,8.6l0,0V163h23c0,4.7,3.8,8.6,8.6,8.6s8.6-3.8,8.6-8.6h73.9V90L276.1,90L276.1,90z"/>
<g>
	<path class="st2" d="M263.2,125c-0.6,0.3-1.4,0.5-2.2,0.5c-0.9,0-1.7-0.2-2.3-0.5s-1.2-0.8-1.6-1.4c-0.4-0.6-0.7-1.3-0.9-2
		s-0.3-1.6-0.3-2.5c0-0.8,0.1-1.6,0.3-2.4s0.5-1.5,0.9-2c0.4-0.6,0.9-1.1,1.6-1.4c0.6-0.4,1.4-0.5,2.3-0.5c0.8,0,1.4,0.1,2,0.4
		s1.2,0.7,1.8,1.3l-1.3,1.5c-0.2-0.2-0.4-0.4-0.6-0.6c-0.2-0.2-0.4-0.3-0.6-0.4c-0.2-0.1-0.4-0.2-0.6-0.3c-0.2-0.1-0.5-0.1-0.7-0.1
		c-0.5,0-0.9,0.1-1.3,0.3c-0.4,0.2-0.7,0.5-0.9,0.9s-0.4,0.9-0.5,1.5s-0.2,1.2-0.2,1.9c0,0.5,0,1.1,0.1,1.7c0.1,0.6,0.2,1.1,0.5,1.5
		s0.5,0.8,0.9,1.1s0.9,0.4,1.4,0.4s1-0.1,1.5-0.4c0.4-0.2,0.9-0.6,1.3-1.1l1.1,1.5C264.4,124.3,263.8,124.7,263.2,125z"/>
	<path class="st2" d="M267.5,125.3v-12.4h2.1v10.6h4.2v1.8H267.5z"/>
	<path class="st2" d="M287,125.3h-2.4l-2.2-9h-0.1l-2.2,9h-2.5l-2.6-12.4h2.2l1.7,10.1l0,0l2.3-10.1h2l2.3,10.1h0.1l1.7-10.1h2.2
		L287,125.3z"/>
	<path class="st2" d="M298.6,125.3l-1.4-4.4c-0.1-0.2-0.2-0.4-0.2-0.5s-0.2-0.1-0.4-0.1h-1.9v5h-2.1v-12.4c0.6-0.1,1.3-0.1,1.8-0.2
		c0.6,0,1.2,0,1.8,0s1.2,0.1,1.7,0.2s1,0.3,1.4,0.6s0.7,0.7,0.9,1.1c0.2,0.5,0.3,1,0.3,1.7c0,0.8-0.1,1.5-0.4,2s-0.8,0.9-1.4,1.2
		l0,0c0.1,0,0.1,0.1,0.2,0.3c0.1,0.1,0.1,0.3,0.2,0.4l1.7,4.9h-2.2V125.3z M298.5,116.5c0-0.7-0.2-1.2-0.5-1.6
		c-0.3-0.4-0.9-0.5-1.7-0.5c-0.3,0-0.6,0-0.8,0s-0.5,0-0.8,0.1v4.1h1.8c0.3,0,0.6,0,0.9-0.1c0.2-0.1,0.5-0.2,0.6-0.3
		s0.3-0.4,0.4-0.6S298.5,116.9,298.5,116.5z"/>
	<path class="st2" d="M312.2,120.2c0,0.8-0.1,1.5-0.3,2.2s-0.4,1.2-0.8,1.7c-0.4,0.5-0.8,0.8-1.3,1.1s-1.2,0.4-1.9,0.4
		s-1.4-0.1-1.9-0.4s-1-0.6-1.4-1.1s-0.6-1-0.8-1.7s-0.3-1.4-0.3-2.2s0.1-1.5,0.3-2.1s0.4-1.2,0.8-1.7s0.8-0.8,1.4-1.1
		s1.2-0.4,1.9-0.4s1.4,0.1,1.9,0.4c0.5,0.2,1,0.6,1.3,1.1s0.6,1,0.8,1.7C312.1,118.7,312.2,119.4,312.2,120.2z M310.1,120.2
		c0-0.5,0-0.9-0.1-1.4c-0.1-0.4-0.2-0.8-0.3-1.2c-0.2-0.3-0.4-0.6-0.7-0.8s-0.7-0.3-1.1-0.3c-0.5,0-0.9,0.1-1.1,0.3
		c-0.3,0.2-0.5,0.5-0.7,0.8s-0.3,0.7-0.3,1.2c-0.1,0.4-0.1,0.9-0.1,1.4s0,1,0.1,1.5s0.2,0.8,0.4,1.2s0.4,0.6,0.7,0.7
		c0.3,0.2,0.7,0.3,1.1,0.3c0.4,0,0.8-0.1,1.1-0.3s0.5-0.4,0.7-0.7s0.3-0.7,0.4-1.2S310.1,120.8,310.1,120.2z"/>
	<path class="st2" d="M318.7,125.4c-0.2,0-0.5,0-0.7,0c-0.6,0-1-0.1-1.3-0.2c-0.3-0.1-0.6-0.3-0.8-0.5s-0.3-0.6-0.4-0.9
		c-0.1-0.4-0.1-0.8-0.1-1.4v-5.3H314v-1.7h1.4v-2.8h2v2.8h1.9v1.7h-1.9v5.4c0,0.2,0,0.4,0,0.6s0.1,0.3,0.2,0.4
		c0.1,0.1,0.2,0.1,0.4,0.2c0.2,0,0.4,0,0.7,0h0.5v1.6C319.2,125.3,319,125.4,318.7,125.4z"/>
	<path class="st2" d="M328.9,125.4c-0.3-0.1-0.6-0.2-0.8-0.4s-0.3-0.4-0.4-0.8l0,0c-0.4,0.4-0.8,0.7-1.3,0.9s-1,0.3-1.6,0.3
		c-0.4,0-0.8-0.1-1.2-0.2c-0.3-0.1-0.6-0.4-0.9-0.6s-0.4-0.6-0.5-1s-0.2-0.8-0.2-1.2c0-0.8,0.2-1.4,0.5-1.9s0.8-0.9,1.3-1.1
		c0.5-0.3,1.2-0.5,1.8-0.6c0.7-0.1,1.3-0.2,2-0.2v-0.4c0-0.3,0-0.5,0-0.8c0-0.2-0.1-0.4-0.2-0.6c-0.1-0.2-0.2-0.3-0.4-0.4
		s-0.4-0.1-0.7-0.1c-0.6,0-1.2,0.1-1.7,0.3s-1.1,0.4-1.6,0.7l-0.5-1.5c0.6-0.3,1.3-0.6,1.9-0.8c0.6-0.2,1.3-0.3,2-0.3
		c0.6,0,1.2,0.1,1.6,0.2c0.4,0.1,0.8,0.4,1,0.7s0.4,0.7,0.5,1.1s0.2,0.9,0.2,1.5v4.5c0,0.2,0,0.4,0,0.5s0,0.2,0.1,0.3
		c0,0.1,0.1,0.2,0.2,0.3s0.2,0.2,0.3,0.2L328.9,125.4z M327.5,120.1c-0.4,0-0.9,0-1.3,0.1c-0.4,0.1-0.8,0.2-1.2,0.3
		s-0.6,0.4-0.8,0.7s-0.3,0.7-0.3,1.1c0,0.2,0,0.5,0.1,0.7s0.1,0.4,0.2,0.5c0.1,0.2,0.3,0.3,0.4,0.4s0.4,0.1,0.6,0.1
		c0.4,0,0.8-0.1,1.2-0.3s0.7-0.4,1.1-0.8V120.1z"/>
</g>
<g>
	<path class="st2" d="M257.4,138.8l-0.4-1.4h-2.1l-0.4,1.4h-1.1l1.9-6.2h1.3l2,6.2H257.4z M255.9,133.5L255.9,133.5l-0.8,2.9h1.6
		L255.9,133.5z"/>
	<path class="st2" d="M262.6,138.8v-2.9c0-0.2,0-0.4,0-0.6c0-0.2,0-0.3-0.1-0.4c-0.1-0.1-0.1-0.2-0.2-0.3c-0.1-0.1-0.3-0.1-0.5-0.1
		c-0.4,0-0.6,0.1-0.8,0.3s-0.2,0.5-0.2,0.9v3.1h-1v-5.1h0.9l0.1,0.5l0,0c0.1-0.2,0.3-0.4,0.6-0.5c0.2-0.1,0.5-0.1,0.8-0.1
		s0.6,0,0.8,0.1s0.4,0.2,0.5,0.4s0.2,0.4,0.2,0.7s0.1,0.6,0.1,0.9v3L262.6,138.8L262.6,138.8z"/>
	<path class="st2" d="M268.8,138.8c-0.2,0-0.3-0.1-0.4-0.2s-0.2-0.2-0.2-0.4l0,0c-0.2,0.2-0.4,0.4-0.7,0.5s-0.5,0.2-0.8,0.2
		c-0.2,0-0.4,0-0.6-0.1s-0.3-0.2-0.4-0.3s-0.2-0.3-0.3-0.5s-0.1-0.4-0.1-0.6c0-0.4,0.1-0.7,0.3-0.9s0.4-0.4,0.7-0.6s0.6-0.2,0.9-0.3
		c0.3-0.1,0.7-0.1,1-0.1v-0.2c0-0.1,0-0.3,0-0.4c0-0.1,0-0.2-0.1-0.3c0-0.1-0.1-0.1-0.2-0.2c-0.1,0-0.2-0.1-0.4-0.1
		c-0.3,0-0.6,0-0.9,0.1c-0.3,0.1-0.5,0.2-0.8,0.3l-0.3-0.8c0.3-0.2,0.6-0.3,0.9-0.4c0.3-0.1,0.7-0.1,1-0.1s0.6,0,0.8,0.1
		s0.4,0.2,0.5,0.3s0.2,0.3,0.3,0.6s0.1,0.5,0.1,0.8v2.3c0,0.1,0,0.2,0,0.2c0,0.1,0,0.1,0,0.2l0.1,0.1c0,0,0.1,0.1,0.2,0.1
		L268.8,138.8z M268.1,136.1c-0.2,0-0.4,0-0.7,0s-0.4,0.1-0.6,0.2c-0.2,0.1-0.3,0.2-0.4,0.4c-0.1,0.1-0.2,0.3-0.2,0.6
		c0,0.1,0,0.2,0,0.3s0.1,0.2,0.1,0.3c0.1,0.1,0.1,0.1,0.2,0.2c0.1,0,0.2,0.1,0.3,0.1c0.2,0,0.4,0,0.6-0.1s0.4-0.2,0.5-0.4v-1.6
		H268.1z"/>
	<path class="st2" d="M274.9,136.2c0,0,0,0.1,0,0.2c0,0.1,0,0.2,0,0.2h-3.1c0,1,0.4,1.5,1.2,1.5c0.2,0,0.4,0,0.6-0.1
		s0.4-0.2,0.6-0.3l0.3,0.8c-0.3,0.2-0.5,0.3-0.8,0.4c-0.3,0.1-0.5,0.1-0.8,0.1c-0.4,0-0.7-0.1-1-0.2s-0.5-0.3-0.7-0.5
		s-0.3-0.5-0.4-0.8c-0.1-0.3-0.1-0.7-0.1-1.1c0-0.4,0.1-0.8,0.2-1.2c0.1-0.3,0.3-0.6,0.4-0.8c0.2-0.2,0.4-0.4,0.7-0.5
		s0.6-0.2,0.9-0.2c0.6,0,1.1,0.2,1.5,0.6C274.8,134.7,274.9,135.3,274.9,136.2z M273.9,135.3c0-0.2-0.1-0.3-0.2-0.5
		s-0.2-0.2-0.3-0.3s-0.3-0.1-0.5-0.1c-0.3,0-0.6,0.1-0.8,0.4c-0.2,0.3-0.3,0.6-0.3,1.1h2.1C274,135.7,273.9,135.5,273.9,135.3z"/>
	<path class="st2" d="M279.7,137.3c0,0.3,0,0.5-0.1,0.7s-0.2,0.4-0.4,0.5s-0.3,0.2-0.6,0.3s-0.5,0.1-0.7,0.1c-0.3,0-0.6,0-0.9-0.1
		c-0.3-0.1-0.6-0.2-0.8-0.4l0.3-0.8c0.2,0.1,0.4,0.3,0.7,0.4c0.3,0.1,0.5,0.1,0.8,0.1s0.5,0,0.6-0.1s0.2-0.3,0.2-0.5
		c0-0.1,0-0.2-0.1-0.3s-0.1-0.2-0.2-0.2s-0.2-0.1-0.3-0.2c-0.1-0.1-0.3-0.1-0.4-0.2c-0.2-0.1-0.3-0.1-0.5-0.2
		c-0.2-0.1-0.3-0.2-0.4-0.3c-0.1-0.1-0.2-0.2-0.3-0.4s-0.1-0.4-0.1-0.7c0-0.2,0-0.4,0.1-0.6c0.1-0.2,0.2-0.3,0.4-0.5
		s0.3-0.2,0.6-0.3c0.2-0.1,0.4-0.1,0.7-0.1s0.5,0,0.8,0.1s0.5,0.1,0.7,0.3l-0.2,0.8c-0.2-0.1-0.4-0.2-0.6-0.2
		c-0.2-0.1-0.4-0.1-0.6-0.1c-0.1,0-0.2,0-0.3,0s-0.2,0-0.3,0.1c-0.1,0-0.1,0.1-0.2,0.2c0,0.1-0.1,0.2-0.1,0.3s0,0.2,0.1,0.3
		s0.1,0.1,0.2,0.2c0.1,0.1,0.2,0.1,0.3,0.2c0.1,0,0.3,0.1,0.4,0.2c0.2,0.1,0.3,0.1,0.5,0.2c0.2,0.1,0.3,0.2,0.5,0.3s0.2,0.3,0.3,0.4
		C279.6,136.8,279.7,137,279.7,137.3z"/>
	<path class="st2" d="M282.9,138.8c-0.1,0-0.2,0-0.3,0c-0.3,0-0.5,0-0.7-0.1s-0.3-0.1-0.4-0.3s-0.2-0.3-0.2-0.5s0-0.4,0-0.7v-2.6
		h-0.7v-0.9h0.7v-1.4h1v1.4h1v0.9h-1v2.7c0,0.1,0,0.2,0,0.3s0,0.1,0.1,0.2c0,0,0.1,0.1,0.2,0.1c0.1,0,0.2,0,0.4,0h0.3v0.8
		C283.2,138.8,283,138.8,282.9,138.8z"/>
	<path class="st2" d="M287.7,138.8v-2.9c0-0.2,0-0.4,0-0.5c0-0.2,0-0.3-0.1-0.4c-0.1-0.1-0.1-0.2-0.2-0.3c-0.1-0.1-0.3-0.1-0.5-0.1
		c-0.4,0-0.6,0.1-0.8,0.3s-0.2,0.5-0.2,0.9v3.1h-1v-6.7h1v2.1l0,0c0.2-0.2,0.3-0.4,0.6-0.5c0.2-0.1,0.5-0.1,0.7-0.1
		c0.3,0,0.6,0,0.8,0.1s0.4,0.2,0.5,0.4s0.2,0.4,0.2,0.7s0.1,0.6,0.1,0.9v3H287.7z"/>
	<path class="st2" d="M294.4,136.2c0,0,0,0.1,0,0.2c0,0.1,0,0.2,0,0.2h-3.1c0,1,0.4,1.5,1.2,1.5c0.2,0,0.4,0,0.6-0.1
		s0.4-0.2,0.6-0.3l0.3,0.8c-0.3,0.2-0.5,0.3-0.8,0.4c-0.3,0.1-0.5,0.1-0.8,0.1c-0.4,0-0.7-0.1-1-0.2s-0.5-0.3-0.7-0.5
		s-0.3-0.5-0.4-0.8c-0.1-0.3-0.1-0.7-0.1-1.1c0-0.4,0.1-0.8,0.2-1.2c0.1-0.3,0.3-0.6,0.4-0.8c0.2-0.2,0.4-0.4,0.7-0.5
		s0.6-0.2,0.9-0.2c0.6,0,1.1,0.2,1.5,0.6C294.3,134.7,294.4,135.3,294.4,136.2z M293.4,135.3c0-0.2-0.1-0.3-0.2-0.5
		s-0.2-0.2-0.3-0.3s-0.3-0.1-0.5-0.1c-0.3,0-0.6,0.1-0.8,0.4c-0.2,0.3-0.3,0.6-0.3,1.1h2.1C293.5,135.7,293.5,135.5,293.4,135.3z"/>
	<path class="st2" d="M297.7,138.8c-0.1,0-0.2,0-0.3,0c-0.3,0-0.5,0-0.7-0.1s-0.3-0.1-0.4-0.3s-0.2-0.3-0.2-0.5s0-0.4,0-0.7v-2.6
		h-0.7v-0.9h0.7v-1.4h1v1.4h1v0.9h-1v2.7c0,0.1,0,0.2,0,0.3s0,0.1,0.1,0.2c0,0,0.1,0.1,0.2,0.1c0.1,0,0.2,0,0.4,0h0.3v0.8
		C298,138.8,297.8,138.8,297.7,138.8z"/>
	<path class="st2" d="M300.8,132.4c0,0.2-0.1,0.3-0.2,0.4c-0.1,0.1-0.3,0.2-0.5,0.2s-0.4-0.1-0.5-0.2c-0.1-0.1-0.2-0.2-0.2-0.4
		s0.1-0.3,0.2-0.4c0.1-0.1,0.3-0.2,0.5-0.2s0.4,0.1,0.5,0.2S300.8,132.2,300.8,132.4z M299.6,138.8v-5.1h1v5.1H299.6z"/>
	<path class="st2" d="M305.6,134.9c-0.2-0.2-0.3-0.3-0.5-0.4c-0.2-0.1-0.4-0.1-0.6-0.1c-0.2,0-0.4,0.1-0.6,0.2
		c-0.2,0.1-0.3,0.3-0.4,0.4c-0.1,0.2-0.1,0.4-0.2,0.6c0,0.2,0,0.4,0,0.6c0,0.2,0,0.4,0,0.6c0,0.2,0.1,0.4,0.2,0.6
		c0.1,0.2,0.2,0.3,0.4,0.4c0.2,0.1,0.4,0.2,0.6,0.2c0.2,0,0.4,0,0.6-0.1s0.4-0.2,0.6-0.3l0.3,0.8c-0.2,0.2-0.5,0.3-0.8,0.4
		s-0.5,0.1-0.8,0.1c-0.4,0-0.7-0.1-1-0.2c-0.3-0.1-0.5-0.3-0.7-0.6c-0.2-0.2-0.3-0.5-0.4-0.8s-0.1-0.7-0.1-1c0-0.4,0-0.7,0.1-1
		s0.2-0.6,0.4-0.8s0.4-0.4,0.7-0.6c0.3-0.1,0.6-0.2,1-0.2c0.3,0,0.5,0,0.8,0.1s0.5,0.2,0.7,0.4L305.6,134.9z"/>
	<path class="st2" d="M314.1,138.8l-0.1-0.6l0,0c-0.2,0.2-0.3,0.4-0.5,0.5s-0.4,0.2-0.7,0.2s-0.6-0.1-0.9-0.2
		c-0.2-0.2-0.4-0.4-0.6-0.6c-0.1-0.3-0.2-0.5-0.3-0.9c-0.1-0.3-0.1-0.6-0.1-1s0-0.7,0.1-1.1s0.2-0.6,0.3-0.8
		c0.2-0.2,0.3-0.4,0.6-0.5c0.2-0.1,0.5-0.2,0.8-0.2c0.2,0,0.5,0,0.7,0.1s0.4,0.2,0.5,0.5l0,0V132h1v6.7L314.1,138.8L314.1,138.8z
		 M313.9,135.5c0-0.4-0.1-0.6-0.3-0.8s-0.4-0.3-0.7-0.3c-0.2,0-0.4,0-0.5,0.1s-0.2,0.2-0.3,0.4s-0.1,0.4-0.1,0.6c0,0.2,0,0.5,0,0.7
		s0,0.5,0,0.7s0.1,0.4,0.2,0.6c0.1,0.2,0.2,0.3,0.3,0.4s0.3,0.2,0.5,0.2s0.3,0,0.5-0.1s0.2-0.2,0.3-0.3s0.1-0.2,0.2-0.4
		c0-0.1,0-0.3,0-0.5v-1.3H313.9z"/>
	<path class="st2" d="M320.7,136.2c0,0,0,0.1,0,0.2c0,0.1,0,0.2,0,0.2h-3.1c0,1,0.4,1.5,1.2,1.5c0.2,0,0.4,0,0.6-0.1
		s0.4-0.2,0.6-0.3l0.3,0.8c-0.3,0.2-0.5,0.3-0.8,0.4c-0.3,0.1-0.5,0.1-0.8,0.1c-0.4,0-0.7-0.1-1-0.2s-0.5-0.3-0.7-0.5
		s-0.3-0.5-0.4-0.8c-0.1-0.3-0.1-0.7-0.1-1.1c0-0.4,0.1-0.8,0.2-1.2c0.1-0.3,0.3-0.6,0.4-0.8c0.2-0.2,0.4-0.4,0.7-0.5
		s0.6-0.2,0.9-0.2c0.6,0,1.1,0.2,1.5,0.6C320.5,134.7,320.7,135.3,320.7,136.2z M319.7,135.3c0-0.2-0.1-0.3-0.2-0.5
		s-0.2-0.2-0.3-0.3s-0.3-0.1-0.5-0.1c-0.3,0-0.6,0.1-0.8,0.4c-0.2,0.3-0.3,0.6-0.3,1.1h2.1C319.7,135.7,319.7,135.5,319.7,135.3z"/>
	<path class="st2" d="M326.4,136.2c0,0.2,0,0.4,0,0.6c0,0.2-0.1,0.4-0.1,0.6c-0.1,0.2-0.1,0.4-0.2,0.6c-0.1,0.2-0.2,0.3-0.3,0.5
		c-0.1,0.1-0.3,0.2-0.5,0.3s-0.4,0.1-0.6,0.1c-0.3,0-0.5,0-0.7-0.1s-0.3-0.2-0.5-0.5l0,0v2.4h-1v-7h0.9l0.1,0.5l0,0
		c0.1-0.2,0.3-0.4,0.5-0.5s0.4-0.1,0.7-0.1c0.4,0,0.7,0.1,0.9,0.2c0.2,0.2,0.4,0.4,0.6,0.6s0.2,0.5,0.3,0.8S326.4,135.9,326.4,136.2
		z M325.3,136.2c0-0.2,0-0.4,0-0.6s-0.1-0.4-0.1-0.6c-0.1-0.2-0.2-0.3-0.3-0.5c-0.1-0.1-0.3-0.2-0.6-0.2c-0.2,0-0.3,0-0.4,0.1
		c-0.1,0.1-0.2,0.1-0.3,0.2c-0.1,0.1-0.1,0.2-0.2,0.4s-0.1,0.3-0.1,0.4v1.3c0,0.2,0,0.3,0,0.5s0.1,0.3,0.2,0.4
		c0.1,0.1,0.2,0.2,0.3,0.3s0.3,0.1,0.5,0.1s0.4-0.1,0.5-0.2c0.1-0.1,0.2-0.3,0.3-0.5s0.1-0.4,0.1-0.6
		C325.3,136.6,325.3,136.4,325.3,136.2z"/>
	<path class="st2" d="M329.7,138.8c-0.1,0-0.2,0-0.3,0c-0.3,0-0.5,0-0.7-0.1s-0.3-0.1-0.4-0.3s-0.2-0.3-0.2-0.5s0-0.4,0-0.7v-2.6
		h-0.7v-0.9h0.7v-1.4h1v1.4h1v0.9h-1v2.7c0,0.1,0,0.2,0,0.3s0,0.1,0.1,0.2c0,0,0.1,0.1,0.2,0.1c0.1,0,0.2,0,0.4,0h0.3v0.8
		C329.9,138.8,329.8,138.8,329.7,138.8z"/>
	<path class="st2" d="M332.5,138.2c0,0.2-0.1,0.3-0.2,0.5c-0.1,0.1-0.3,0.2-0.5,0.2s-0.3-0.1-0.5-0.2c-0.1-0.1-0.2-0.3-0.2-0.5
		s0.1-0.3,0.2-0.4c0.1-0.1,0.3-0.2,0.5-0.2s0.3,0.1,0.5,0.2S332.5,138.1,332.5,138.2z"/>
</g>
</svg>
