<svg xmlns="http://www.w3.org/2000/svg" viewBox="0 0 268 268"><defs><style>.cls-1{fill:none;}.cls-2{fill:#fff;}.cls-3{fill:#26456b;}</style></defs><g id="Layer_2" data-name="Layer 2"><rect class="cls-1" width="268" height="268"/></g><g id="Layer_1" data-name="Layer 1"><g id="esr"><rect class="cls-2" x="5.5" y="73.05" width="29.2" height="29.2"/><circle class="cls-2" cx="19" cy="179.35" r="17.4"/><path class="cls-2" d="M155.4,173.25h-58a11.82,11.82,0,0,1-11.8-11.8v-58a11.82,11.82,0,0,1,11.8-11.8h58a11.82,11.82,0,0,1,11.8,11.8v58a11.89,11.89,0,0,1-11.8,11.8"/><path class="cls-3" d="M155.4,175.75h-58a14.3,14.3,0,0,1-14.3-14.3v-58a14.3,14.3,0,0,1,14.3-14.3h58a14.3,14.3,0,0,1,14.3,14.3v58A14.43,14.43,0,0,1,155.4,175.75ZM97.3,94.15a9.35,9.35,0,0,0-9.3,9.3v58a9.35,9.35,0,0,0,9.3,9.3h58a9.35,9.35,0,0,0,9.3-9.3v-58a9.35,9.35,0,0,0-9.3-9.3Z"/><path class="cls-3" d="M124.5,131c10.6,0,12.3-5.8,12.3-10.7,0-10.4-8-10.7-14.5-10.7-1.4,0-3.5,0-4.2.1-1.6.2-1.6,1.1-1.6,2.7v18.5h8ZM103,154.05h1.7c5.5,0,5.7-.8,5.7-3.4V113c0-2.6-.1-3.4-5.7-3.4H103v-2.2h22.5c10.5,0,18.7,6,18.7,12.9,0,5.6-5.6,10-12.5,11.7,3.9,1.4,7.4,3.7,8.7,8.3l.9,5.7c1,6.7,1.6,10.3,5.1,10.3,1.8,0,4.3-1.3,4.7-6.4.1-.5.1-1.1.9-1.1s.9.8.9,1.2c0,2-1.2,7.9-6.8,7.9-2.1,0-6.1-.4-9-3s-2.9-5.6-2.9-10.2c0-4.8,0-7-2.7-9.6a9.22,9.22,0,0,0-6.7-2.4h-8.2v18.1c0,2.6.1,3.4,5.7,3.4H124v2.2c-2.6-.2-7.7-.2-10.5-.2s-7.9,0-10.5.2v-2.3Z"/><path class="cls-3" d="M206.6,168.75H192.1l5.5-5.5-8.2-8.2-5.5,5.5v-14.5h14.4l-5.4,5.5,8.2,8.2,5.4-5.4v14.4Zm-146.6,0H45.5v-14.4l5.4,5.4,8.2-8.2-5.4-5.5H68.1v14.5l-5.5-5.5-8.2,8.2Zm138.5-50.1H184v-14.4l5.5,5.5,8.2-8.2-5.5-5.5h14.5v14.4l-5.4-5.4-8.2,8.2Zm-144.9,0,5.4-5.4-8.2-8.2-5.4,5.4V96.05H59.9l-5.5,5.5,8.2,8.2,5.5-5.5v14.4Z"/><path class="cls-3" d="M37.6,105.55H2.5V70.45H37.6Zm-30.1-5H32.6V75.45H7.5Z"/><path class="cls-3" d="M19.3,197.55a18.9,18.9,0,1,1,18.9-18.9A18.95,18.95,0,0,1,19.3,197.55Zm0-32.7a13.9,13.9,0,1,0,13.9,13.9A13.93,13.93,0,0,0,19.3,164.85Z"/><polygon class="cls-2" points="223.6 193.95 241 193.95 249.6 178.95 241 163.95 223.6 163.95 215 178.95 223.6 193.95"/><path class="cls-3" d="M243,197.55H221.5L210.8,179l10.7-18.6H243L253.7,179Zm-18.6-5h15.7L248,179l-7.9-13.6H224.4L216.5,179Z"/><polygon class="cls-3" points="215.2 102.25 230.5 102.25 230.5 97.25 220.2 97.25 220.2 91.75 229.6 91.75 229.6 86.75 220.2 86.75 220.2 81.35 230.5 81.35 230.5 76.35 215.2 76.35 215.2 102.25"/><path class="cls-3" d="M262.4,91.05a7.61,7.61,0,0,0,4.6-7c0-5.2-4.5-7.3-6.9-7.6h-9.8v25.9h5V92h1.9l5.4,10v.2h.1l.2.3.6-.3h4.1v-1.5Zm-7.1-9.7h4.2a2.77,2.77,0,0,1,2.5,2.7c0,2-1.9,2.6-2.5,2.8h-4.2Z"/><path class="cls-3" d="M239.9,80.65c1.9,0,3.5,1.2,3.5,2.7h5c0-4.3-3.8-7.7-8.5-7.7s-8.5,3.5-8.5,7.7c0,3.5,2.6,6.3,7.7,8.1,2.9,1.1,4.4,2.3,4.4,3.5,0,1.5-1.6,2.7-3.5,2.7s-3.5-1.2-3.5-2.7h-5c0,4.3,3.8,7.7,8.5,7.7s8.5-3.5,8.5-7.7c0-5.3-5.8-7.4-7.7-8.1-1.6-.6-4.4-1.9-4.4-3.5C236.4,82,238,80.65,239.9,80.65Z"/></g></g></svg>