<?xml version="1.0" encoding="UTF-8"?>
<svg id="Layer_1" xmlns="http://www.w3.org/2000/svg" version="1.1" viewBox="0 0 268 268">
  <!-- Generator: Adobe Illustrator 29.1.0, SVG Export Plug-In . SVG Version: 2.1.0 Build 142)  -->
  <defs>
    <style>
      .st0 {
        fill: #fff;
      }
    </style>
  </defs>
  <path class="st0" d="M226.4,181.7v-117H41.6v116.9h77.6v8.2h-11.6v13.5h51.2v-13.5h-12v-8.2h79.6ZM46.6,69.7h174.8v106.9H46.6v-106.9ZM153.8,194.9v3.5h-41.2v-3.5h11.6v-13.2h17.6v13.2h12Z"/>
  <rect class="st0" x="59.3" y="83" width="20.7" height="19.9"/>
  <rect class="st0" x="164.7" y="123.2" width="20.7" height="19.9"/>
  <rect class="st0" x="122.9" y="142.6" width="20.7" height="19.9"/>
  <path class="st0" d="M58.3,82v20.9h0v20.4h0v19.3h0v21.2h149.8v-81.9H58.3ZM206.1,122.2h-19.2v-18.4h19.2v18.4ZM184.9,122.2h-19.2v-18.4h19.2v18.4ZM121.3,122.2h-19.2v-18.4h19.2v18.4ZM123.3,103.9h19.2v18.4h-19.2v-18.4ZM121.3,124.2v17.4h-19.2v-17.4h19.2ZM123.3,124.2h19.2v17.4h-19.2v-17.4ZM144.5,124.2h19.2v17.4h-19.2v-17.4ZM144.5,122.2v-18.4h19.2v18.4h-19.2ZM165.7,101.9v-17.9h19.2v17.9h-19.2ZM163.7,101.9h-19.2v-17.9h19.2v17.9ZM142.5,101.9h-19.2v-17.9h19.2v17.9ZM121.3,101.9h-19.2v-17.9h19.2v17.9ZM100.1,101.9h-19.2v-17.9h19.2v17.9ZM100.1,103.9v18.4h-19.2v-18.4h19.2ZM78.9,122.2h-18.7v-18.4h18.7v18.4ZM60.3,124.2h18.7v17.4h-18.7v-17.4ZM80.9,124.2h19.2v17.4h-19.2v-17.4ZM100.1,143.6v18.2h-19.2v-18.2h19.2ZM102.1,143.6h19.2v18.2h-19.2v-18.2ZM123.3,143.6h19.2v18.2h-19.2v-18.2ZM144.5,143.6h19.2v18.2h-19.2v-18.2ZM165.7,143.6h19.2v18.2h-19.2v-18.2ZM165.7,141.6v-17.4h19.2v17.4h-19.2ZM186.9,124.2h19.2v17.4h-19.2v-17.4ZM206.1,101.9h-19.2v-17.9h19.2v17.9ZM78.9,84v17.9h-18.7v-17.9h18.7ZM60.3,143.6h18.7v18.2h-18.7v-18.2ZM186.9,161.8v-18.2h19.2v18.2h-19.2Z"/>
</svg>