<?xml version="1.0" encoding="utf-8"?>
<!-- Generator: Adobe Illustrator 26.0.3, SVG Export Plug-In . SVG Version: 6.00 Build 0)  -->
<svg version="1.1" id="Layer_1" xmlns="http://www.w3.org/2000/svg" xmlns:xlink="http://www.w3.org/1999/xlink" x="0px" y="0px"
	 viewBox="0 0 441.2 296.2" style="enable-background:new 0 0 441.2 296.2;" xml:space="preserve">
<style type="text/css">
	.st0{fill:#344768;}
</style>
<g>
	<path class="st0" d="M29,201.7c1.1-0.2,1.9-1.2,1.8-2.3c0-0.3-0.1-0.5-0.1-0.8c-0.1-1.1-1.2-2-2.3-1.8c-1.1,0.1-2,1.2-1.8,2.3
		c0,0.3,0.1,0.6,0.1,0.9c0.1,1,1,1.8,2.1,1.8C28.8,201.8,28.9,201.7,29,201.7z"/>
	<path class="st0" d="M79.1,247.7l-0.7-0.4c-1-0.5-2.3,0-2.8,1s0,2.3,1,2.8l0.8,0.4c0.3,0.1,0.6,0.2,0.9,0.2c0.8,0,1.5-0.4,1.9-1.2
		C80.6,249.4,80.2,248.2,79.1,247.7z"/>
	<path class="st0" d="M28.4,192.6c0.1,0,0.2,0,0.3,0c1,0,1.9-0.8,2.1-1.8c0-0.3,0.1-0.5,0.1-0.8c0.2-1.1-0.6-2.2-1.7-2.4
		s-2.2,0.6-2.4,1.7c0,0.3-0.1,0.6-0.1,0.9C26.5,191.5,27.3,192.5,28.4,192.6z"/>
	<path class="st0" d="M33,207.7c-0.1-0.2-0.2-0.5-0.3-0.7c-0.4-1.1-1.6-1.6-2.7-1.2c-1.1,0.4-1.6,1.6-1.2,2.7
		c0.1,0.3,0.2,0.5,0.3,0.8c0.3,0.8,1.1,1.3,1.9,1.3c0.3,0,0.5,0,0.8-0.1C32.9,210,33.4,208.8,33,207.7z"/>
	<path class="st0" d="M55.7,234.2l-0.7-0.5c-0.9-0.7-2.2-0.5-2.9,0.4c-0.7,0.9-0.5,2.2,0.4,2.9l0.7,0.5c0.4,0.3,0.8,0.4,1.2,0.4
		c0.6,0,1.3-0.3,1.7-0.9C56.9,236.1,56.7,234.8,55.7,234.2z"/>
	<path class="st0" d="M63.2,239.1l-0.7-0.4c-1-0.6-2.2-0.3-2.9,0.7c-0.6,1-0.3,2.3,0.7,2.9l0.7,0.4c0.3,0.2,0.7,0.3,1.1,0.3
		c0.7,0,1.4-0.3,1.8-1C64.5,241,64.2,239.7,63.2,239.1z"/>
	<path class="st0" d="M41.9,221.8c-0.8-0.9-2.1-0.9-2.9-0.2c-0.9,0.8-0.9,2.1-0.2,2.9l0.6,0.6c0.4,0.5,1,0.7,1.5,0.7s1-0.2,1.4-0.5
		c0.9-0.8,0.9-2.1,0.2-2.9L41.9,221.8z"/>
	<path class="st0" d="M59.6,151.6c-0.7-0.9-2-1.1-2.9-0.5l-0.7,0.5c-0.9,0.7-1.1,2-0.5,2.9c0.4,0.6,1,0.9,1.7,0.9
		c0.4,0,0.9-0.1,1.2-0.4l0.7-0.5C60.1,153.8,60.3,152.5,59.6,151.6z"/>
	<path class="st0" d="M71,243.6l-0.7-0.4c-1-0.5-2.3-0.2-2.8,0.8s-0.2,2.3,0.8,2.8l0.7,0.4c0.3,0.2,0.6,0.2,1,0.2
		c0.7,0,1.5-0.4,1.8-1.1C72.4,245.4,72.1,244.2,71,243.6z"/>
	<path class="st0" d="M48.1,228c-0.9-0.8-2.2-0.7-2.9,0.2c-0.8,0.9-0.7,2.2,0.2,2.9l0.6,0.6c0.4,0.3,0.9,0.5,1.4,0.5
		c0.6,0,1.1-0.2,1.6-0.7c0.8-0.9,0.7-2.2-0.2-2.9L48.1,228z"/>
	<path class="st0" d="M166.4,114.3l-0.8,0.1c-1.1,0.2-1.9,1.2-1.8,2.3c0.1,1,1,1.8,2.1,1.8c0.1,0,0.2,0,0.3,0l0.8-0.1
		c1.1-0.1,1.9-1.2,1.8-2.3C168.6,115,167.5,114.2,166.4,114.3z"/>
	<path class="st0" d="M36.6,214.7c-0.6-1-1.9-1.3-2.9-0.6c-1,0.6-1.3,1.9-0.6,2.9c0.2,0.2,0.3,0.5,0.5,0.7c0.4,0.6,1.1,0.9,1.7,0.9
		c0.4,0,0.8-0.1,1.1-0.3c1-0.6,1.2-1.9,0.6-2.9C36.9,215.2,36.7,214.9,36.6,214.7z"/>
	<path class="st0" d="M292.2,119.1l0.8,0.1c0.1,0,0.2,0,0.3,0c1,0,1.9-0.7,2-1.8c0.2-1.1-0.6-2.2-1.8-2.4l-0.8-0.1
		c-1.1-0.2-2.2,0.6-2.4,1.8C290.3,117.9,291.1,118.9,292.2,119.1z"/>
	<path class="st0" d="M174.9,117.4c0.1,0,0.2,0,0.2,0l0.8-0.1c1.1-0.1,2-1.1,1.8-2.3c-0.1-1.1-1.2-2-2.3-1.8l-0.8,0.1
		c-1.1,0.1-2,1.2-1.8,2.3C173,116.7,173.9,117.4,174.9,117.4z"/>
	<path class="st0" d="M274.1,116.9l0.8,0.1c0.1,0,0.1,0,0.2,0c1,0,2-0.8,2.1-1.9c0.1-1.1-0.7-2.2-1.9-2.3l-0.8-0.1
		c-1.1-0.1-2.2,0.7-2.3,1.9C272.2,115.8,273,116.8,274.1,116.9z"/>
	<path class="st0" d="M265.1,116.1l0.8,0.1c0.1,0,0.1,0,0.2,0c1.1,0,2-0.8,2.1-1.9c0.1-1.1-0.7-2.1-1.9-2.2l-0.8-0.1
		c-1.2-0.1-2.1,0.8-2.2,1.9C263.1,115,263.9,116,265.1,116.1z"/>
	<path class="st0" d="M302,120.7c0.1,0,0.2,0,0.4,0c1,0,1.9-0.7,2-1.7c0.2-1.1-0.6-2.2-1.7-2.4l-0.8-0.1c-1.1-0.2-2.2,0.6-2.4,1.7
		c-0.2,1.1,0.6,2.2,1.7,2.4L302,120.7z"/>
	<path class="st0" d="M425.9,188.5c0.2,0,0.3,0,0.5-0.1c1.1-0.3,1.8-1.4,1.5-2.5c-0.1-0.3-0.1-0.6-0.2-0.9c-0.3-1.1-1.4-1.8-2.5-1.5
		s-1.8,1.4-1.5,2.5c0.1,0.3,0.1,0.5,0.2,0.8C424.1,187.8,425,188.5,425.9,188.5z"/>
	<path class="st0" d="M283.7,113.8c-1.1-0.1-2.2,0.7-2.3,1.8s0.7,2.2,1.8,2.3l0.8,0.1c0.1,0,0.2,0,0.3,0c1,0,1.9-0.8,2.1-1.8
		c0.1-1.1-0.7-2.2-1.8-2.3L283.7,113.8z"/>
	<path class="st0" d="M202.2,111c-1.1,0.1-2,1-2,2.2c0.1,1.1,1,2,2.1,2h0.1h0.8c1.1-0.1,2-1,2-2.2c-0.1-1.1-1-2-2.2-2H202.2z"/>
	<path class="st0" d="M211.4,114.8C211.4,114.8,211.5,114.8,211.4,114.8h0.9c1.1,0,2-1,2-2.1s-1-2-2.1-2c0,0,0,0-0.1,0h-0.8
		c-1.1,0-2,1-2,2.1C209.4,113.9,210.3,114.8,211.4,114.8z"/>
	<path class="st0" d="M193.8,111.6l-0.8,0.1c-1.1,0.1-2,1.1-1.9,2.2c0.1,1.1,1,1.9,2.1,1.9h0.1l0.8-0.1c1.1-0.1,2-1.1,1.9-2.2
		C196,112.3,195,111.5,193.8,111.6z"/>
	<path class="st0" d="M184.7,112.3l-0.8,0.1c-1.1,0.1-2,1.1-1.9,2.3c0.1,1.1,1,1.9,2.1,1.9c0.1,0,0.1,0,0.2,0l0.8-0.1
		c1.1-0.1,2-1.1,1.9-2.2C186.8,113,185.8,112.2,184.7,112.3z"/>
	<path class="st0" d="M256.2,111.3c-1.1-0.1-2.1,0.8-2.2,1.9c-0.1,1.1,0.8,2.1,1.9,2.2l0.8,0.1h0.1c1.1,0,2-0.8,2.1-1.9
		c0.1-1.1-0.8-2.1-1.9-2.2L256.2,111.3z"/>
	<path class="st0" d="M388.4,241.4l-0.7,0.4c-1,0.6-1.3,1.8-0.8,2.8c0.4,0.7,1.1,1.1,1.8,1.1c0.3,0,0.7-0.1,1-0.3l0.7-0.4
		c1-0.6,1.3-1.8,0.8-2.8C390.7,241.1,389.4,240.8,388.4,241.4z"/>
	<path class="st0" d="M396.1,236.6l-0.7,0.5c-1,0.6-1.2,1.9-0.6,2.9c0.4,0.6,1.1,0.9,1.7,0.9c0.4,0,0.8-0.1,1.1-0.3l0.7-0.5
		c1-0.6,1.2-1.9,0.6-2.9C398.3,236.2,397,236,396.1,236.6z"/>
	<path class="st0" d="M380.5,245.6l-0.7,0.4c-1,0.5-1.4,1.8-0.9,2.8c0.4,0.7,1.1,1.2,1.9,1.2c0.3,0,0.6-0.1,0.9-0.2l0.8-0.4
		c1-0.5,1.4-1.8,0.9-2.8C382.7,245.5,381.5,245.1,380.5,245.6z"/>
	<path class="st0" d="M363.9,252.9l-0.8,0.3c-1.1,0.4-1.6,1.6-1.2,2.7c0.3,0.8,1.1,1.3,1.9,1.3c0.2,0,0.5,0,0.8-0.1l0.8-0.3
		c1.1-0.4,1.6-1.6,1.2-2.7C366.2,253.1,365,252.5,363.9,252.9z"/>
	<path class="st0" d="M372.3,249.5l-0.8,0.3c-1,0.5-1.5,1.7-1.1,2.7c0.3,0.8,1.1,1.2,1.9,1.2c0.3,0,0.6-0.1,0.8-0.2l0.8-0.3
		c1-0.5,1.5-1.7,1.1-2.7C374.5,249.5,373.3,249,372.3,249.5z"/>
	<path class="st0" d="M427,192.5C426.9,192.5,426.9,192.5,427,192.5c-1.2,0-2.1,0.9-2.1,2.1v0.3c0,0.3,0,0.5,0,0.8
		c0,1.1,0.9,2.1,2,2.1c0,0,0,0,0.1,0c1.1,0,2-0.9,2.1-2c0-0.3,0-0.6,0-0.9v-0.4C429,193.4,428.1,192.5,427,192.5z"/>
	<path class="st0" d="M426.3,202c-1.1-0.3-2.2,0.4-2.5,1.5c-0.1,0.3-0.1,0.5-0.2,0.8c-0.3,1.1,0.3,2.2,1.4,2.6
		c0.2,0.1,0.4,0.1,0.6,0.1c0.9,0,1.7-0.6,2-1.5c0.1-0.3,0.2-0.6,0.2-0.8C428.1,203.4,427.4,202.2,426.3,202z"/>
	<path class="st0" d="M357.2,130.1l-0.8-0.3c-1.1-0.4-2.3,0.2-2.6,1.3c-0.4,1.1,0.2,2.3,1.3,2.6l0.8,0.3c0.2,0.1,0.5,0.1,0.7,0.1
		c0.9,0,1.7-0.5,2-1.4C358.9,131.6,358.3,130.4,357.2,130.1z"/>
	<path class="st0" d="M403.3,231.3l-0.6,0.5c-0.9,0.7-1.1,2-0.3,2.9c0.4,0.5,1,0.8,1.6,0.8c0.4,0,0.9-0.1,1.3-0.4l0.7-0.5
		c0.9-0.7,1-2,0.3-2.9C405.5,230.8,404.2,230.6,403.3,231.3z"/>
	<path class="st0" d="M410,225.4l-0.6,0.6c-0.8,0.8-0.8,2.1-0.1,2.9c0.4,0.4,0.9,0.6,1.5,0.6c0.5,0,1-0.2,1.4-0.6l0.6-0.6
		c0.8-0.8,0.8-2.1,0-2.9C412.1,224.6,410.8,224.6,410,225.4z"/>
	<path class="st0" d="M418.8,218.5c-0.9-0.7-2.2-0.5-2.9,0.4c-0.2,0.2-0.3,0.4-0.5,0.6c-0.7,0.9-0.6,2.2,0.3,2.9
		c0.4,0.3,0.8,0.4,1.3,0.4c0.6,0,1.2-0.3,1.6-0.8c0.2-0.2,0.4-0.5,0.5-0.7C419.9,220.5,419.7,219.2,418.8,218.5z"/>
	<path class="st0" d="M423.4,210.6c-1-0.5-2.3-0.1-2.8,0.9c-0.1,0.2-0.2,0.5-0.4,0.7c-0.5,1-0.2,2.3,0.8,2.8c0.3,0.2,0.7,0.3,1,0.3
		c0.7,0,1.4-0.4,1.8-1.1c0.1-0.3,0.3-0.5,0.4-0.8C424.8,212.4,424.5,211.1,423.4,210.6z"/>
	<path class="st0" d="M355.4,256.1l-0.8,0.3c-1.1,0.4-1.7,1.6-1.3,2.6c0.3,0.9,1.1,1.4,2,1.4c0.2,0,0.5,0,0.7-0.1l0.8-0.3
		c1.1-0.4,1.7-1.6,1.3-2.6C357.7,256.3,356.5,255.7,355.4,256.1z"/>
	<path class="st0" d="M113.1,260.3l-0.8-0.2c-1.1-0.3-2.3,0.3-2.6,1.4c-0.3,1.1,0.3,2.3,1.4,2.6l0.8,0.2c0.2,0.1,0.4,0.1,0.6,0.1
		c0.9,0,1.7-0.6,2-1.5C114.8,261.8,114.2,260.6,113.1,260.3z"/>
	<path class="st0" d="M104.4,257.6l-0.8-0.3c-1.1-0.4-2.3,0.2-2.6,1.3c-0.4,1.1,0.2,2.3,1.3,2.6l0.8,0.3c0.2,0.1,0.4,0.1,0.6,0.1
		c0.9,0,1.7-0.6,2-1.4C106.1,259.1,105.5,258,104.4,257.6z"/>
	<path class="st0" d="M121.8,262.7l-0.8-0.2c-1.1-0.3-2.2,0.4-2.5,1.5s0.4,2.2,1.5,2.5l0.8,0.2c0.2,0,0.4,0.1,0.5,0.1
		c0.9,0,1.8-0.6,2-1.5C123.6,264.2,123,263,121.8,262.7z"/>
	<path class="st0" d="M113.4,125.5l-0.8,0.2c-1.1,0.3-1.7,1.5-1.4,2.6c0.3,0.9,1.1,1.5,2,1.5c0.2,0,0.4,0,0.6-0.1l0.8-0.2
		c1.1-0.3,1.7-1.5,1.4-2.6C115.6,125.8,114.5,125.2,113.4,125.5z"/>
	<path class="st0" d="M87.4,251.3l-0.8-0.3c-1.1-0.4-2.3,0-2.7,1.1c-0.4,1.1,0,2.3,1.1,2.7l0.8,0.3c0.3,0.1,0.5,0.2,0.8,0.2
		c0.8,0,1.6-0.5,1.9-1.3C89,253,88.5,251.8,87.4,251.3z"/>
	<path class="st0" d="M95.8,254.6l-0.8-0.3c-1.1-0.4-2.3,0.1-2.7,1.2c-0.4,1.1,0.1,2.3,1.2,2.7l0.8,0.3c0.2,0.1,0.5,0.1,0.7,0.1
		c0.8,0,1.6-0.5,1.9-1.4C97.5,256.2,96.9,255,95.8,254.6z"/>
	<path class="st0" d="M338.1,261.5l-0.8,0.2c-1.1,0.3-1.8,1.4-1.5,2.5c0.3,0.9,1.1,1.5,2,1.5c0.2,0,0.4,0,0.5-0.1l0.8-0.2
		c1.1-0.3,1.7-1.5,1.4-2.6C340.3,261.8,339.2,261.2,338.1,261.5z"/>
	<path class="st0" d="M346.8,258.9l-0.8,0.2c-1.1,0.3-1.7,1.5-1.4,2.6c0.3,0.9,1.1,1.5,2,1.5c0.2,0,0.4,0,0.6-0.1l0.8-0.2
		c1.1-0.3,1.7-1.5,1.4-2.6C349,259.2,347.9,258.6,346.8,258.9z"/>
	<path class="st0" d="M339.6,124.5l-0.8-0.2c-1.1-0.3-2.2,0.3-2.6,1.4c-0.3,1.1,0.3,2.2,1.4,2.6l0.8,0.2c0.2,0.1,0.4,0.1,0.6,0.1
		c0.9,0,1.7-0.6,2-1.5C341.4,126,340.7,124.8,339.6,124.5z"/>
	<path class="st0" d="M122.3,123l-0.8,0.2c-1.1,0.3-1.8,1.4-1.5,2.5c0.2,0.9,1.1,1.5,2,1.5l1.3-0.3c1.1-0.3,1.8-1.4,1.5-2.5
		C124.5,123.4,123.4,122.8,122.3,123z"/>
	<path class="st0" d="M348.5,127.2l-0.8-0.3c-1.1-0.3-2.3,0.3-2.6,1.4s0.3,2.3,1.4,2.6l0.8,0.2c0.2,0.1,0.4,0.1,0.6,0.1
		c0.9,0,1.7-0.6,2-1.4C350.2,128.7,349.6,127.5,348.5,127.2z"/>
	<path class="st0" d="M130.7,264.9l-0.8-0.2c-1.1-0.3-2.2,0.4-2.5,1.5s0.4,2.2,1.5,2.5l0.8,0.2c0.2,0,0.3,0.1,0.5,0.1
		c0.9,0,1.8-0.6,2-1.6C132.5,266.3,131.8,265.2,130.7,264.9z"/>
	<path class="st0" d="M329.3,263.8l-0.8,0.2c-1.1,0.3-1.8,1.4-1.5,2.5c0.2,0.9,1.1,1.6,2,1.6c0.2,0,0.3,0,0.5-0.1l0.8-0.2
		c1.1-0.3,1.8-1.4,1.5-2.5S330.4,263.5,329.3,263.8z"/>
	<path class="st0" d="M341.9,61.2h0.3l2-2.3l-1.7-12.8c-0.3-3.5-4.8-5.9-5.7-6.4l-0.5-0.2l-8.1-1.6v-2.2l0.6-0.6
		c0.7-0.7,0.8-0.8,0.6-11.2c0-5.6-5-10.3-10.9-10.3s-10.9,4.7-10.9,10.3v2.4l1.5-0.3c-0.2,0.3-0.4,0.6-0.4,1c0,4.6,0,4.7,0,4.7
		c0.1,1.6,0.9,3.8,4.7,4.9v1.3l-7.8,1.7l-0.5,0.2c-0.9,0.5-5.4,2.9-5.7,6.4L297.7,59l2,2.3h0.1v20.8v0.1c-0.8,0.2-1.4,1-1.4,1.9
		c0,5.2,3.6,9.6,8.4,10.8l2,42.7c-0.1,0-0.1,0-0.2,0c-3.9,0-7.2,3.2-7.2,7.2v2h7.7h6.6h9.9h6h8.3v-2c0-3.9-3.2-7.2-7.2-7.2
		c-0.2,0-0.5,0-0.7,0l2-42.6c5.1-1,8.9-5.5,8.9-10.9c0-0.8-0.5-1.6-1.3-1.9c0-0.1,0-0.1,0-0.2V61.2H341.9z M325.5,30.3
		c-0.2-0.1-0.4-0.2-0.6-0.2l-0.9,0.1c-0.7-0.6-1.4-1.4-2.2-2.4c-0.3-0.4-0.7-0.8-1-1.2l4.3-0.5c0.1,0,0.2-0.1,0.3-0.1
		C325.5,27.6,325.5,29,325.5,30.3z M319.6,33.3c0.4-0.2,0.6-0.7,0.6-1.1h0.1c1.1,1.2,2.4,2.3,3.9,2.9v3.8c0,0.4,0.1,0.8,0.4,1.2
		l-3.7,5.9l-4.1-5.7c0.4-0.4,0.7-0.9,0.7-1.5v-4.1L319.6,33.3z M317.7,29.6c0,0,0-0.2,0-0.5c0.4,0.4,0.8,0.9,1.2,1.3
		c0.1,0.1,0.1,0.2,0.2,0.2C317.7,30.3,317.7,29.8,317.7,29.6z M318.5,17.7c3.7,0,6.9,2.9,6.9,6.3c0,0.2,0,0.5,0,0.7
		c-0.1-0.1-0.3-0.1-0.5-0.1l-5.5,0.6c-1.8-1.8-4.1-3.3-7.3-3.4C313.1,19.4,315.7,17.7,318.5,17.7z M313.4,30.8c0-0.1,0-1.3,0-2.7
		l1.4-0.2c0,0.8,0,1.7,0,1.7c0,0.7,0.2,1.5,0.8,2.2l0,0c0,0.2,0.1,0.3,0.2,0.4l-0.7,0.4C314.2,32.6,313.4,31.8,313.4,30.8z
		 M302.5,84.1V84c0.8-0.2,1.4-1,1.4-1.9V61.3h2.5l0.3,29.3C304.2,89.5,302.5,87,302.5,84.1z M306.4,142.7c0.6-0.7,1.5-1.2,2.4-1.2
		c0.1,0,0.2,0,0.3,0l2.1,1.1h-4.8V142.7z M326.1,142.7h-3.4V97.4c0-1.1-0.9-2-2-2s-2,0.9-2,2v45.3h-3.1c-0.4-1.5-1.4-2.8-2.6-3.7
		l-1.9-44.5h19l-2,44.9C327.2,140.3,326.5,141.4,326.1,142.7z M333,141.5c1,0,1.9,0.5,2.4,1.2H330l2-1
		C332.4,141.6,332.7,141.5,333,141.5z M339.2,84.1c0,2.8-1.6,5.2-4,6.4l0.3-29.2h2.4v20.8c0,0.8,0.5,1.6,1.3,1.9
		C339.2,84,339.2,84,339.2,84.1z M335.6,57.2v-4c0-1.1-0.9-2-2-2l0,0c-1.1,0-2,0.9-2,2l-0.4,37.3h-20.5l-0.4-35.2c0-1.1-0.9-2-2-2
		l0,0c-1.1,0-2,0.9-2,2v1.9H302l1.4-10.6h-0.2l0.2-0.2c0-0.7,1.6-2.1,3.3-3L313,42l6.3,8.7l3.3-0.1l5.3-8.6l7.2,1.4
		c1.7,0.9,3.2,2.3,3.3,3l0.2,0.2h-0.2l1.4,10.6L335.6,57.2L335.6,57.2z"/>
	<path class="st0" d="M276.6,69.1l-1.1,0.7v30.8c0,3.2,2.6,5.8,5.8,5.8s5.8-2.6,5.8-5.8v-38l-0.7,0.4l0.8-37.2l-3.8,5.5
		c-1.1,1.5-10.2,15.2-7.9,23C277.9,62.1,277.1,67.5,276.6,69.1z M283.2,100.6c0,1-0.8,1.8-1.8,1.8s-1.8-0.8-1.8-1.8V72l3.7-2.2v30.8
		H283.2z M283.1,40l-0.5,25.1l-1.4,1c0.2-3,0-7.4-1.6-12.9C278.5,50,280.7,44.5,283.1,40z"/>
	<path class="st0" d="M5.5,139.8l-0.9-1.3c-0.6-0.9-0.4-2.2,0.5-2.8s2.2-0.4,2.8,0.5l1.1,1.6c0.2-0.9,0.9-1.5,1.8-1.6l10.8-1.1
		c1.1-0.1,2.1,0.7,2.2,1.8s-0.7,2.1-1.8,2.2l-3.7,0.4c0.9,1.8,3.3,2.9,6,3.3c0-0.8,0.5-1.4,1.2-1.7c-0.7-0.3-1.2-1-1.2-1.8v-0.4
		c0-0.6,0.3-1.2,0.8-1.6c-0.5-0.4-0.8-0.9-0.8-1.6v-0.4c0-1.1,0.9-2,2-2s2,0.9,2,2v0.4c0,0.6-0.3,1.2-0.8,1.6
		c0.5,0.4,0.8,0.9,0.8,1.6v0.4c0,0.8-0.5,1.5-1.2,1.8c0.7,0.3,1.2,1,1.2,1.7c2.7-0.4,5.2-1.4,6.1-3.3l-3.7-0.4
		c-1.1-0.1-1.9-1.1-1.8-2.2s1.1-1.9,2.2-1.8l10.8,1.1c0.9,0.1,1.6,0.8,1.8,1.6l1.1-1.6c0.6-0.9,1.9-1.1,2.8-0.5s1.1,1.9,0.5,2.8
		l-0.9,1.3c0,0.1,0.1,0.1,0.1,0.2l1.3,6v-16.3H3.7v19.5l1.9-9.2C5.4,139.9,5.5,139.8,5.5,139.8z"/>
	<path class="st0" d="M48.4,163c-0.4-0.3-0.7-0.7-0.8-1.2L43.9,144c-0.3,0.2-0.7,0.3-1.1,0.3s-0.8-0.1-1.1-0.4
		c-0.9-0.6-1.1-1.9-0.5-2.8L42,140c-0.1,0-0.2,0-0.3,0c-0.1,0-0.1,0-0.2,0l-3-0.3c-1,3.7-4.8,6.3-10.2,6.9v2.1
		c2.8,0.2,7.7-0.1,8.9-4.3c0.3-1.1,1.4-1.7,2.5-1.4s1.7,1.4,1.4,2.5c-1.3,4.6-5.6,7.3-11.5,7.3c-0.4,0-0.8,0-1.2,0v1.9
		c2.9,0.8,8.9,1.8,11.4-3.3c0.5-1,1.7-1.4,2.7-0.9s1.4,1.7,0.9,2.7c-2,4.1-5.8,6.2-10.6,6.2c-1.4,0-2.9-0.2-4.4-0.6v1.5
		c0.2,0,0.3,0.1,0.5,0.2c4.5,2.4,7.9,2.9,11.2-2.1c0.6-0.9,1.9-1.2,2.8-0.6c0.9,0.6,1.2,1.9,0.6,2.8c-2.9,4.3-6.2,5.6-9.1,5.6
		c-2.3,0-4.4-0.8-5.9-1.5v0.3c0,0.4-0.1,0.8-0.3,1.1c0.6-0.1,1.2,0,1.7,0.4c2.2,1.7,4.2,2.7,6,2.8c2.4,0.1,4.6-1.1,6.7-3.8
		c0.7-0.9,2-1,2.8-0.3c0.9,0.7,1,2,0.3,2.8c-2.8,3.5-6,5.3-9.5,5.3c-0.2,0-0.4,0-0.6,0c-2.5-0.2-5.1-1.3-7.7-3.3
		c-0.1,0.1-0.1,0.1-0.2,0.2c0.5,0.4,0.8,0.9,0.8,1.6v0.4c0,1.1-0.9,2-2,2s-2-0.9-2-2v-0.3c0-0.6,0.3-1.2,0.8-1.6
		c-0.1,0-0.1-0.1-0.2-0.1c-2.6,2-5.2,3.1-7.7,3.2c-0.2,0-0.4,0-0.6,0c-3.5,0-6.7-1.8-9.5-5.3c-0.7-0.9-0.6-2.1,0.3-2.8
		s2.1-0.6,2.8,0.3c2.1,2.7,4.3,3.9,6.7,3.8c1.8-0.1,3.9-1.1,6-2.8c0.5-0.4,1.1-0.5,1.7-0.4c-0.2-0.3-0.3-0.7-0.3-1.1v-0.2
		c-1.5,0.7-3.5,1.5-5.8,1.5c-3,0-6.3-1.3-9.1-5.6c-0.6-0.9-0.4-2.2,0.6-2.8c0.9-0.6,2.2-0.4,2.8,0.6c3.3,4.9,6.7,4.5,11.2,2.1
		c0.1-0.1,0.3-0.1,0.4-0.2v-1.6c-1.5,0.4-3,0.5-4.4,0.5c-4.8,0-8.5-2.1-10.6-6.2c-0.5-1-0.1-2.2,0.9-2.7s2.2-0.1,2.7,0.9
		c2.5,5.1,8.4,4.2,11.3,3.3v-1.8c-0.4,0-0.8,0-1.1,0c-5.9,0-10.2-2.7-11.5-7.3c-0.3-1.1,0.3-2.2,1.4-2.5s2.2,0.3,2.5,1.4
		c1.2,4.1,6,4.5,8.8,4.3v-2.2c-5.4-0.6-9.1-3.2-10.1-6.9l-3,0.3c-0.1,0-0.1,0-0.2,0s-0.2,0-0.3,0l0.8,1.1c0.6,0.9,0.4,2.2-0.5,2.8
		c-0.3,0.2-0.7,0.4-1.1,0.4s-0.7-0.1-1.1-0.3l-3.7,17.8c-0.2,0.8-0.7,1.3-1.4,1.5v15.4h44.9V163H48.4z"/>
	<path class="st0" d="M51.9,126.8c0-0.4-0.4-0.8-0.8-0.8H0.8c-0.4,0-0.8,0.4-0.8,0.8v54.9c0,0.4,0.4,0.8,0.8,0.8h50.3
		c0.4,0,0.8-0.4,0.8-0.8V126.8z M50.3,180.9H1.5v-53.3h48.8V180.9z"/>
	<path class="st0" d="M260.1,166h-56.6v28h-48.6v102.2h153.8V194h-48.6V166z M304.7,198v94.2H158.9V198h48.6v-28h48.6v28H304.7z"/>
	<path class="st0" d="M171.8,279h12v-12h-12V279z M173.4,268.6h8.8v2.8h-8.8V268.6z"/>
	<path class="st0" d="M171.8,259.3h12v-12h-12V259.3z M173.4,248.8h8.8v5.2h-8.8V248.8z"/>
	<path class="st0" d="M171.8,239.5h12v-12h-12V239.5z M173.4,229.1h8.8v2.8h-8.8V229.1z"/>
	<rect x="171.8" y="207.7" class="st0" width="12" height="12"/>
	<rect x="189.8" y="267" class="st0" width="12" height="12"/>
	<path class="st0" d="M189.8,259.3h12v-12h-12V259.3z M191.4,248.8h8.8v8.8h-8.8V248.8z"/>
	<path class="st0" d="M189.8,239.5h12v-12h-12V239.5z M191.4,229.1h8.8v2.8h-8.8V229.1z"/>
	<path class="st0" d="M189.8,219.7h12v-12h-12V219.7z M191.4,209.3h8.8v8.8h-8.8V209.3z"/>
	<path class="st0" d="M207.8,279h12v-12h-12V279z M209.4,268.6h8.8v2.8h-8.8V268.6z"/>
	<path class="st0" d="M207.8,259.3h12v-12h-12V259.3z M209.4,248.8h8.8v2.8h-8.8V248.8z"/>
	<rect x="207.8" y="227.5" class="st0" width="12" height="12"/>
	<path class="st0" d="M207.8,219.7h12v-12h-12V219.7z M209.4,209.3h8.8v2.8h-8.8V209.3z"/>
	<path class="st0" d="M225.8,279h12v-12h-12V279z M227.4,268.6h8.8v8.8h-8.8V268.6z"/>
	<path class="st0" d="M225.8,259.3h12v-12h-12V259.3z M227.4,248.8h8.8v4.4h-8.8V248.8z"/>
	<path class="st0" d="M225.8,239.5h12v-12h-12V239.5z M227.4,229.1h8.8v2.8h-8.8V229.1z"/>
	<rect x="225.8" y="207.7" class="st0" width="12" height="12"/>
	<path class="st0" d="M243.8,279h12v-12h-12V279z M245.4,268.6h8.8v2.8h-8.8V268.6z"/>
	<path class="st0" d="M243.8,259.3h12v-12h-12V259.3z M245.4,248.8h8.8v2.8h-8.8V248.8z"/>
	<rect x="243.8" y="227.5" class="st0" width="12" height="12"/>
	<path class="st0" d="M273.8,267h-12v12h12V267z M272.2,273h-8.8v-4.4h8.8V273z"/>
	<rect x="261.8" y="247.2" class="st0" width="12" height="12"/>
	<path class="st0" d="M273.8,227.5h-12v12h12V227.5z M272.2,233.4h-8.8V229h8.8V233.4z"/>
	<path class="st0" d="M291.8,267h-12v12h12V267z M290.2,271.4h-8.8v-2.8h8.8V271.4z"/>
	<path class="st0" d="M291.8,247.2h-12v12h12V247.2z M290.2,251.6h-8.8v-2.8h8.8V251.6z"/>
	<path class="st0" d="M291.8,227.5h-12v12h12V227.5z M290.2,237.9h-8.8v-8.8h8.8V237.9z"/>
	<path class="st0" d="M243.8,219.8h12v-12h-12V219.8z M245.4,209.4h8.8v8.8h-8.8V209.4z"/>
	<path class="st0" d="M273.8,207.8h-12v12h12V207.8z M272.2,212.1h-8.8v-2.7h8.8V212.1z"/>
	<path class="st0" d="M291.8,207.8h-12v12h12V207.8z M290.2,213.7h-8.8v-4.3h8.8V213.7z"/>
	<polygon class="st0" points="236.4,175.8 226.1,175.8 226.1,183.1 218.9,183.1 218.9,193.4 226.1,193.4 226.1,200.7 236.4,200.7 
		236.4,193.4 243.7,193.4 243.7,183.1 236.4,183.1 	"/>
	<path class="st0" d="M106.4,122.8h0.3l2-2.3l-1.7-12.8c-0.3-3.5-4.8-5.9-5.7-6.4l-0.5-0.2l-8.1-1.6v-2.2l0.6-0.6
		c0.7-0.7,0.8-0.8,0.6-11.2c0-5.6-5-10.3-10.9-10.3s-10.9,4.7-10.9,10.3v2.4l1.5-0.3c-0.2,0.3-0.4,0.6-0.4,1c0,4.6,0,4.7,0,4.7
		c0.1,1.6,0.9,3.8,4.7,4.9v1.3l-7.8,1.7l-0.5,0.2c-0.9,0.5-5.4,2.9-5.7,6.4l-1.7,12.8l2,2.3h0.1v20.8c0,0.1,0,0.1,0,0.2l0,0
		c-1.1,0-2,0.9-2,2c0,5.4,3.9,10,9.1,10.9l2,42.4c-0.1,0-0.1,0-0.2,0c-3.9,0-7.2,3.2-7.2,7.2v2h14.3v-1h9.9v1h14.3v-2
		c0-3.9-3.2-7.2-7.2-7.2c-0.3,0-0.5,0-0.8,0l2-42.6c4.8-1.2,8.4-5.6,8.4-10.8c0-0.7-0.3-1.2-0.8-1.6c0.1-0.2,0.1-0.4,0.1-0.6v-20.8
		H106.4z M90,91.8c-0.2-0.1-0.4-0.2-0.6-0.2l-0.9,0.1c-0.7-0.6-1.4-1.4-2.2-2.4c-0.3-0.4-0.7-0.8-1-1.2l4.3-0.5
		c0.1,0,0.2-0.1,0.3-0.1C89.9,89.1,90,90.6,90,91.8z M89.1,101.6l-3.7,5.9l-4.1-5.7c0.3-0.3,0.5-0.6,0.6-1c-0.3-0.5-0.5-1.2-0.5-1.8
		c0-0.7,0.2-1.4,0.6-2v-0.9l2.1-1.3c0.4-0.2,0.6-0.7,0.6-1.1h0.1c0.5,0.6,1.1,1.1,1.7,1.6c0.7,0.2,1.3,0.6,1.8,1.1
		c0.1,0.1,0.3,0.2,0.4,0.2V97c0.4,0.6,0.6,1.3,0.6,2s-0.2,1.3-0.5,1.9C88.9,101.2,89,101.4,89.1,101.6z M82.1,91.1c0,0,0-0.2,0-0.5
		c0.4,0.4,0.8,0.9,1.2,1.3c0.1,0.1,0.1,0.2,0.2,0.2C82.2,91.8,82.1,91.3,82.1,91.1z M83,79.2c3.7,0,6.9,2.9,6.9,6.3
		c0,0.2,0,0.5,0,0.7c-0.1-0.1-0.3-0.1-0.5-0.1l-5.5,0.6c-1.8-1.8-4.1-3.3-7.3-3.4C77.6,81,80.2,79.2,83,79.2z M76.1,93.2
		c0-0.1,0-2,0-3.3l3.1-0.4c0,0.8,0,1.7,0,1.7c0,0.7,0.2,1.5,0.8,2.2l0,0c0,0.2,0.1,0.3,0.2,0.4l-2.1,1.3
		C76.2,94.5,76.2,93.6,76.1,93.2z M66.4,145.8c0-0.1,0-0.1,0-0.2l0,0c1.1,0,2-0.9,2-2v-20.8h2.5l0.3,29.7
		C68.4,151.6,66.4,148.9,66.4,145.8z M70.8,204.2c0.6-0.7,1.5-1.2,2.4-1.2c1,0,1.9,0.5,2.4,1.2H70.8z M92.6,201
		c-0.7,0.6-1.2,1.4-1.6,2.2h-3.8v-44.3c0-1.1-0.9-2-2-2s-2,0.9-2,2v44.4h-3.5c-0.5-1.1-1.3-2-2.2-2.7l-2.1-44.5h18.9
		c0.1,0.1,0.2,0.3,0.4,0.4L92.6,201z M97.5,203.1c1,0,1.9,0.5,2.4,1.2H95C95.6,203.5,96.5,203.1,97.5,203.1z M103.1,145.8
		c0,0.9-0.2,1.7-0.4,2.4l-3,3l0.3-28.4h2.4v20.8c0,0.7,0.3,1.2,0.8,1.6C103.1,145.4,103.1,145.6,103.1,145.8z M100,118.8v-4
		c0-1.1-0.9-2-2-2s-2,0.9-2,2l-0.4,37.3H75.1l-0.4-35.2c0-1.1-0.9-2-2-2s-2,0.9-2,2v1.9h-4.3l1.4-10.6h-0.2l0.2-0.2
		c0-0.7,1.6-2.1,3.3-3l6.3-1.4l6.3,8.7l3.3-0.1l5.3-8.6l7.2,1.4c1.7,0.9,3.2,2.3,3.3,3l0.2,0.2h-0.2l1.4,10.6L100,118.8L100,118.8z"
		/>
	<path class="st0" d="M180.1,85.3h3.9h2.9v6.8H186c-1.1,0-2,0.9-2,2s0.9,2,2,2h0.9h8.8h0.9c1.1,0,2-0.9,2-2s-0.9-2-2-2h-0.9v-6.8
		h2.9h3.8c1.1,0,2-0.9,2-2s-0.9-2-2-2h-3.8V41h-2.9V30.2h-3.6V15.7h-1.6v14.5h-3.6V41H184v40.3h-3.9c-1.1,0-2,0.9-2,2
		S179,85.3,180.1,85.3z M191.6,92.1h-0.8v-6.8h0.8V92.1z M190.8,34.2h0.8V41h-0.8V34.2z M188,67.5h2.9v-1.6H188v-3.8h2.9v-1.6H188
		v-3.8h2.9v-1.6H188v-3.8h2.9v-1.6H188V45h6.5v36.3H188V67.5z"/>
	<path class="st0" d="M213,49.3v17.8c0,0.5,0.2,1,0.5,1.3h-0.1c-1.1,0-2,0.9-2,2c0,5.5,4,10.1,9.3,10.9l2,42.6c-0.2,0-0.5,0-0.7,0
		c-3.9,0-7.2,3.2-7.2,7.2v2h12.3h2h9.9h1.6h12.7v-2c0-3.9-3.2-7.2-7.2-7.2c-0.1,0-0.1,0-0.2,0l2-42.4c5.5-0.6,9.8-5.3,9.8-11
		c0-1.1-0.9-2-2-2h-0.1c0.3-0.4,0.5-0.8,0.5-1.3V49.4c0-0.2,0-0.3-0.1-0.5l2.3-0.2l-0.2-13.2c-0.1-3.5-2.7-6.3-6.1-6.7l-10.3-4.9
		v-0.8c3.5-1.1,4.4-3.2,4.4-4.8c0,0,0-0.1,0-4.7c0-0.3-0.1-0.6-0.3-0.8c0-0.2,0-0.3,0-0.5c1-0.1,1.7-1,1.7-2
		c0-5.7-4.6-10.3-10.3-10.3s-10.3,4.6-10.3,10.3v13.4l-11,4.2c-3.4,0.4-6,3.3-6.1,6.8v13.6l3.2,0.4C213.1,48.9,213,49.1,213,49.3z
		 M220.2,77.1c-2.8-1-4.8-3.6-4.8-6.7c0-0.5-0.2-1-0.5-1.3h0.1c1.1,0,2-0.9,2-2V49.3l0,0l1.6,0.2c0.1,0,0.2,0,0.3,0
		c0.5,0,0.9-0.2,1.3-0.5L220.2,77.1L220.2,77.1z M219.5,129c0.6-0.7,1.5-1.2,2.4-1.2c1,0,1.9,0.5,2.4,1.2H219.5z M239.3,129h-3.1
		V83.6c0-1.1-0.9-2-2-2s-2,0.9-2,2V129h-3.4c-0.4-1.3-1.1-2.4-2-3.3l-1.9-45.2h18.9l-1.9,44.7C240.7,126.2,239.7,127.5,239.3,129z
		 M246.2,127.9c1,0,1.9,0.5,2.4,1.2h-4.9C244.3,128.3,245.2,127.9,246.2,127.9z M253.8,70.4c0,3.2-2.2,6-5.2,6.8V49.4
		c0.2,0,0.3,0,0.5,0l3.1-0.3v0.1V67c0,1.1,0.9,2,2,2h0.1C254,69.4,253.8,69.9,253.8,70.4z M242,17.1c0,1.2-1,2.1-2.1,2.1h-0.1
		l-0.5-0.3c0.1-0.1,0.2-0.2,0.2-0.4l0,0c0.6-0.7,0.8-1.5,0.8-2.2c0,0,0-0.9,0-1.7l1.7,0.2C242,15.9,242,17,242,17.1z M231.2,10.3
		c0-0.1,0-0.1,0-0.2h11c-0.1,0.2-0.2,0.5-0.2,0.8c0,0,0,0.4,0,0.9l-3-0.4c-0.4,0-0.8,0.1-1.1,0.4c-0.1,0-0.1,0.1-0.1,0.2l-6.6-0.7
		L231.2,10.3L231.2,10.3z M231.2,12.8l6.3,0.7c0,0.9,0,2.5,0,2.6c0,0.2,0,0.7-1.5,1.2l0,0l-4.7-0.5L231.2,12.8L231.2,12.8z
		 M231.2,25.2v-6.9l3.7,0.4c0,0.4,0.3,0.9,0.6,1.1l2.4,1.5v3.8c0,0.8,0.4,1.4,1.1,1.8l-3.6,6.1l-4.3-7
		C231.1,25.8,231.2,25.5,231.2,25.2z M214,34.7c0-1.5,1.2-2.8,2.7-2.9h0.3l10.5-4l8,12.9l7.2-12.2l8.5,4h0.4
		c1.5,0.1,2.7,1.4,2.8,2.9l0.2,9.5l-5.7,0.5h-0.1v-7.7c0-1.1-0.9-2-2-2s-2,0.9-2,2v38.8h-0.7v-0.1h-19.3v0.1h-0.5V37.7
		c0-1.1-0.9-2-2-2s-2,0.9-2,2v8.1c-0.3-0.2-0.6-0.4-1-0.4l-5.2-0.7L214,34.7z"/>
	<path class="st0" d="M107.4,67.7c-3.9,0-7.1-3.2-7.1-7.1c0-1.1-0.9-2-2-2s-2,0.9-2,2c0,6.1,5,11.1,11.1,11.1c1.1,0,2-0.9,2-2
		S108.5,67.7,107.4,67.7z"/>
	<path class="st0" d="M105.1,65.4c0.4,0.6,1,1,1.7,1c0.3,0,0.7-0.1,1-0.3c1-0.5,1.3-1.8,0.7-2.7l-8.3-14.5c-0.5-1-1.8-1.3-2.7-0.7
		c-1,0.5-1.3,1.8-0.7,2.7L105.1,65.4z"/>
	<rect x="102.9" y="41.3" class="st0" width="1.6" height="7.4"/>
	<rect x="107.3" y="52.5" class="st0" width="7.4" height="1.6"/>
	
		<rect x="105.5" y="46.3" transform="matrix(0.7071 -0.7071 0.7071 0.7071 -1.3377 90.9918)" class="st0" width="7.4" height="1.6"/>
	<path class="st0" d="M113.8,64.2c-0.1-1.1-1-1.9-2.2-1.8c-1.1,0.1-1.9,1.1-1.8,2.2l0.8,9.5l20-1.9c1.1-0.1,1.9-1.1,1.8-2.2
		s-1.1-1.9-2.2-1.8l-16,1.5L113.8,64.2z"/>
	<path class="st0" d="M161,149.5c0-2.9-2.3-5.2-5.2-5.2h-0.1v-8.8h2.1l-0.1-37.3c4.3-1.3,7.5-5,7.9-9.5h2.2l-0.6-39v-1l-0.3-1
		c-0.8-2.5-3-4.5-5.8-4.8l-8.8-3v-1.5c0.7-0.1,1.2-0.7,1.2-1.4v-9.9c0-5.2-4.8-9.8-10.3-9.8s-10.3,4.6-10.3,9.8
		c0,0.7,0.5,1.3,1.2,1.4c0,5.4,0,5.5,0,5.5c0.1,2.6,1.8,4.8,4.2,5.6v0.5l-7.9,2.7c-2.7,0.3-5,2.3-5.8,4.8l-0.3,1l-0.2,14.2
		c0,1.1,0.9,2,2,2l0,0c1.1,0,2-0.9,2-2l0.2-12.6v-0.7c0-1.5,1.2-2.8,2.8-2.9L133,46l6.8-2.3c0.2,0.1,1.9-0.2,2.2-0.8l0.5-0.2
		c-0.4-0.6-0.7-1.4-0.7-2.3c0-0.7,0.2-1.4,0.5-2v-2.7h-2c-1.2,0-2.1-0.9-2.2-2c0-0.1,0-3,0-4.8l12,6.7c-0.3,0.3-0.6,0.7-0.6,1.1v1.9
		c0,0,0,1.1,0,1.8c0,0.8-0.2,1.5-0.7,2.2l1.3,0.4c0.2,0.1,0.4,0.2,0.6,0.2l7.9,2.7l1,0.4l0.9,0.1c1.5,0.1,2.7,1.4,2.8,2.9l0.5,34.9
		h-3.6c-1.1,0-2,0.9-2,2s0.9,2,2,2h1.4c-0.4,2.3-1.9,4.2-3.9,5.2V81.1h0.3l0.6-29.8c0-1.1-0.9-2-2-2s-2,0.9-2,2l-0.5,25.8h-16.5
		l-0.5-25.8c0-1.1-0.9-2-2-2l0,0c-1.1,0-2,0.9-2,2l0.6,29.8h0.9l-5.5,53.9h5.6v8.9c-2.4,0.4-4.3,2.5-4.3,5.1h10.3c0-0.1,0-0.2,0-0.3
		h3.4v-13.6h2.2v13.6h4.3c0,0.1,0,0.2,0,0.3H161V149.5z M140.1,145.1h-1.4v-9.6h1.4V145.1z M150.4,145.1v-9.6h1.4v9.6H150.4z"/>
	<path class="st0" d="M409.2,125.4l-0.7-13.4l0,0c-0.1-2.6-2.1-4.7-4.6-4.8l0,0l-10.1-3.5v-2.3c2.4-0.8,4.1-3,4.2-5.6
		c0,0,0-0.1,0-5.5c0.7-0.1,1.2-0.7,1.2-1.4c0-5.4-5.4-9.7-10.7-9.7c-4.9,0-8.9,3.6-9.6,8.3c0.1,0.7,0.3,0.9,0.3,1.5v14.7l-10.6,3
		l0,0c-2.5,0.2-4.5,2.3-4.6,4.8l0,0v36.4c-0.3,0.4-0.5,0.8-0.5,1.3c0,5.9,4.6,10.7,10.3,11.1l0.3,45.9c-0.4-0.1-0.8-0.2-1.3-0.2
		c-2.9,0-5.2,2.3-5.2,5.2h10.3c0-0.2,0-0.4-0.1-0.6h8.4h0.1h7.8c0,0.2-0.1,0.4-0.1,0.6h10.3c0-2.9-2.3-5.2-5.2-5.2
		c-0.3,0-0.5,0-0.7,0.1l0.2-28.3h42.6v-52.2h-32V125.4z M398.9,118.8h2.5l0.9,6.6h-3.4V118.8z M398.9,135.9h4.4v5.6h-4.4V135.9z
		 M383,100.4V88.8h13.2c0,0.2,0,0.4,0.1,0.6h-2.4c0,0,0,6.1,0,6.2c0,1.2-1,2.1-2.2,2.1h-2v2.7c0.3,0.6,0.5,1.3,0.5,2
		s-0.2,1.3-0.5,1.8c0,0.1,0.1,0.2,0.1,0.3l-0.2,0.4l-0.2-0.3c-0.7,1-1.9,1.7-3.2,1.7c-2.2,0-3.9-1.8-3.9-3.9
		C382.4,101.6,382.6,101,383,100.4z M373.5,144.5l0.1,11.7c-3.6-0.4-6.3-3.4-6.3-7.1c0-0.3-0.1-0.6-0.2-0.8h3.7v-30.2h2.7v24.3h25.1
		v0.8h4.8v5h-4.5v-3.7H373.5z M398.8,161.4v-5h4.5v5H398.8z M403.4,163v4.6h-4.6V163H403.4z M398.9,154.8v-5h4.5v5H398.9z
		 M437.3,173.6h-38.5v-4.4h34.1v-35h-34v-4.9h38.3v44.3H437.3z M410.3,143.1v5H405v-5H410.3z M405,141.5v-5.6h5.3v5.6H405z
		 M410.3,149.8v5H405v-5H410.3z M410.3,156.4v5H405v-5H410.3z M410.3,163v4.6H405V163H410.3z M417.2,143.1v5h-5.3v-5H417.2z
		 M411.9,141.5v-5.6h5.3v5.6H411.9z M417.2,149.8v5h-5.3v-5H417.2z M417.2,156.4v5h-5.3v-5H417.2z M417.2,163v4.6h-5.3V163H417.2z
		 M424.2,143.1v5h-5.3v-5H424.2z M418.8,141.5v-5.6h5.3v5.6H418.8z M424.2,149.8v5h-5.3v-5H424.2z M424.2,156.4v5h-5.3v-5H424.2z
		 M424.2,163v4.6h-5.3V163H424.2z M431.3,143.1v5h-5.6v-5H431.3z M425.8,141.5v-5.6h5.6v5.6H425.8z M431.3,149.8v5h-5.6v-5H431.3z
		 M431.3,156.4v5h-5.6v-5H431.3z M431.3,163v4.6h-5.6V163H431.3z"/>
</g>
</svg>
