<svg xmlns="http://www.w3.org/2000/svg" viewBox="0 0 268 268"><defs><style>.cls-1{fill:none;}.cls-2{fill:#fff;}.cls-3{fill:#344768;}.cls-4{fill:#99a0b3;}</style></defs><g id="Layer_2" data-name="Layer 2"><rect class="cls-1" width="268" height="268"/></g><g id="Layer_1" data-name="Layer 1"><g id="support"><polygon class="cls-2" points="142.61 147.2 142.61 82.8 40.61 82.8 40.61 147.2 80.51 147.2 80.51 156.2 68.91 156.2 68.91 164.7 115.11 164.7 115.11 156.2 103.11 156.2 103.11 147.2 142.61 147.2"/><path class="cls-3" d="M145.11,149.7V80.3h-107v69.4h39.8v4H66.31v13.5h51.3V153.7h-12v-4Zm-102-64.4h97v59.4h-97Zm69.5,73.4v3.5H71.41v-3.5H83v-9h17.6v9Z"/><rect class="cls-4" x="48.91" y="92.9" width="85" height="44"/><path class="cls-2" d="M196.61,123.7l4.5,2.9,19.5-26.3-6-3.8a2.77,2.77,0,0,0-3.9.8l-14.8,22.4A2.76,2.76,0,0,0,196.61,123.7Z"/><path class="cls-2" d="M167.51,154.3a2.86,2.86,0,0,0-4-.6l-21.6,16a2.86,2.86,0,0,0-.6,4l4.1,4.8,25.2-19.9Z"/><path class="cls-2" d="M221.21,101.4l-18.3,26.2s12.4,3.8-7.2,24.5-23.9,8.5-23.9,8.5l-25.6,19.2s20,14.3,41.2-3.4c6.5-5.5,9.9-7.2,17.7-15.4s9.3-11.6,14.4-18.4C236.21,120.3,221.21,101.4,221.21,101.4Z"/><path class="cls-3" d="M223.11,99.8a2.59,2.59,0,0,0-1.7-.9,2.52,2.52,0,0,0-1-1.5l-4.5-2.9a5.17,5.17,0,0,0-4-.8,5.4,5.4,0,0,0-3.4,2.3l-14.8,22.4a5.17,5.17,0,0,0-.8,4,5.4,5.4,0,0,0,2.3,3.4l4.5,2.9a2.3,2.3,0,0,0,1.4.4h0a2.84,2.84,0,0,0,1.1.8,3.29,3.29,0,0,1,2,2.4c.4,1.7.3,7-10.2,18s-15.7,11.5-17.4,11.2a3,3,0,0,1-2.3-1.8,2.37,2.37,0,0,0-1.1-1.3,2.35,2.35,0,0,0-.5-1.3l-3.2-4.3a5.31,5.31,0,0,0-7.5-1.1l-21.6,16a5.31,5.31,0,0,0-1.1,7.5l3.2,4.3a2.16,2.16,0,0,0,1.4.9,3.32,3.32,0,0,0,1,1.4,37.35,37.35,0,0,0,20,5.9c7.2,0,15.6-2.2,24.2-9.4,1.9-1.6,3.5-2.8,5.1-4.1A101.5,101.5,0,0,0,207,162.7a105.1,105.1,0,0,0,10.8-13.3c1.1-1.6,2.3-3.3,3.8-5.2C239.21,120.5,223.31,100,223.11,99.8Zm-21,24.6-4.1-2.7a.31.31,0,0,1-.1-.2v-.3l14.8-22.4a.31.31,0,0,1,.2-.1h.3l4.5,2.9a.37.37,0,0,0,.3.1Zm-58.7,47.4,21.6-16a.35.35,0,0,1,.5.1l3,4.1-22,16.5-3.1-4.3C143.21,172.1,143.31,171.9,143.41,171.8Zm74.1-30.7c-1.5,2-2.7,3.7-3.9,5.4a105.81,105.81,0,0,1-10.3,12.8,86.59,86.59,0,0,1-12.3,11c-1.6,1.2-3.2,2.5-5.2,4.2-14.9,12.5-29,8-35,5l20.5-15.4a8.11,8.11,0,0,0,4.2,2.3c5.7,1.2,12.9-2.9,22.1-12.6,9.1-9.5,12.9-17.2,11.4-22.8a8.7,8.7,0,0,0-2.5-4.1l14.6-21a30.85,30.85,0,0,1,3.1,8.3C226.21,123.4,224,132.5,217.51,141.1Z"/></g></g></svg>