<?xml version="1.0" encoding="UTF-8"?>
<svg id="Layer_1" xmlns="http://www.w3.org/2000/svg" version="1.1" viewBox="0 0 268 268">
  <!-- Generator: Adobe Illustrator 29.1.0, SVG Export Plug-In . SVG Version: 2.1.0 Build 142)  -->
  <defs>
    <style>
      .st0 {
        fill: #fff;
      }
    </style>
  </defs>
  <path class="st0" d="M242.4,95.5l-3.5-3.5-3.8-3.8-3.5-3.5-3.5,3.5-10.5,10.5c-8.8-9.9-24-10.8-33.9-1.9-2.2,1.9-4,4.3-5.3,6.8-1.3.4-2.6.8-3.8,1.3-4.1,1.6-7.7,4.2-10.5,7.6v-9h-25.5v26.9h-16.9v-26.9h-45.1v29c0,4.5,0,9.1.2,13.9-1.6-4.4-3.4-8.9-5.2-13.3l-11.9-29.6H25.6v78.1h24.6v-29c0-4.9,0-9.6-.2-14.1,1.6,4.4,3.4,8.9,5.2,13.5l12,29.6h54.5v-28.9h16.9v28.9h25.5v-9.9c1.2,1.6,2.6,3.1,4.2,4.4,6.3,5.1,13.3,7.2,23.3,7.2,6,.1,12-.9,17.6-3.1,4.7-1.8,8.8-4.9,11.8-9,2.8-4.1,4.3-9,4.2-14,0-5.6-1.4-10.2-4.1-13.7-2.6-3.4-6-6.1-10-7.7,2.4-1.3,4.5-3,6.3-5h.2v-.2c3.8-4.4,5.9-10,5.9-15.8v-.3l15.3-15.3,3.6-3.7ZM96,176.5h-25.6l-10.8-26.5c-3.9-9.7-7.4-19.2-10.4-28.2l-.6-1.7h-4.7l.2,2.7c.5,8.7.8,18.7.8,29.7v24h-14.6v-68.1h25.7l10.7,26.5c3.9,9.5,7.4,19,10.4,28.2l.6,1.7h4.7v-2.6c-.6-10.5-.9-20.5-.9-29.7v-24h14.6v68h0ZM159,152.8v23.7h-15.5v-28.9h-26.9v28.9h-15.5v-68.1h15.5v26.9h26.9v-26.9h15.5v44.4ZM164,141.7c2.4,2.7,5.4,4.9,8.8,6.3,4.8,1.9,9.8,3.5,14.8,4.8,2.6.6,5.1,1.3,7.6,2.2,1,.3,2,.9,2.8,1.6.4.5.6,1.2.5,1.8,0,1-.4,2-1.3,2.6-1.5.9-3.2,1.3-4.9,1.2-5.4,0-7.6-2-7.6-6.8v-2.6h-20.7v-11.1ZM217.1,146.4c2,2.6,3,6.2,3,10.7.1,4-1,7.8-3.3,11.1-2.4,3.3-5.8,5.8-9.6,7.3-5,1.9-10.3,2.8-15.7,2.7-8.9,0-14.8-1.8-20.2-6.1-4.4-3.5-7-8.6-7.3-14.2h15.8c.9,6,5.2,9.3,12.4,9.3,2.8.2,5.6-.6,7.9-2.2,2.1-1.5,3.4-4,3.3-6.6,0-1.9-.6-3.9-1.9-5.3-1.3-1.3-2.9-2.2-4.6-2.8-2.7-.9-5.4-1.7-8.1-2.3-4.8-1.3-9.5-2.8-14.1-4.6-3.1-1.2-5.8-3.3-7.8-5.9-2-2.5-3-5.9-3-10.3-.1-3.8,1-7.5,3.1-10.6,2.3-3.1,5.4-5.6,9-7-.3,1.6-.5,3.3-.5,5,0,13.3,10.7,24,24,24,1.4,0,2.9-.1,4.3-.4,1.9.6,3.6,1.3,5.1,1.9,3.3,1.3,6.1,3.5,8.2,6.3ZM202.8,128l-18.5-18.5,3.8-3.8,14.7,14.7,28.7-28.7,3.8,3.8-32.5,32.5Z"/>
</svg>