<svg id="Layer_1" data-name="Layer 1" xmlns="http://www.w3.org/2000/svg" viewBox="0 0 268 268"><defs><style>.cls-1{fill:none;}.cls-2{fill:#fff;}.cls-3{fill:#344768;}</style></defs><g id="Layer_2" data-name="Layer 2"><rect class="cls-1" width="268" height="268"/></g><g id="Layer_1-2" data-name="Layer 1"><g id="nhs"><path class="cls-2" d="M166.5,97.9H146v26.9H124.1V97.9H84v26.5c0,9.3.3,19.3.8,29.9h-.2c-3-9.2-6.5-18.7-10.5-28.3L62.8,98H32.9v73.1H52.5V144.6c0-11.1-.3-21-.8-29.9h.2c3.1,9.1,6.6,18.5,10.5,28.3l11.4,28h50.3V142.1H146V171h20.5V97.9Z"/><path class="cls-2" d="M215,129.8a101,101,0,0,0-14.3-4.6,77,77,0,0,1-8.1-2.3,10,10,0,0,1-3.9-2.2,4.79,4.79,0,0,1-1.2-3.3,4.68,4.68,0,0,1,2.2-4.1,10.23,10.23,0,0,1,6-1.5h.5l11.7,11.7,3.4-3.4h8.9c0-3.7.8-7,1-9.9l22.7-22.7-7.3-7.3L216,100.8c-4.9-3-11.4-4.5-19.4-4.5h-1.3l-2.1-2.1-2.4,2.4a35.36,35.36,0,0,0-10.3,2.5,23.66,23.66,0,0,0-10.4,8,20.8,20.8,0,0,0-3.6,12.1c0,4.9,1.2,8.9,3.5,11.8a22.5,22.5,0,0,0,8.8,6.7,110.9,110.9,0,0,0,14.4,4.7,59.56,59.56,0,0,1,7.9,2.3,10.64,10.64,0,0,1,3.7,2.2,5,5,0,0,1,1.2,3.5,5.64,5.64,0,0,1-2.3,4.6,10.82,10.82,0,0,1-6.4,1.7c-6.7,0-10.1-3.1-10.1-9.3H166.5c0,8,2.8,14.2,8.3,18.7s11.8,6.7,21.8,6.7a43.62,43.62,0,0,0,16.6-2.9,23,23,0,0,0,10.7-8.2,21.08,21.08,0,0,0,3.7-12.6c0-5.1-1.2-9.1-3.5-12.2A22.77,22.77,0,0,0,215,129.8Z"/><path class="cls-3" d="M247.4,87.5,243.9,84l-3.8-3.8-3.5-3.5-3.5,3.5L222.6,90.7a24,24,0,0,0-39.2,4.9c-1.3.4-2.6.8-3.8,1.3a26,26,0,0,0-10.5,7.6v-9H143.6v26.9H126.7V95.5H81.6v29c0,4.5.1,9.1.2,13.9-1.6-4.4-3.4-8.9-5.2-13.3L64.7,95.5H30.6v78.1H55.2v-29c0-4.9-.1-9.6-.2-14.1,1.6,4.4,3.4,8.9,5.2,13.5l12,29.6h54.5V144.7h16.9v28.9h25.5v-9.9a24.93,24.93,0,0,0,4.2,4.4c6.3,5.1,13.3,7.2,23.3,7.2a45.36,45.36,0,0,0,17.6-3.1,26.47,26.47,0,0,0,11.8-9,23.65,23.65,0,0,0,4.2-14c0-5.6-1.4-10.2-4.1-13.7a23.89,23.89,0,0,0-10-7.7,23.58,23.58,0,0,0,6.3-5h.2v-.2a23.72,23.72,0,0,0,5.9-15.8v-.3l15.3-15.3ZM101,168.5H75.4L64.6,142c-3.9-9.7-7.4-19.2-10.4-28.2l-.6-1.7H48.9l.2,2.7c.5,8.7.8,18.7.8,29.7v24H35.3V100.4H61l10.7,26.5c3.9,9.5,7.4,19,10.4,28.2l.6,1.7h4.7l-.1-2.6c-.5-10.5-.8-20.5-.8-29.7v-24h14.6v68Zm63-23.7v23.7H148.5V139.6H121.6v28.9H106.1V100.4h15.5v26.9h26.9V100.4H164Zm5-11.1a25.35,25.35,0,0,0,8.8,6.3,112.61,112.61,0,0,0,14.8,4.8,75.12,75.12,0,0,1,7.6,2.2,7.73,7.73,0,0,1,2.8,1.6,2.57,2.57,0,0,1,.5,1.8,3,3,0,0,1-1.3,2.6,8.44,8.44,0,0,1-4.9,1.2c-5.4,0-7.6-2-7.6-6.8v-2.6H169V133.7Zm53.1,4.7c2,2.6,3,6.2,3,10.7a18.47,18.47,0,0,1-3.3,11.1,21.8,21.8,0,0,1-9.6,7.3,40.89,40.89,0,0,1-15.7,2.7c-8.9,0-14.8-1.8-20.2-6.1a19.28,19.28,0,0,1-7.3-14.2h15.8c.9,6,5.2,9.3,12.4,9.3a12.76,12.76,0,0,0,7.9-2.2,7.84,7.84,0,0,0,3.3-6.6,7.34,7.34,0,0,0-1.9-5.3,12,12,0,0,0-4.6-2.8,70.39,70.39,0,0,0-8.1-2.3,130.55,130.55,0,0,1-14.1-4.6,18.44,18.44,0,0,1-7.8-5.9c-2-2.5-3-5.9-3-10.3a17.91,17.91,0,0,1,3.1-10.6,20.7,20.7,0,0,1,9-7,27.34,27.34,0,0,0-.5,5,24,24,0,0,0,24,24,20.24,20.24,0,0,0,4.3-.4c1.9.6,3.6,1.3,5.1,1.9A19.09,19.09,0,0,1,222.1,138.4ZM207.8,120l-18.5-18.5,3.8-3.8,14.7,14.7,28.7-28.7,3.8,3.8Z"/></g></g></svg>