<?xml version="1.0" encoding="UTF-8"?>
<svg id="Layer_2" data-name="Layer 2" xmlns="http://www.w3.org/2000/svg" viewBox="0 0 606.86 339.86">
  <defs>
    <style>
      .cls-1 {
        fill: #fff;
      }
    </style>
  </defs>
  <g id="Layer_1-2" data-name="Layer 1">
    <g>
      <path class="cls-1" d="M338.59,219.61V0H0v219.61h125.94v12.66h-36.71v42.72h162.33v-42.72h-37.97v-12.66h124.99ZM15.82,15.82h306.95v187.97H15.82V15.82ZM235.75,248.09v11.08H105.38v-11.08h36.68v-28.48h55.69v28.48h38Z"/>
      <path class="cls-1" d="M585.42,61.71c-1.36-1.6-3.29-2.62-5.38-2.85-.43-1.92-1.56-3.61-3.16-4.75l-14.24-9.18c-3.69-2.54-8.27-3.46-12.66-2.53-4.4.92-8.27,3.53-10.76,7.28l-46.83,70.88c-2.54,3.69-3.46,8.27-2.53,12.66.92,4.4,3.53,8.27,7.28,10.76l14.24,9.18c1.3.89,2.86,1.33,4.43,1.27h0c.94,1.11,2.13,1.98,3.48,2.53,3.25,1.3,5.63,4.16,6.33,7.59,1.27,5.38.95,22.15-32.28,56.96-33.23,34.81-49.68,36.39-55.06,35.44-3.25-.51-6-2.66-7.28-5.7-.61-1.76-1.85-3.22-3.48-4.11-.1-1.5-.65-2.93-1.58-4.11l-10.13-13.61c-5.47-7.5-15.98-9.14-23.48-3.67-.09.06-.17.13-.26.19l-68.35,50.63c-7.5,5.47-9.14,15.98-3.67,23.48.06.09.13.17.19.26l10.13,13.61c1.04,1.5,2.63,2.53,4.43,2.85.65,1.73,1.74,3.26,3.16,4.43,18.9,12.11,40.85,18.58,63.29,18.67,22.78,0,49.36-6.96,76.58-29.75,6.01-5.06,11.08-8.86,16.14-12.97,14.5-10.96,28.04-23.14,40.47-36.39,12.52-13.08,23.95-27.15,34.18-42.09,3.48-5.06,7.28-10.44,12.02-16.45,55.73-75,5.41-139.87,4.78-140.5ZM518.96,139.55l-12.97-8.54c-.18-.16-.29-.39-.32-.63v-.95l46.83-70.88c.16-.18.39-.29.63-.32h.95l14.24,9.18c.25.24.6.36.95.32l-50.31,71.83ZM333.21,289.54l68.35-50.63c.5-.35,1.19-.24,1.54.26.01.02.03.04.04.06l9.49,12.97-69.62,52.21-9.81-13.61c-.63-.32-.32-.95,0-1.27ZM567.7,192.4c-4.75,6.33-8.54,11.71-12.34,17.09-9.8,14.33-20.7,27.87-32.59,40.5-11.84,12.82-24.87,24.47-38.92,34.81-5.06,3.8-10.13,7.91-16.45,13.29-47.15,39.56-91.77,25.32-110.75,15.82l64.87-48.73c3.6,3.71,8.23,6.25,13.29,7.28,18.04,3.8,40.82-9.18,69.93-39.87,28.8-30.06,40.82-54.43,36.07-72.15-1.37-4.98-4.11-9.48-7.91-12.97l46.2-66.45c4.52,8.24,7.82,17.08,9.81,26.26,6.33,29.11-.66,57.91-21.2,85.12h0Z"/>
    </g>
  </g>
</svg>