<?xml version="1.0" encoding="UTF-8"?>
<svg id="Layer_2" data-name="Layer 2" xmlns="http://www.w3.org/2000/svg" viewBox="0 0 448.34 453.08">
  <defs>
    <style>
      .cls-1 {
        fill: #2d4f7e;
      }
    </style>
  </defs>
  <g id="Layer_1-2" data-name="Layer 1">
    <path class="cls-1" d="M446.37,235.9c0-8.1-3.73-15.32-9.52-20.06,6.92-4.66,11.5-12.59,11.5-21.53,0-9.57-5.2-17.92-12.92-22.41,5.5-4.74,8.98-11.79,8.98-19.6,0-13.43-10.24-24.5-23.33-25.81v-62.94c0-20.98-17.08-38.1-38.1-38.1h-118.83c-20.98,0-38.06,17.08-38.06,38.1v95.58c-3.06-1.8-6.59-2.94-10.32-3.23v-.08l-61.68-19.93c0-.29.08-.55.08-.84v-13.18c11.25-2.94,19.55-12.92,19.97-25.13v-43.09c.42.08.84.13,1.3.13,3.82,0,6.92-3.11,6.92-6.92,0-25.85-21.02-46.87-46.87-46.87s-46.87,21.02-46.87,46.87v88.95l-64.91,20.01v.08c-12.21.92-21.82,10.91-22.15,23.29h0v.59h0v179.42c-.97,1.17-1.55,2.64-1.55,4.28,0,27.19,21.44,49.39,48.3,50.69l-2.01,38.9h81.53l1.64-12.34,1.72,12.34h81.53l-4.74-82.03H50.48l-1.51,29.33c-19.55-.97-35.16-17.12-35.16-36.88,0-.42-.04-.8-.13-1.22h24.17v-136.75h15.48v130.28h150.97v-130.28h7.59v.5c0,9.23,5.66,17.33,14.14,21.94v100.45c0,20.98,17.08,38.1,38.06,38.1h118.83c20.98,0,38.1-17.08,38.1-38.1v-44.69c11.16-2.9,19.39-13.05,19.39-25.09,0-7.72-3.44-14.69-8.81-19.43,8.69-4.2,14.69-13.09,14.69-23.33h.08ZM410.28,194.27c0-6.67,5.41-12.08,12.08-12.08s12.08,5.41,12.08,12.08-5.41,12.08-12.08,12.08-12.08-5.41-12.08-12.08ZM430.55,152.27c0,6.67-5.41,12.08-12.08,12.08s-12.08-5.41-12.08-12.08,5.41-12.08,12.08-12.08,12.08,5.41,12.08,12.08ZM104.81,34.49c1.55,3.86,2.35,8.01,2.35,12.34,0,3.82,3.1,6.92,6.92,6.92s6.92-3.11,6.92-6.92c0-8.94-2.48-17.5-7.18-24.97.25-.21.5-.42.76-.67,7.64,6.25,12.17,15.69,12.17,25.6,0,3.82,3.1,6.92,6.92,6.92s6.92-3.11,6.92-6.92c0-9.94-3.19-19.51-8.9-27.44,9.02,6.08,14.64,16.36,14.64,27.44,0,3.82,3.1,6.92,6.92,6.92s6.92-3.11,6.92-6.92c0-11.12-3.99-21.69-10.87-29.96,11.29,5.24,19.13,16.7,19.13,29.96,0,.97.21,1.89.59,2.73h-8.81v46.7c-.21,7.09-5.96,12.63-13.05,12.63h-6.92v26.22l-37.85.42V46.78c0-4.36.84-8.52,2.39-12.34v.04ZM242.19,213.95c8.9,0,16.41,5.54,16.41,12.08s-7.51,12.08-16.41,12.08-16.41-5.54-16.41-12.08,7.51-12.08,16.41-12.08ZM383.01,372.64h-118.83c-13.34,0-24.21-10.87-24.21-24.25v-96.51c.76.04,1.51.08,2.27.08,16.7,0,30.25-11.62,30.25-25.93s-13.59-25.93-30.25-25.93c-.76,0-1.51.04-2.27.08V63.48c0-13.34,10.87-24.25,24.21-24.25h118.83c13.34,0,24.21,10.87,24.21,24.25v65.37c-8.69,4.2-14.73,13.09-14.73,23.37,0,9.57,5.2,17.92,12.92,22.41-5.5,4.74-8.98,11.79-8.98,19.6s3.73,15.32,9.52,20.06c-6.92,4.66-11.5,12.59-11.5,21.53,0,7.72,3.44,14.69,8.81,19.43-8.69,4.2-14.69,13.09-14.69,23.33,0,11.79,7.89,21.74,18.63,24.88v44.9c0,13.34-10.87,24.25-24.21,24.25v.04ZM414.56,290.74c-6.67,0-12.08-5.41-12.08-12.08s5.41-12.08,12.08-12.08,12.08,5.41,12.08,12.08-5.41,12.08-12.08,12.08ZM420.43,247.94c-6.67,0-12.08-5.41-12.08-12.08s5.41-12.08,12.08-12.08,12.08,5.41,12.08,12.08-5.41,12.08-12.08,12.08Z"/>
  </g>
</svg>