<?xml version="1.0" encoding="UTF-8"?>
<svg id="Layer_2" data-name="Layer 2" xmlns="http://www.w3.org/2000/svg" viewBox="0 0 605 373.45">
  <defs>
    <style>
      .cls-1 {
        fill: #fff;
      }
    </style>
  </defs>
  <g id="Layer_1-2" data-name="Layer 1">
    <g>
      <path class="cls-1" d="M173.92,327.34c-16.87,0-30.6-13.72-30.6-30.59,0-2.33-1.89-4.22-4.22-4.22s-4.22,1.89-4.22,4.22c0,21.52,17.51,39.03,39.03,39.03,2.33,0,4.22-1.89,4.22-4.22s-1.89-4.22-4.22-4.22Z"/>
      <path class="cls-1" d="M168.13,313.31c.78,1.36,2.2,2.12,3.67,2.12.71,0,1.43-.18,2.09-.56,2.02-1.16,2.72-3.73,1.57-5.76l-31.71-55.37c-1.16-2.02-3.74-2.72-5.76-1.57-2.02,1.16-2.72,3.74-1.57,5.76l31.71,55.37Z"/>
      <path class="cls-1" d="M161.78,223.19h-3.37v28.33h3.37v-28.33Z"/>
      <path class="cls-1" d="M201.86,267.36h-28.33v3.37h28.33v-3.37Z"/>
      <path class="cls-1" d="M189.73,234.25l-20.03,20.03,2.39,2.39,20.03-20.03-2.39-2.39Z"/>
      <path class="cls-1" d="M397.32,255.37l-.49-4.13c-1.99-9.74-10-17.24-20.13-18.37l-35.27-11.88v-11.03c.41.21.87.33,1.36.33,1.68,0,3.04-1.36,3.04-3.04v-37.59c0-18.49-17.25-34.71-36.91-34.71s-36.91,16.22-36.91,34.71c0,1.68,1.36,3.04,3.04,3.04.94,0,1.77-.44,2.33-1.11,0,.08-.02.16-.02.24,0,7.18,0,23.9,0,24.17.31,9.43,6.96,17.09,15.83,18.96v5.69l-32.85,12.22c-10.11,1.14-18.11,8.64-20.1,18.37l-1.24,54.63c-.03,2.33,1.83,4.25,4.16,4.28h.06c2.3,0,4.18-1.85,4.22-4.16l.71-48.06.06-2.37c.19-7.62,6.06-13.8,13.65-14.36l3.9-1.35,28.53-10.61c.77.85,1.87,1.39,3.11,1.39,2.33,0,4.22-1.89,4.22-4.22v-19.45h-4.22c-6.31,0-11.41-4.93-11.61-11.12v-20.22l51.77,28.73c-1.27.37-2.2,1.52-2.2,2.9v14.25c-.42.43-.76.95-.96,1.56-.53,1.56-.07,3.2,1.01,4.3.25,1.43,1.48,2.52,2.98,2.52.6,0,1.15-.18,1.62-.48l31.28,10.54,3.9,1.25c7.59.57,13.46,6.75,13.66,14.37l2.22,108.79c.05,2.3,1.93,4.13,4.22,4.13h.09c2.33-.05,4.18-1.97,4.13-4.3l-2.19-108.82h0Z"/>
      <path class="cls-1" d="M268.4,330.65l-71.49,4.66-3.51-19.77c-.41-2.3-2.61-3.82-4.89-3.41-2.29.41-3.82,2.6-3.41,4.89l4.83,27.2,79.02-5.14c2.33-.15,4.09-2.16,3.94-4.48-.15-2.33-2.18-4.07-4.49-3.94Z"/>
      <path class="cls-1" d="M278.15,259.05h-.09c-2.33.05-4.18,1.98-4.13,4.3l2.2,105.96c.05,2.3,1.93,4.13,4.21,4.13h.09c2.33-.05,4.18-1.98,4.13-4.3l-2.2-105.96c-.05-2.3-1.93-4.13-4.22-4.13Z"/>
      <path class="cls-1" d="M360.62,259.05h-.09c-2.29,0-4.17,1.83-4.21,4.13l-2.2,105.96c-.05,2.33,1.8,4.26,4.13,4.3h.09c2.29,0,4.17-1.83,4.22-4.13l2.2-105.96c.05-2.33-1.8-4.26-4.13-4.3Z"/>
      <path class="cls-1" d="M238.08,0v93.4h126.44V0h-126.44ZM356.08,45.4h-18.82v-16.63h18.82v16.63ZM333.88,45.4h-19.66v-16.63h19.66v16.63ZM291.18,45.4v-16.63h19.67v16.63h-19.67ZM310.84,48.78v17.26h-19.67v-17.26h19.67ZM314.22,25.39V8.44h19.66v16.96h-19.66ZM310.84,25.39h-19.67V8.44h19.67v16.96ZM287.8,25.39h-19.67V8.44h19.67v16.96ZM287.8,28.77v16.63h-19.67v-16.63h19.67ZM264.76,45.4h-18.24v-16.63h18.24v16.63ZM246.52,48.78h18.24v17.26h-18.24v-17.26ZM268.14,48.78h19.67v17.26h-19.67v-17.26ZM287.8,69.41v15.56h-19.67v-15.56h19.67ZM291.18,69.41h19.67v15.56h-19.67v-15.56ZM314.22,69.41h19.66v15.56h-19.66v-15.56ZM314.22,66.03v-17.26h19.66v17.26h-19.66ZM337.26,48.78h18.82v17.26h-18.82v-17.26ZM356.08,25.39h-18.82V8.44h18.82v16.96ZM264.76,8.44v16.96h-18.24V8.44h18.24ZM246.52,69.41h18.24v15.56h-18.24v-15.56ZM337.26,84.97v-15.56h18.82v15.56h-18.82Z"/>
      <path class="cls-1" d="M194.01,67.09l-6.4-6.4-5.97-5.97-5.97,5.97-17.73,17.73c-7.41-8.33-18.21-13.58-30.23-13.58-22.35,0-40.46,18.12-40.46,40.46s18.12,40.46,40.46,40.46,40.46-18.12,40.46-40.46c0-.15-.01-.29-.01-.44l25.84-25.84,5.97-5.96h0l-5.96-5.97ZM133.14,127.96l-31.15-31.15,6.4-6.4,24.75,24.75,48.51-48.5,6.4,6.4-54.91,54.9Z"/>
      <path class="cls-1" d="M596.33,178.89c-.55-.7-1.32-1.18-2.16-1.42-.32-.73-.83-1.38-1.54-1.85l-5.6-3.71c-1.73-1.15-3.81-1.55-5.86-1.14-2.05.41-3.81,1.6-4.95,3.33l-18.67,28.2c-1.15,1.74-1.55,3.82-1.14,5.86.42,2.04,1.6,3.8,3.33,4.95l5.6,3.71c.52.35,1.09.52,1.67.6.46.47,1.04.82,1.69,1.03.25.09,1.52.64,1.9,2.25.47,2.01.17,8.16-12.63,21.64-13.2,13.91-19.3,14.06-20.86,13.78-1.52-.28-2.08-1.46-2.15-1.59-.26-.75-.75-1.38-1.35-1.87-.12-.58-.35-1.15-.73-1.65l-3.99-5.4c-2.56-3.46-7.45-4.19-10.9-1.63l-27.19,20.12c-3.45,2.56-4.18,7.45-1.63,10.91l3.99,5.4c.47.64,1.09,1.08,1.77,1.36.3.69.76,1.31,1.4,1.77.17.12,10.87,7.57,25.82,7.56,9.25,0,20.12-2.85,31.11-12.05,2.36-1.97,4.38-3.55,6.33-5.07,4.67-3.64,9.09-7.08,16.24-14.61,7.14-7.53,10.32-12.08,13.69-16.9,1.41-2.02,2.87-4.11,4.72-6.56,22.78-30.31,2.28-56.75,2.07-57.02ZM564.95,206.43l17.96-27.14,4.46,2.96-18.61,26.7-3.81-2.52ZM522.51,251.15l2.8,3.79-26.03,19.53-2.94-3.97,26.16-19.36ZM587.51,230.84c-1.93,2.57-3.43,4.72-4.89,6.8-3.32,4.75-6.19,8.86-12.9,15.93-6.71,7.07-10.7,10.18-15.3,13.77-2.01,1.57-4.09,3.19-6.56,5.25-17.02,14.24-33.2,10.45-41.28,6.95l23.59-17.7c1.24,1.08,2.89,2.05,5.09,2.52,7.55,1.61,16.98-3.69,28.85-16.2,11.83-12.46,16.62-22.18,14.64-29.7-.58-2.22-1.65-3.87-2.81-5.07l16.84-24.16c3.81,7.8,8.23,23.63-5.27,41.6Z"/>
      <path class="cls-1" d="M416.26,87.3v72.09h102.26v-72.09h-102.26ZM507.01,95.74l-39.61,29.44-39.61-29.44h79.23ZM424.7,150.95v-46.99l42.7,31.73,42.7-31.73v46.99h-85.39Z"/>
      <path class="cls-1" d="M22.8,206.49h48.76c.93,0,1.69-.75,1.69-1.69s-.75-1.69-1.69-1.69H22.8c-.93,0-1.69.75-1.69,1.69s.75,1.69,1.69,1.69Z"/>
      <path class="cls-1" d="M22.8,197.22h48.76c.93,0,1.69-.75,1.69-1.69s-.75-1.69-1.69-1.69H22.8c-.93,0-1.69.75-1.69,1.69s.75,1.69,1.69,1.69Z"/>
      <path class="cls-1" d="M92.03,260.1v-89.71H15.83c-8.73,0-15.83,7.1-15.83,15.83v79.92c0,8.19,7.1,14.86,15.83,14.86h75.99v-8.44h-4.14v-12.46h4.35ZM8.44,186.22c0-4.08,3.32-7.39,7.39-7.39h67.77v72.84H15.83c-2.69,0-5.2.58-7.39,1.62v-67.06ZM79.24,272.57H15.83c-4.01,0-7.39-2.94-7.39-6.43,0-3.73,3.84-6.04,7.39-6.04h63.41v12.46Z"/>
    </g>
  </g>
</svg>