<?xml version="1.0" encoding="UTF-8"?>
<svg id="Layer_1" xmlns="http://www.w3.org/2000/svg" version="1.1" viewBox="0 0 283.5 283.5">
  <!-- Generator: Adobe Illustrator 29.1.0, SVG Export Plug-In . SVG Version: 2.1.0 Build 142)  -->
  <defs>
    <style>
      .st0 {
        stroke-dasharray: 6.4 6.4;
      }

      .st0, .st1, .st2, .st3 {
        fill: none;
        stroke: #fff;
      }

      .st0, .st2, .st3 {
        stroke-miterlimit: 10;
      }

      .st0, .st3 {
        stroke-width: 2px;
      }

      .st1 {
        stroke-linejoin: round;
      }

      .st1, .st2 {
        stroke-linecap: round;
        stroke-width: 5px;
      }
    </style>
  </defs>
  <rect class="st2" x="45.3" y="97.4" width="146.4" height="98"/>
  <rect class="st2" x="37.3" y="88.1" width="143.4" height="96"/>
  <polyline class="st1" points="208.1 154.9 213.3 169.5 218.5 154.9"/>
  <path class="st1" d="M208.1,100.5v53.9c0,1.6,2.3,3,5.2,3s5.2-1.3,5.2-3v-53.9"/>
  <line class="st1" x1="213.2" y1="163.9" x2="213.2" y2="165.8"/>
  <path class="st1" d="M218.5,100.7c0,1.6-2.3,3-5.2,3s-5.2-1.3-5.2-3,2.3-3,5.2-3,5.2,1.3,5.2,3Z"/>
  <polyline class="st1" points="227.7 154.9 232.9 169.5 238.1 154.9"/>
  <path class="st1" d="M227.7,100.5v53.9c0,1.6,2.3,3,5.2,3s5.2-1.3,5.2-3v-53.9"/>
  <line class="st1" x1="232.8" y1="163.9" x2="232.8" y2="165.8"/>
  <path class="st1" d="M238.1,100.7c0,1.6-2.3,3-5.2,3s-5.2-1.3-5.2-3,2.3-3,5.2-3,5.2,1.3,5.2,3Z"/>
  <polyline class="st1" points="240.9 106.9 246.2 106.9 246.2 130.6"/>
  <polyline class="st3" points="121.6 168.2 121.6 171.2 118.6 171.2"/>
  <line class="st0" x1="112.2" y1="171.2" x2="63.9" y2="171.2"/>
  <polyline class="st3" points="60.7 171.2 57.7 171.2 57.7 168.2"/>
  <line class="st0" x1="57.7" y1="161.8" x2="57.7" y2="113.5"/>
  <polyline class="st3" points="57.7 110.3 57.7 107.3 60.7 107.3"/>
  <line class="st0" x1="67.1" y1="107.3" x2="115.4" y2="107.3"/>
  <polyline class="st3" points="118.6 107.3 121.6 107.3 121.6 110.3"/>
  <line class="st0" x1="121.6" y1="116.7" x2="121.6" y2="165"/>
  <polygon class="st3" points="138.9 109.3 170 163 107.8 163 138.9 109.3"/>
</svg>