<?xml version="1.0" encoding="UTF-8"?>
<svg id="Layer_1" xmlns="http://www.w3.org/2000/svg" version="1.1" viewBox="0 0 283.5 283.5">
  <!-- Generator: Adobe Illustrator 29.1.0, SVG Export Plug-In . SVG Version: 2.1.0 Build 142)  -->
  <defs>
    <style>
      .st0 {
        fill: #fff;
      }
    </style>
  </defs>
  <path class="st0" d="M168.1,152.1l-3.7,3.7-5.5-5.5c14.4-19.5,12.9-47.2-4.7-64.8-9.4-9.4-21.9-14.6-35.2-14.6h0c-13.3,0-25.7,5.2-35.1,14.6-9.4,9.4-14.6,21.9-14.6,35.2,0,13.3,5.2,25.8,14.6,35.1,9.4,9.4,21.9,14.6,35.2,14.6h0c10.8,0,21.1-3.4,29.6-9.8l5.5,5.5-3.8,3.8,49.1,49.1,17.8-17.8-49.1-49.1ZM118.9,165.4c-11.9,0-23.2-4.7-31.7-13.1-8.5-8.4-13.1-19.6-13.1-31.6,0-11.9,4.7-23.2,13.1-31.7,8.4-8.5,19.6-13.1,31.5-13.1h0c11.9,0,23.2,4.7,31.7,13.1,17.4,17.4,17.4,45.8,0,63.3-8.4,8.4-19.6,13.1-31.5,13.1h0Z"/>
</svg>