<?xml version="1.0" encoding="UTF-8"?>
<svg id="Layer_1" xmlns="http://www.w3.org/2000/svg" version="1.1" viewBox="0 0 198.4 198.4">
  <!-- Generator: Adobe Illustrator 29.1.0, SVG Export Plug-In . SVG Version: 2.1.0 Build 142)  -->
  <defs>
    <style>
      .st0 {
        fill: #fff;
      }
    </style>
  </defs>
  <path class="st0" d="M131.7,64.1H41.3v61.6h3.1v4.7h92.3v-62.8h-4.9s0-3.5,0-3.5ZM44.3,67.1h84.4v55.5H44.3s0-55.5,0-55.5ZM133.6,70.6v56.7H47.4v-1.7h84.3v-55h1.9Z"/>
  <path class="st0" d="M148.4,67.7c-2.4,0-4.3,1.2-4.6,2.8,0,.1,0,.3,0,.4v32.9h0c0,.3,0,.6,0,.8l3.2,8.9c.2.6.8,1,1.4,1s1.2-.4,1.4-1l3.2-8.9c0-.2.1-.4,0-.6h0v-33c0-.1,0-.3,0-.4-.3-1.6-2.2-2.8-4.6-2.8h0ZM148.5,108.1c0,0-.1,0-.2,0h0l-.3-.9c.1,0,.3,0,.5,0s.3,0,.5,0l-.3.9h0ZM150,103.7c-.2.2-.8.4-1.7.4s-1.5-.3-1.7-.4v-29.4c.5.1,1.1.2,1.7.2s1.1,0,1.7-.2c0,0,0,29.5,0,29.5ZM148.4,70.8c.7,0,1.2.2,1.4.3-.3.2-.8.3-1.4.3s-1.2-.2-1.4-.3c.3-.1.8-.3,1.4-.3h0Z"/>
  <path class="st0" d="M165.9,73.3h-1.9v-2.2c0-1.9-2-3.3-4.7-3.3s-4.7,1.4-4.7,3.3v32.9h0c0,.2,0,.4,0,.5h0c0,0,0,.2,0,.2l1.9,7c.1.6.6.9,1.1,1.1,0,.8.7,1.5,1.5,1.5s1.5-.7,1.5-1.5c.6-.1,1-.5,1.2-1.1l1.9-7s0,0,0-.1h0c0-.2,0-.4,0-.5h0v-27.7h.4v13c0,.8.7,1.5,1.5,1.5s1.5-.7,1.5-1.5v-14.5c0-.8-.7-1.5-1.5-1.5h0ZM160.9,103.8c-.2.2-.8.4-1.7.4s-1.5-.3-1.7-.4v-29.6c.5.1,1.1.2,1.7.2s1.1,0,1.7-.2v29.6ZM159.3,109.8h0l-.7-2.5c.2,0,.5,0,.7,0s.5,0,.7,0l-.7,2.5h0ZM159.3,70.8c.7,0,1.2.2,1.4.3-.3.2-.8.3-1.4.3s-1.2-.2-1.4-.3c.3-.1.8-.3,1.4-.3h0Z"/>
  <polygon class="st0" points="91.8 113.5 90.6 113.5 90.6 114.7 93.1 114.7 93.1 112.3 91.8 112.3 91.8 113.5"/>
  <rect class="st0" x="67.1" y="113.5" width="3.9" height="1.2"/>
  <rect class="st0" x="59.2" y="113.5" width="3.9" height="1.2"/>
  <rect class="st0" x="74.9" y="113.5" width="3.9" height="1.2"/>
  <rect class="st0" x="82.8" y="113.5" width="3.9" height="1.2"/>
  <polygon class="st0" points="54.1 112.3 52.9 112.3 52.9 114.7 55.3 114.7 55.3 113.5 54.1 113.5 54.1 112.3"/>
  <rect class="st0" x="52.9" y="104.4" width="1.2" height="3.9"/>
  <rect class="st0" x="52.9" y="96.6" width="1.2" height="3.9"/>
  <rect class="st0" x="52.9" y="80.9" width="1.2" height="3.9"/>
  <rect class="st0" x="52.9" y="88.7" width="1.2" height="3.9"/>
  <polygon class="st0" points="52.9 76.9 54.1 76.9 54.1 75.7 55.3 75.7 55.3 74.5 52.9 74.5 52.9 76.9"/>
  <rect class="st0" x="74.9" y="74.5" width="3.9" height="1.2"/>
  <rect class="st0" x="67.1" y="74.5" width="3.9" height="1.2"/>
  <rect class="st0" x="82.8" y="74.5" width="3.9" height="1.2"/>
  <rect class="st0" x="59.2" y="74.5" width="3.9" height="1.2"/>
  <polygon class="st0" points="91.8 76.9 93.1 76.9 93.1 74.5 90.6 74.5 90.6 75.7 91.8 75.7 91.8 76.9"/>
  <rect class="st0" x="91.8" y="80.9" width="1.2" height="3.9"/>
  <rect class="st0" x="91.8" y="104.4" width="1.2" height="3.9"/>
  <path class="st0" d="M93.1,92.3v-3.6h-1.2v3.9h1l-9.9,17.1h40l-20-34.6-9.9,17.2h0ZM85.1,108.5l6.7-11.7v3.6h1.2v-3.9h-1.1l11-19,17.9,31h-35.8Z"/>
</svg>