<?xml version="1.0" encoding="UTF-8"?>
<svg id="Layer_1" xmlns="http://www.w3.org/2000/svg" version="1.1" viewBox="0 0 198.4 198.4">
  <!-- Generator: Adobe Illustrator 29.1.0, SVG Export Plug-In . SVG Version: 2.1.0 Build 142)  -->
  <defs>
    <style>
      .st0 {
        fill: #fff;
      }
    </style>
  </defs>
  <path class="st0" d="M96,87.6c-5.1,0-9.3,4.2-9.3,9.3s4.2,9.3,9.3,9.3,9.3-4.2,9.3-9.3-4.2-9.3-9.3-9.3ZM96,103.2c-3.4,0-6.2-2.8-6.2-6.2s2.8-6.2,6.2-6.2,6.2,2.8,6.2,6.2-2.8,6.2-6.2,6.2Z"/>
  <path class="st0" d="M151.7,71.3c.4-1.9.4-4,0-5.9h-4.2c-.2-.7-.5-1.4-.8-2l2.9-2.9c-1.1-1.7-2.5-3.1-4.2-4.2l-2.9,2.9c-.6-.3-1.3-.6-2-.8v-4.2c-2-.4-4-.4-5.9,0v4.2c-.7.2-1.4.5-2,.8l-2.9-2.9c-1.7,1.1-3.1,2.5-4.2,4.2l2.9,2.9c-.3.6-.6,1.3-.8,2h-4.2c-.3,1.2-.3,2.5-.3,3.7-.9-.9-1.9-1.8-2.9-2.6l-1.2-.9-5.4,6.2-3.9-2.3,2.7-7.9-1.3-.5c-3-1.2-6.1-2.1-9.3-2.6l-1.4-.2-1.6,8.3h-4.6l-1.6-8.4-1.4.2c-3.2.4-6.4,1.2-9.4,2.4l-1.4.5,2.8,8.2-3.9,2.3-5.7-6.6-1.1.9c-2.6,2-4.9,4.3-6.9,6.8l-.9,1.2,6.7,5.8-2.3,3.9-8.4-2.9-.5,1.3c-1.2,3-2.1,6.2-2.5,9.4l-.2,1.4,8.7,1.7v4.6l-8.7,1.7.2,1.4c.5,3.2,1.3,6.4,2.5,9.4l.5,1.3,8.4-2.9,2.3,3.9-6.7,5.8.9,1.2c2,2.5,4.3,4.8,6.9,6.8l1.1.9,5.7-6.6,3.9,2.3-2.8,8.2,1.4.5c3,1.2,6.2,2,9.3,2.4l1.4.2,1.6-8.4h4.6l1.6,8.3,1.4-.2c3.2-.5,6.3-1.3,9.3-2.6l1.3-.6-2.7-7.9,3.9-2.3,5.4,6.2,1.2-.9c2.5-2,4.8-4.3,6.7-6.8l.9-1.1-6.2-5.3,2.3-3.9,7.7,2.7.5-1.3c1.2-3,2-6.1,2.4-9.3l.2-1.4-7.9-1.5v-4.6l7.9-1.5-.2-1.4c-.4-3.2-1.2-6.3-2.4-9.3l-.5-1.3-7.7,2.7-2.3-3.9,3.9-3.4c1.1,1.6,2.5,3,4.1,4l2.9-2.9c.6.3,1.3.6,2,.8v4.2c1.9.4,4,.4,5.9,0v-4.2c.7-.2,1.4-.5,2-.8l2.9,2.9c1.7-1.1,3.1-2.5,4.2-4.2l-2.9-2.9c.4-.6.6-1.3.8-2h4.2ZM117.6,79.2l4.8,8.3,7.3-2.5c.7,1.9,1.2,3.8,1.5,5.8l-7.6,1.4v9.6l7.6,1.4c-.4,1.9-.9,3.9-1.5,5.8l-7.3-2.5-4.8,8.3,5.9,5.1c-1.3,1.5-2.7,2.9-4.2,4.2l-5.1-5.9-8.3,4.8,2.6,7.5c-1.9.7-3.8,1.2-5.8,1.6l-1.5-7.9h-9.6l-1.5,8c-2-.3-3.9-.8-5.8-1.5l2.7-7.8-8.3-4.8-5.5,6.3c-1.6-1.3-3-2.7-4.3-4.2l6.3-5.5-4.8-8.3-8,2.8c-.7-1.9-1.2-3.9-1.6-5.8l8.3-1.6v-9.6l-8.3-1.6c.4-2,.9-3.9,1.6-5.8l8,2.8,4.8-8.3-6.3-5.5c1.3-1.5,2.8-3,4.3-4.2l5.4,6.3,8.3-4.8-2.7-7.8c1.9-.7,3.9-1.2,5.8-1.5l1.5,8h9.6l1.5-7.9c2,.4,3.9.9,5.8,1.6l-2.6,7.5,8.3,4.8,5.1-5.9c1.5,1.3,2.9,2.7,4.2,4.2l-5.9,5.1h0ZM127.4,74.2l-.6-.8c-.5-.7-1.1-1.4-1.7-2.1h2.3c.2.7.5,1.4.8,2l-.8.8h0ZM137.5,71.5c-1.7,0-3.1-1.4-3.1-3.1s1.4-3.1,3.1-3.1,3.1,1.4,3.1,3.1-1.4,3.1-3.1,3.1Z"/>
</svg>