<?xml version="1.0" encoding="UTF-8"?>
<svg id="Layer_1" xmlns="http://www.w3.org/2000/svg" version="1.1" viewBox="0 0 198.4 198.4">
  <!-- Generator: Adobe Illustrator 29.1.0, SVG Export Plug-In . SVG Version: 2.1.0 Build 142)  -->
  <defs>
    <style>
      .st0 {
        fill: #fff;
      }
    </style>
  </defs>
  <path class="st0" d="M90.9,59h-6.9v-6.9h-50.2v69.2h6.9v6.9h7.6v6.9h50.2v-69.2h-7.6s0-6.9,0-6.9ZM37.1,117.9v-62.6h43.6v3.6h-40v59h-3.6ZM44,124.8v-62.6h43.6v3.6h-39.3v59s-4.3,0-4.3,0ZM95.2,131.7h-43.6v-62.6h43.6v62.6Z"/>
  <path class="st0" d="M80.3,103.4h-25c-.4,0-.7.3-.7.7s.3.7.7.7h25c.4,0,.7-.3.7-.7s-.3-.7-.7-.7Z"/>
  <path class="st0" d="M80.3,106.5h-25c-.4,0-.7.3-.7.7s.3.7.7.7h25c.4,0,.7-.3.7-.7s-.3-.7-.7-.7Z"/>
  <path class="st0" d="M80.3,109.5h-25c-.4,0-.7.3-.7.7s.3.7.7.7h25c.4,0,.7-.3.7-.7s-.3-.7-.7-.7Z"/>
  <path class="st0" d="M80.3,115.6h-25c-.4,0-.7.3-.7.7s.3.7.7.7h25c.4,0,.7-.3.7-.7s-.3-.7-.7-.7Z"/>
  <path class="st0" d="M80.3,118.6h-25c-.4,0-.7.3-.7.7s.3.7.7.7h25c.4,0,.7-.3.7-.7s-.3-.7-.7-.7Z"/>
  <path class="st0" d="M54.3,101.4h37.3v-28.1h-37.3s0,28.1,0,28.1ZM55.7,74.6h34.7v25.5h-34.7v-25.5Z"/>
  <path class="st0" d="M86.9,89.6h-2.7c-.1-.1-.2-.1-.3,0l-.7.3-.7-.3c0,0-.2,0-.2,0h-.9l-.9-.2c-.2,0-.3,0-.5,0-.2,0-.3.2-.3.4l-1,4.2v.4c0,0-.7-4.3-.7-4.3,0-.3-.3-.6-.7-.6h-.9l-.9-.2c-.2,0-.3,0-.5,0l-.6.4-.6-.4c-.2-.1-.4-.2-.6-.1l-.7.2-.8-.4c-.2-.1-.5,0-.7,0l-.7.5-.6-.2c0,0-.2,0-.3,0h-.8c0,0-.8-.3-.8-.3-.2,0-.3,0-.5,0l-.8.3h-.8c0,0-.1,0-.2,0h-.8c0,0-.8-.3-.8-.3-.2,0-.3,0-.5,0l-1,.4c-.2,0-.4.2-.4.5l-.3,1.5-.3-1.3c0-.2-.2-.3-.3-.4l-1-.6c-.2,0-.3-.1-.5,0l-1,.2c-.3,0-.6.4-.5.8,0,.3.5.6.8.5l.7-.2.5.3.9,3.7c0,.3.3.5.7.5s.6-.2.6-.5l.9-3.8h.4c0-.1.7.2.7.2.1,0,.2,0,.4,0h.9c0-.1.9,0,.9,0,0,0,.2,0,.3,0l.7-.3.7.3c.1,0,.2,0,.4,0h.8c0,0,.8.2.8.2.2,0,.4,0,.6,0l.7-.5.6.3c.1,0,.3,0,.4,0l.7-.2.7.5c.2.2.5.2.7,0l.7-.5.7.2c0,0,0,0,.2,0h.4l.9,7c0,.3.3.6.6.6h0c.3,0,.6-.2.6-.5l1-3.6.8-3.6h.3c0,0,.1,0,.2,0h.8l.9.3c.2,0,.3,0,.5,0l.8-.3h.8c0,0,0,0,0,0h1.8c.4,0,.7-.3.7-.7s-.3-.7-.7-.7h0Z"/>
  <path class="st0" d="M87.3,79c-.3-.1-.7,0-.8.4l-.8,2.2h-.1l-.8-1.6c0-.2-.2-.3-.4-.3l-1-.4c0,0-.2,0-.3,0h-1c-.2.2-.4.3-.5.5l-.6,1.3-.3-.3c-.2-.2-.4-.2-.7-.2-.2,0-.4.3-.4.5l-.7,4.7-.5-4.7c0-.4-.4-.6-.7-.6h-1.3c0,.1-.1.1-.2.2l-.9.3h-.4c0,.1-.7-1.1-.7-1.1-.1-.2-.3-.3-.5-.3-.2,0-.4,0-.6.3l-.6.8-.4-.3c-.2-.1-.4-.1-.6,0-.2,0-.3.2-.4.4l-.3,1.1-.4-1.9c0-.2-.2-.4-.4-.5s-.4,0-.6,0l-.8.5h-1.8c-.2,0-.4.1-.6.3l-.6.9-.4-.3c-.1,0-.3-.1-.5-.1h-.8c0,0-.8-.3-.8-.3-.2,0-.4,0-.6,0-.2,0-.3.3-.3.5l-.6,3.1v-.2c-.1,0-.2,0-.2-.1l-1-1.2c-.1-.2-.3-.2-.5-.2h-1c-.4,0-.7.3-.7.7s.3.7.7.7h.7l.7.9.9,2c.1.3.4.4.7.4.3,0,.5-.2.6-.5l.8-4.2h.2c.1.2.2.2.4.2h.7c0,0,.8.5.8.5.2.1.3.2.5.1.2,0,.3-.1.4-.3l.8-1.2h1.6c.1,0,.2,0,.3,0h.2c0-.1.8,3.7.8,3.7,0,.3.3.5.6.5.3,0,.6-.2.7-.5l.8-3h.2c.3.3.7.2.9,0l.4-.5.5.8c.2.2.4.4.7.3l1-.2s0,0,0,0l.9-.3h.6c0,0,.9,8.1.9,8.1,0,.3.3.6.6.6h0c.3,0,.6-.2.6-.5l.6-2.5.8-5.1h0c.2.2.4.3.6.2.2,0,.4-.2.5-.4l.8-1.8h.4c0,0,.6.2.6.2l.9,1.8c.1.3.4.4.7.4h1c.2-.2.4-.3.5-.5l1-2.5c.1-.3,0-.7-.4-.8h0Z"/>
  <path class="st0" d="M136.4,72.4c-8.4,0-15.2,6.8-15.2,15.2s.9,6,2.6,8.5l.3.5c1.1,1.6,2.9,4.3,2.9,8.4s.7,2.4,1.7,3v.9c0,.5.1.9.4,1.3-.2.4-.4.8-.4,1.3s.1.9.4,1.3c-.2.4-.4.8-.4,1.3,0,.8.4,1.6,1,2.1v.3c0,.5.2.9.5,1.2l2.3,2.1c.3.3.7.4,1.1.4h5.6c.4,0,.8-.2,1.1-.4l2.3-2.1c.3-.3.5-.8.5-1.2v-.3c.6-.5,1-1.2,1-2.1s-.1-.9-.4-1.3c.2-.4.4-.8.4-1.3s-.1-.9-.4-1.3c.2-.4.4-.8.4-1.3v-.9c1-.6,1.7-1.8,1.7-3,0-4.1,1.8-6.8,2.9-8.4l.3-.4c1.7-2.5,2.6-5.5,2.6-8.5,0-8.4-6.8-15.2-15.2-15.2h0ZM146.2,94.3l-.3.4c-1.2,1.8-3.4,5.2-3.4,10.3s-.1.3-.3.3h-11.7c-.2,0-.3-.1-.3-.3,0-5.1-2.2-8.5-3.4-10.3l-.3-.4c-1.3-2-2-4.3-2-6.7,0-6.6,5.3-11.9,11.9-11.9s11.9,5.3,11.9,11.9-.7,4.7-2.1,6.7h0Z"/>
  <path class="st0" d="M167.3,88.1h-8.8c-.4,0-.7.3-.7.7s.3.7.7.7h8.8c.4,0,.7-.3.7-.7s-.3-.7-.7-.7Z"/>
  <path class="st0" d="M136.4,67.2c.4,0,.7-.3.7-.7v-8.6c0-.4-.3-.7-.7-.7s-.7.3-.7.7v8.6c0,.4.3.7.7.7Z"/>
  <path class="st0" d="M153.4,73.4c.2,0,.3,0,.5-.2l6.1-6.1c.3-.3.3-.7,0-.9s-.7-.3-.9,0l-6.1,6.1c-.3.3-.3.7,0,.9.1.1.3.2.5.2h0Z"/>
  <path class="st0" d="M152.6,103.1c-.3-.3-.7-.3-.9,0s-.3.7,0,.9l5.3,5.3c.1.1.3.2.5.2s.3,0,.5-.2c.3-.3.3-.7,0-.9l-5.3-5.3h0Z"/>
  <path class="st0" d="M119.1,73.5c.1.1.3.2.5.2s.3,0,.5-.2c.3-.3.3-.7,0-.9l-6.3-6.3c-.3-.3-.7-.3-.9,0s-.3.7,0,.9l6.3,6.3h0Z"/>
  <path class="st0" d="M120.3,102.9l-5.5,5.5c-.3.3-.3.7,0,.9.1.1.3.2.5.2s.3,0,.5-.2l5.5-5.5c.3-.3.3-.7,0-.9s-.7-.3-.9,0h0Z"/>
  <path class="st0" d="M115.2,88.8c0-.4-.3-.7-.7-.7h-9.2c-.4,0-.7.3-.7.7s.3.7.7.7h9.2c.4,0,.7-.3.7-.7Z"/>
</svg>