<?xml version="1.0" encoding="UTF-8"?>
<svg version="1.1" xmlns="http://www.w3.org/2000/svg" width="1635" height="1256">
<path d="M0 0 C14.63375746 11.13393574 25.30326412 26.98974012 28.46875 45.34375 C30.30119013 61.06299548 30.30119013 61.06299548 26.73046875 65.9375 C23.30208146 68.49055437 20.9760675 68.6667807 16.79296875 69.125 C16.8029615 70.36622368 16.8029615 70.36622368 16.81315613 71.63252258 C16.87354197 79.47276922 16.91908179 87.31293651 16.94840527 95.15336323 C16.96398812 99.18315453 16.98508941 103.21275191 17.01928711 107.24243164 C17.05214659 111.13929814 17.0698771 115.03597939 17.07760048 118.93297386 C17.08309672 120.41156106 17.09382798 121.89013939 17.11015892 123.36864662 C17.26808709 138.27426042 14.88051665 150.51665404 4.66796875 161.875 C0.34314835 165.96657166 -7.09511958 171.125 -13.20703125 171.125 C-13.20703125 178.055 -13.20703125 184.985 -13.20703125 192.125 C-9.90703125 192.785 -6.60703125 193.445 -3.20703125 194.125 C-0.33543813 194.92911349 2.49780322 195.7594248 5.33764648 196.65942383 C6.12788712 196.90527725 6.91812775 197.15113068 7.73231506 197.4044342 C9.4309094 197.93361175 11.12878407 198.46510406 12.82598686 198.9987278 C15.53154783 199.84931786 18.23902569 200.69354572 20.94703674 201.53630066 C26.70995173 203.33105326 32.47030274 205.13394791 38.23046875 206.9375 C44.88438465 209.02007672 51.53937454 211.09913479 58.19639778 213.17175865 C60.82862106 213.99287788 63.45920088 214.81910383 66.08970642 215.64570618 C75.20003684 218.49235212 84.3187866 221.15151137 93.59350491 223.41650867 C99.53374164 224.90677489 104.2418338 226.90991931 108.79296875 231.125 C109.50710938 231.78371094 110.22125 232.44242188 110.95703125 233.12109375 C134.48359323 257.11818697 120.79296875 312.91490886 120.79296875 333.125 C214.18296875 333.125 307.57296875 333.125 403.79296875 333.125 C403.79296875 484.595 403.79296875 636.065 403.79296875 792.125 C295.55296875 792.125 187.31296875 792.125 75.79296875 792.125 C76.45296875 797.075 77.11296875 802.025 77.79296875 807.125 C78.13489778 810.24456522 78.4635409 813.35752729 78.75479126 816.48121643 C78.8340876 817.30650988 78.91338395 818.13180333 78.99508321 818.98210567 C79.25411485 821.68516993 79.50916927 824.38859285 79.76416016 827.09204102 C79.95141009 829.05495914 80.13890179 831.01785421 80.32661438 832.98072815 C80.83119478 838.26494865 81.33221986 843.54950044 81.83240938 848.83413815 C82.35785844 854.38079464 82.88611203 859.92718418 83.41390991 865.47361755 C84.29849392 874.77429189 85.18069251 884.07519023 86.06152344 893.3762207 C87.07945591 904.12457568 88.10149626 914.87253428 89.12564147 925.62029892 C90.00673737 934.86797971 90.8856322 944.11586775 91.76268327 953.36393303 C92.28574786 958.87937186 92.8095697 964.39473589 93.33537674 969.90991402 C93.82878147 975.08652492 94.31942198 980.26339053 94.80792809 985.44046593 C94.98755171 987.33925685 95.16813619 989.23795716 95.34975243 991.13655853 C95.59748718 993.72801174 95.84173843 996.3197706 96.08511353 998.91163635 C96.1576773 999.66211717 96.23024108 1000.41259798 96.30500376 1001.18582064 C96.6760076 1005.18068307 96.86434267 1009.11326433 96.79296875 1013.125 C97.45296875 1013.16625 98.11296875 1013.2075 98.79296875 1013.25 C106.45215044 1015.48392799 110.85492754 1020.87639824 114.60546875 1027.6640625 C117.00723892 1032.64141515 117.79296875 1036.49879746 117.79296875 1042.125 C111.85296875 1042.125 105.91296875 1042.125 99.79296875 1042.125 C99.79296875 1042.785 99.79296875 1043.445 99.79296875 1044.125 C52.27296875 1044.125 4.75296875 1044.125 -44.20703125 1044.125 C-45.90990156 1040.71925938 -45.83819379 1036.82954633 -46.20045471 1033.07687378 C-46.29523084 1032.12778078 -46.39000697 1031.17868778 -46.4876551 1030.20083439 C-46.80617947 1027.0012772 -47.11900257 1023.80118772 -47.43188477 1020.60107422 C-47.65828947 1018.31506021 -47.88504325 1016.02908074 -48.11212158 1013.74313354 C-48.72923579 1007.52065752 -49.34143973 1001.29770687 -49.95279431 995.07466269 C-50.59191895 988.57741914 -51.23551521 982.08061866 -51.87864685 975.58377075 C-52.95802953 964.673774 -54.034637 953.76350663 -55.10913086 942.85302734 C-56.21599743 931.61391114 -57.32452732 920.37496106 -58.43530273 909.13623047 C-58.50374091 908.44377294 -58.57217908 907.75131541 -58.64269114 907.03787433 C-58.98602685 903.56410837 -59.32939535 900.09034565 -59.67278016 896.61658454 C-62.52261468 867.78655743 -65.36663717 838.95595868 -68.20703125 810.125 C-70.09891978 825.49762383 -71.85308189 840.87313703 -73.36767578 856.28735352 C-73.56331455 858.25835345 -73.75918391 860.22933051 -73.95526123 862.20028687 C-74.37086002 866.38274804 -74.78488066 870.56536103 -75.19757462 874.74810982 C-75.8507906 881.36854053 -76.50769007 887.98860286 -77.16500854 894.60862732 C-78.20337117 905.07057163 -79.23931332 915.53275392 -80.27419841 925.99504274 C-82.13121275 944.76813632 -83.99197894 963.54085808 -85.85429466 982.31342643 C-86.50663302 988.89018877 -87.15776022 995.46706955 -87.80787301 1002.04405224 C-88.21156519 1006.12635616 -88.6160746 1010.20857883 -89.02077484 1014.29078293 C-89.20777806 1016.17893749 -89.39442747 1018.06712714 -89.58069229 1019.95535469 C-89.83541568 1022.53714893 -90.09140407 1025.11881486 -90.34768677 1027.70045471 C-90.45697642 1028.81304204 -90.45697642 1028.81304204 -90.56847394 1029.94810587 C-90.67318723 1030.99911601 -90.67318723 1030.99911601 -90.78001595 1032.07135868 C-90.86813992 1032.96235975 -90.86813992 1032.96235975 -90.95804417 1033.87136084 C-91.33614961 1037.29367992 -91.77996196 1040.70844567 -92.20703125 1044.125 C-140.05703125 1044.125 -187.90703125 1044.125 -237.20703125 1044.125 C-237.20703125 1043.465 -237.20703125 1042.805 -237.20703125 1042.125 C-242.81703125 1042.125 -248.42703125 1042.125 -254.20703125 1042.125 C-254.20703125 1032.43530188 -251.7304994 1025.8986385 -245.08203125 1018.8203125 C-242.05140652 1016.08012264 -238.4474192 1013.125 -234.20703125 1013.125 C-234.14122612 1012.40926756 -234.07542099 1011.69353512 -234.00762177 1010.95611382 C-229.06476704 957.23419635 -223.97857012 903.52602971 -218.86328125 849.8203125 C-218.78140674 848.9606859 -218.69953223 848.1010593 -218.61517668 847.21538341 C-216.50133234 825.02190072 -214.38565989 802.82859243 -212.26935482 780.63534427 C-211.04078457 767.75140414 -209.81271041 754.8674168 -208.58496094 741.98339844 C-208.49745286 741.06508905 -208.40994478 740.14677966 -208.31978494 739.20064272 C-207.88042123 734.58993547 -207.44106552 729.97922746 -207.00171375 725.36851907 C-203.40472222 687.62056152 -199.80636077 649.87273468 -196.20703125 612.125 C-197.21080811 611.80249268 -198.21458496 611.47998535 -199.2487793 611.14770508 C-200.59301998 610.70940399 -201.93717218 610.2708315 -203.28125 609.83203125 C-203.93959839 609.62130981 -204.59794678 609.41058838 -205.27624512 609.19348145 C-224.14654946 603.00012102 -240.10244837 589.790066 -249.67578125 572.359375 C-255.35366853 560.36628657 -258.71895283 547.4349611 -258.20703125 534.125 C-258.86703125 534.125 -259.52703125 534.125 -260.20703125 534.125 C-260.29862604 498.24271438 -260.3690899 462.3604493 -260.41129257 426.4780708 C-260.41629528 422.23993764 -260.42147258 418.0018047 -260.42675781 413.76367188 C-260.42780705 412.919951 -260.4288563 412.07623012 -260.42993733 411.20694195 C-260.44733323 397.55312462 -260.47886642 383.8993748 -260.51564243 370.2455975 C-260.55307456 356.23113963 -260.5752719 342.21671707 -260.58338523 328.20221126 C-260.5888683 319.55744262 -260.60617376 310.9128648 -260.63869712 302.2681549 C-260.65987306 296.33673645 -260.66622434 290.40541635 -260.66103676 284.47396286 C-260.65847974 281.05394319 -260.66234482 277.6342565 -260.68385315 274.21429634 C-260.70379417 270.49970646 -260.69895426 266.78592879 -260.68804932 263.07131958 C-260.69970068 261.99930963 -260.71135205 260.92729967 -260.72335649 259.82280457 C-260.6411014 249.43570481 -257.33305711 240.75776548 -250.20703125 233.125 C-242.00805096 225.42105249 -232.93722329 223.18507319 -222.23828125 220.5859375 C-220.23223395 220.0908409 -218.22621314 219.59563694 -216.22021484 219.1003418 C-215.16114929 218.84022308 -214.10208374 218.58010437 -213.01092529 218.31210327 C-196.10477897 214.15654121 -179.22779896 209.89946262 -162.38671875 205.48828125 C-161.64339043 205.29358749 -160.9000621 205.09889374 -160.13420868 204.89830017 C-152.75430429 202.96425003 -145.37634916 201.02284931 -137.99993706 199.07552433 C-135.24732635 198.34921981 -132.49426966 197.62461518 -129.74115372 196.9002285 C-127.83212177 196.39703885 -125.9238494 195.89097032 -124.01559448 195.38484192 C-122.88042389 195.08599594 -121.7452533 194.78714996 -120.57568359 194.47924805 C-119.58224945 194.21645554 -118.58881531 193.95366302 -117.5652771 193.6829071 C-115.20703125 193.125 -115.20703125 193.125 -113.20703125 193.125 C-113.20887484 192.42669004 -113.21071842 191.72838009 -113.21261787 191.00890923 C-113.2569199 173.96310734 -113.28994737 156.9173202 -113.31065559 139.87147331 C-113.32093788 131.62799884 -113.33493944 123.38456297 -113.35791016 115.14111328 C-113.37793788 107.95033748 -113.3907698 100.75958966 -113.39520824 93.56878674 C-113.39779984 89.76657528 -113.40382653 85.9644438 -113.41849136 82.16225815 C-113.43222414 78.57211169 -113.43622276 74.98207697 -113.43324661 71.39190674 C-113.43404582 69.46943728 -113.4447243 67.54697954 -113.45587158 65.62454224 C-113.40338736 43.09093249 -107.83393966 23.79040549 -92.20703125 7.125 C-66.9727967 -17.25251671 -28.94423573 -19.3796903 0 0 Z M-17.20703125 16.125 C-15.801844 19.82286118 -14.12005297 23.25613966 -12.26953125 26.75 C-7.37361149 36.50610288 -5.659954 46.37337165 -4.20703125 57.125 C-3.45035156 56.49078125 -2.69367188 55.8565625 -1.9140625 55.203125 C0.93746513 53.01407349 3.35451237 52.08456922 6.79296875 51.125 C4.77865089 36.99471055 -1.95458478 27.30130146 -12.64453125 18 C-14.94683778 15.92816334 -14.94683778 15.92816334 -17.20703125 16.125 Z M-73.20703125 21.125 C-72.80871094 22.04539063 -72.41039062 22.96578125 -72 23.9140625 C-67.0385 35.65033913 -62.56604695 48.17452934 -64.20703125 61.125 C-65.44240098 64.15165585 -66.40708353 65.47319075 -68.89453125 67.5 C-72.46409164 68.46474605 -75.66642069 68.14283466 -79.20703125 67.125 C-83.15020103 64.09179248 -84.01542839 61.55477596 -84.671875 56.65625 C-84.91368923 54.62980681 -85.14695057 52.60291056 -85.36914062 50.57421875 C-85.79623234 47.05331635 -86.20168652 45.13301709 -88.20703125 42.125 C-91.36213266 49.87648467 -91.61782703 56.68621654 -91.54760742 64.99829102 C-91.5467597 66.37891115 -91.54723912 67.75953263 -91.54893494 69.14015198 C-91.54979067 72.86276138 -91.53223397 76.58507688 -91.51121306 80.30761838 C-91.49237533 84.20733706 -91.49069026 88.10706352 -91.48713684 92.00682068 C-91.47783712 99.38018986 -91.45325163 106.75342454 -91.42308837 114.12673467 C-91.38947957 122.52579721 -91.37304211 130.92486639 -91.35800207 139.3239795 C-91.32670004 156.59106394 -91.27398019 173.85801772 -91.20703125 191.125 C-86.73835887 191.72552386 -82.4074534 192.25053304 -77.89257812 192.23852539 C-76.45199036 192.23841209 -76.45199036 192.23841209 -74.9822998 192.23829651 C-73.46932312 192.23055458 -73.46932312 192.23055458 -71.92578125 192.22265625 C-70.87169067 192.2212413 -69.8176001 192.21982635 -68.73156738 192.21836853 C-65.39002554 192.21280508 -62.04855258 192.20025941 -58.70703125 192.1875 C-56.43099056 192.18248027 -54.1549488 192.1779182 -51.87890625 192.17382812 C-46.32156718 192.16370178 -40.76437564 192.1441193 -35.20703125 192.125 C-35.20703125 178.595 -35.20703125 165.065 -35.20703125 151.125 C-30.25703125 151.125 -25.30703125 151.125 -20.20703125 151.125 C-13.30980426 148.70164998 -10.02414865 145.50772915 -6.08840942 139.38470459 C-4.84243599 136.19023942 -4.96817223 133.39411682 -4.97998047 129.96972656 C-4.97968842 129.25713181 -4.97939636 128.54453705 -4.97909546 127.81034851 C-4.98048548 125.46198219 -4.99603103 123.11393569 -5.01171875 120.765625 C-5.01545005 119.13466566 -5.01829647 117.50370408 -5.02029419 115.8727417 C-5.02792145 111.58520289 -5.04756213 107.2978001 -5.06970215 103.01031494 C-5.09018013 98.63319743 -5.09930008 94.25605788 -5.109375 89.87890625 C-5.1308089 81.29420849 -5.16493386 72.70962118 -5.20703125 64.125 C-6.31473877 64.77855469 -7.42244629 65.43210937 -8.5637207 66.10546875 C-11.33749663 67.74201471 -13.11134251 68.6665569 -16.39453125 68.125 C-20.35204816 67.08696278 -21.81839615 66.37354374 -24.20703125 63.125 C-25.32700432 59.7650808 -25.59335356 56.71153684 -25.95703125 53.1875 C-27.40001312 41.40148619 -31.83213428 29.93907221 -41.421875 22.37890625 C-42.01097656 21.96511719 -42.60007813 21.55132812 -43.20703125 21.125 C-41.36914533 26.72414083 -39.35295602 32.25141924 -37.328125 37.78515625 C-35.41023398 43.49873404 -34.97154037 48.70645799 -34.89453125 54.6875 C-34.86552734 55.44224609 -34.83652344 56.19699219 -34.80664062 56.97460938 C-34.76595577 60.52671 -34.87994933 62.66967891 -36.98046875 65.59375 C-40.31776966 67.88887624 -43.19610111 68.34029844 -47.20703125 68.125 C-50.82793881 66.55069236 -51.99958409 65.43617074 -54.20703125 62.125 C-54.56587648 59.80104992 -54.84709968 57.4647267 -55.08203125 55.125 C-56.67628043 41.61292483 -62.01653346 31.08137261 -71.20703125 21.125 C-71.86703125 21.125 -72.52703125 21.125 -73.20703125 21.125 Z M50.79296875 316.125 C50.79296875 321.735 50.79296875 327.345 50.79296875 333.125 C55.74296875 333.125 60.69296875 333.125 65.79296875 333.125 C65.79296875 327.515 65.79296875 321.905 65.79296875 316.125 C60.84296875 316.125 55.89296875 316.125 50.79296875 316.125 Z M-205.20703125 329.125 C-205.20703125 396.775 -205.20703125 464.425 -205.20703125 534.125 C-215.43703125 534.125 -225.66703125 534.125 -236.20703125 534.125 C-236.20703125 551.13502638 -231.23790623 563.4434162 -219.6953125 575.80078125 C-212.88561648 582.16148633 -202.80046139 589.125 -193.20703125 589.125 C-192.49287337 582.05937221 -191.78102679 574.99351433 -191.07080078 567.92749023 C-190.82882282 565.52281394 -190.58631216 563.11819118 -190.34326172 560.71362305 C-189.9943725 557.26104383 -189.64738787 553.80827776 -189.30078125 550.35546875 C-189.13672791 548.73816109 -189.13672791 548.73816109 -188.96936035 547.08818054 C-188.86925659 546.08736954 -188.76915283 545.08655853 -188.66601562 544.05541992 C-188.57719116 543.17383713 -188.4883667 542.29225433 -188.39685059 541.38395691 C-188.16516398 539.00457564 -188.16516398 539.00457564 -188.20703125 536.125 C-109.00703125 536.125 -29.80703125 536.125 51.79296875 536.125 C51.79296875 539.095 51.79296875 542.065 51.79296875 545.125 C51.90338927 546.73329244 52.0407355 548.34053194 52.23046875 549.94140625 C52.32070313 550.72451172 52.4109375 551.50761719 52.50390625 552.31445312 C52.64699219 553.48911133 52.64699219 553.48911133 52.79296875 554.6875 C52.88835937 555.50541016 52.98375 556.32332031 53.08203125 557.16601562 C53.31441384 559.15288675 53.55302391 561.13902794 53.79296875 563.125 C54.12296875 563.125 54.45296875 563.125 54.79296875 563.125 C54.79296875 548.935 54.79296875 534.745 54.79296875 520.125 C53.47296875 520.125 52.15296875 520.125 50.79296875 520.125 C50.79296875 524.415 50.79296875 528.705 50.79296875 533.125 C-27.41703125 533.125 -105.62703125 533.125 -186.20703125 533.125 C-186.20703125 465.805 -186.20703125 398.485 -186.20703125 329.125 C-192.47703125 329.125 -198.74703125 329.125 -205.20703125 329.125 Z M50.79296875 355.125 C50.79296875 369.975 50.79296875 384.825 50.79296875 400.125 C146.82296875 400.125 242.85296875 400.125 341.79296875 400.125 C341.79296875 508.695 341.79296875 617.265 341.79296875 729.125 C252.03296875 729.125 162.27296875 729.125 69.79296875 729.125 C70.87157836 743.14692494 72.04862502 757.17025017 73.79296875 771.125 C175.76296875 771.125 277.73296875 771.125 382.79296875 771.125 C382.79296875 633.845 382.79296875 496.565 382.79296875 355.125 C273.23296875 355.125 163.67296875 355.125 50.79296875 355.125 Z M50.79296875 409.125 C50.79296875 425.295 50.79296875 441.465 50.79296875 458.125 C52.11296875 458.125 53.43296875 458.125 54.79296875 458.125 C54.79296875 441.955 54.79296875 425.785 54.79296875 409.125 C53.47296875 409.125 52.15296875 409.125 50.79296875 409.125 Z M63.79296875 409.125 C63.79296875 425.295 63.79296875 441.465 63.79296875 458.125 C78.97296875 458.125 94.15296875 458.125 109.79296875 458.125 C109.79296875 441.955 109.79296875 425.785 109.79296875 409.125 C94.61296875 409.125 79.43296875 409.125 63.79296875 409.125 Z M118.79296875 409.125 C118.79296875 425.295 118.79296875 441.465 118.79296875 458.125 C133.97296875 458.125 149.15296875 458.125 164.79296875 458.125 C164.79296875 441.955 164.79296875 425.785 164.79296875 409.125 C149.61296875 409.125 134.43296875 409.125 118.79296875 409.125 Z M173.79296875 409.125 C173.79296875 425.295 173.79296875 441.465 173.79296875 458.125 C188.97296875 458.125 204.15296875 458.125 219.79296875 458.125 C219.79296875 441.955 219.79296875 425.785 219.79296875 409.125 C204.61296875 409.125 189.43296875 409.125 173.79296875 409.125 Z M228.79296875 409.125 C228.79296875 425.295 228.79296875 441.465 228.79296875 458.125 C244.30296875 458.125 259.81296875 458.125 275.79296875 458.125 C275.79296875 441.955 275.79296875 425.785 275.79296875 409.125 C260.28296875 409.125 244.77296875 409.125 228.79296875 409.125 Z M284.79296875 409.125 C284.79296875 425.295 284.79296875 441.465 284.79296875 458.125 C300.63296875 458.125 316.47296875 458.125 332.79296875 458.125 C332.79296875 441.955 332.79296875 425.785 332.79296875 409.125 C316.95296875 409.125 301.11296875 409.125 284.79296875 409.125 Z M50.79296875 467.125 C50.79296875 481.645 50.79296875 496.165 50.79296875 511.125 C52.11296875 511.125 53.43296875 511.125 54.79296875 511.125 C54.79296875 496.605 54.79296875 482.085 54.79296875 467.125 C53.47296875 467.125 52.15296875 467.125 50.79296875 467.125 Z M63.79296875 467.125 C63.79296875 481.645 63.79296875 496.165 63.79296875 511.125 C78.97296875 511.125 94.15296875 511.125 109.79296875 511.125 C109.79296875 496.605 109.79296875 482.085 109.79296875 467.125 C94.61296875 467.125 79.43296875 467.125 63.79296875 467.125 Z M118.79296875 467.125 C118.79296875 481.645 118.79296875 496.165 118.79296875 511.125 C133.97296875 511.125 149.15296875 511.125 164.79296875 511.125 C164.79296875 496.605 164.79296875 482.085 164.79296875 467.125 C149.61296875 467.125 134.43296875 467.125 118.79296875 467.125 Z M173.79296875 467.125 C173.79296875 481.645 173.79296875 496.165 173.79296875 511.125 C188.97296875 511.125 204.15296875 511.125 219.79296875 511.125 C219.79296875 496.605 219.79296875 482.085 219.79296875 467.125 C204.61296875 467.125 189.43296875 467.125 173.79296875 467.125 Z M228.79296875 467.125 C228.79296875 481.645 228.79296875 496.165 228.79296875 511.125 C244.30296875 511.125 259.81296875 511.125 275.79296875 511.125 C275.79296875 496.605 275.79296875 482.085 275.79296875 467.125 C260.28296875 467.125 244.77296875 467.125 228.79296875 467.125 Z M284.79296875 467.125 C284.79296875 481.645 284.79296875 496.165 284.79296875 511.125 C300.63296875 511.125 316.47296875 511.125 332.79296875 511.125 C332.79296875 496.605 332.79296875 482.085 332.79296875 467.125 C316.95296875 467.125 301.11296875 467.125 284.79296875 467.125 Z M63.79296875 520.125 C63.79296875 534.315 63.79296875 548.505 63.79296875 563.125 C78.97296875 563.125 94.15296875 563.125 109.79296875 563.125 C109.79296875 548.935 109.79296875 534.745 109.79296875 520.125 C94.61296875 520.125 79.43296875 520.125 63.79296875 520.125 Z M118.79296875 520.125 C118.79296875 534.315 118.79296875 548.505 118.79296875 563.125 C133.97296875 563.125 149.15296875 563.125 164.79296875 563.125 C164.79296875 548.935 164.79296875 534.745 164.79296875 520.125 C149.61296875 520.125 134.43296875 520.125 118.79296875 520.125 Z M173.79296875 520.125 C173.79296875 534.315 173.79296875 548.505 173.79296875 563.125 C188.97296875 563.125 204.15296875 563.125 219.79296875 563.125 C219.79296875 548.935 219.79296875 534.745 219.79296875 520.125 C204.61296875 520.125 189.43296875 520.125 173.79296875 520.125 Z M228.79296875 520.125 C228.79296875 534.315 228.79296875 548.505 228.79296875 563.125 C244.30296875 563.125 259.81296875 563.125 275.79296875 563.125 C275.79296875 548.935 275.79296875 534.745 275.79296875 520.125 C260.28296875 520.125 244.77296875 520.125 228.79296875 520.125 Z M284.79296875 520.125 C284.79296875 534.315 284.79296875 548.505 284.79296875 563.125 C300.63296875 563.125 316.47296875 563.125 332.79296875 563.125 C332.79296875 548.935 332.79296875 534.745 332.79296875 520.125 C316.95296875 520.125 301.11296875 520.125 284.79296875 520.125 Z M63.79296875 572.125 C63.79296875 586.645 63.79296875 601.165 63.79296875 616.125 C78.97296875 616.125 94.15296875 616.125 109.79296875 616.125 C109.79296875 601.605 109.79296875 587.085 109.79296875 572.125 C94.61296875 572.125 79.43296875 572.125 63.79296875 572.125 Z M118.79296875 572.125 C118.79296875 586.645 118.79296875 601.165 118.79296875 616.125 C133.97296875 616.125 149.15296875 616.125 164.79296875 616.125 C164.79296875 601.605 164.79296875 587.085 164.79296875 572.125 C149.61296875 572.125 134.43296875 572.125 118.79296875 572.125 Z M173.79296875 572.125 C173.79296875 586.645 173.79296875 601.165 173.79296875 616.125 C188.97296875 616.125 204.15296875 616.125 219.79296875 616.125 C219.79296875 601.605 219.79296875 587.085 219.79296875 572.125 C204.61296875 572.125 189.43296875 572.125 173.79296875 572.125 Z M228.79296875 572.125 C228.79296875 586.645 228.79296875 601.165 228.79296875 616.125 C244.30296875 616.125 259.81296875 616.125 275.79296875 616.125 C275.79296875 601.605 275.79296875 587.085 275.79296875 572.125 C260.28296875 572.125 244.77296875 572.125 228.79296875 572.125 Z M284.79296875 572.125 C284.79296875 586.645 284.79296875 601.165 284.79296875 616.125 C300.63296875 616.125 316.47296875 616.125 332.79296875 616.125 C332.79296875 601.605 332.79296875 587.085 332.79296875 572.125 C316.95296875 572.125 301.11296875 572.125 284.79296875 572.125 Z M63.79296875 625.125 C63.79296875 639.645 63.79296875 654.165 63.79296875 669.125 C78.97296875 669.125 94.15296875 669.125 109.79296875 669.125 C109.79296875 654.605 109.79296875 640.085 109.79296875 625.125 C94.61296875 625.125 79.43296875 625.125 63.79296875 625.125 Z M118.79296875 625.125 C118.79296875 639.645 118.79296875 654.165 118.79296875 669.125 C133.97296875 669.125 149.15296875 669.125 164.79296875 669.125 C164.79296875 654.605 164.79296875 640.085 164.79296875 625.125 C149.61296875 625.125 134.43296875 625.125 118.79296875 625.125 Z M173.79296875 625.125 C173.79296875 639.645 173.79296875 654.165 173.79296875 669.125 C188.97296875 669.125 204.15296875 669.125 219.79296875 669.125 C219.79296875 654.605 219.79296875 640.085 219.79296875 625.125 C204.61296875 625.125 189.43296875 625.125 173.79296875 625.125 Z M228.79296875 625.125 C228.79296875 639.645 228.79296875 654.165 228.79296875 669.125 C244.30296875 669.125 259.81296875 669.125 275.79296875 669.125 C275.79296875 654.605 275.79296875 640.085 275.79296875 625.125 C260.28296875 625.125 244.77296875 625.125 228.79296875 625.125 Z M284.79296875 625.125 C284.79296875 639.645 284.79296875 654.165 284.79296875 669.125 C300.63296875 669.125 316.47296875 669.125 332.79296875 669.125 C332.79296875 654.605 332.79296875 640.085 332.79296875 625.125 C316.95296875 625.125 301.11296875 625.125 284.79296875 625.125 Z M64.79296875 678.125 C65.08171875 681.71375 65.37046875 685.3025 65.66796875 689 C65.7541748 690.08909668 65.84038086 691.17819336 65.92919922 692.30029297 C66.69243186 701.60914944 67.7598391 710.82683315 68.79296875 720.125 C82.32296875 720.125 95.85296875 720.125 109.79296875 720.125 C109.79296875 706.265 109.79296875 692.405 109.79296875 678.125 C94.94296875 678.125 80.09296875 678.125 64.79296875 678.125 Z M118.79296875 678.125 C118.79296875 691.985 118.79296875 705.845 118.79296875 720.125 C133.97296875 720.125 149.15296875 720.125 164.79296875 720.125 C164.79296875 706.265 164.79296875 692.405 164.79296875 678.125 C149.61296875 678.125 134.43296875 678.125 118.79296875 678.125 Z M173.79296875 678.125 C173.79296875 691.985 173.79296875 705.845 173.79296875 720.125 C188.97296875 720.125 204.15296875 720.125 219.79296875 720.125 C219.79296875 706.265 219.79296875 692.405 219.79296875 678.125 C204.61296875 678.125 189.43296875 678.125 173.79296875 678.125 Z M228.79296875 678.125 C228.79296875 691.985 228.79296875 705.845 228.79296875 720.125 C244.30296875 720.125 259.81296875 720.125 275.79296875 720.125 C275.79296875 706.265 275.79296875 692.405 275.79296875 678.125 C260.28296875 678.125 244.77296875 678.125 228.79296875 678.125 Z M284.79296875 678.125 C284.79296875 691.985 284.79296875 705.845 284.79296875 720.125 C300.63296875 720.125 316.47296875 720.125 332.79296875 720.125 C332.79296875 706.265 332.79296875 692.405 332.79296875 678.125 C316.95296875 678.125 301.11296875 678.125 284.79296875 678.125 Z " fill="#2E4F7E" transform="translate(260.20703125,211.875)"/>
<path d="M0 0 C14.04849806 11.04698583 24.05548853 26.84188799 26.71484375 44.6796875 C26.98861492 49.51830419 26.96849599 54.35108608 26.94189453 59.19555664 C26.94132946 60.64514152 26.94164885 62.09472697 26.94277954 63.54431152 C26.94335031 67.45486183 26.9316409 71.36528793 26.91763163 75.27580953 C26.90507808 79.37172763 26.90395014 83.467649 26.90158081 87.56358337 C26.89537958 95.30878297 26.87898723 103.05392571 26.85888183 110.79910034 C26.83648047 119.62138228 26.82551877 128.44366702 26.81549096 137.26597035 C26.79461972 155.40390823 26.75947028 173.54179328 26.71484375 191.6796875 C27.4221976 191.80266645 28.12955145 191.92564541 28.85834026 192.052351 C34.36065324 193.02749869 39.7789114 194.10976918 45.1887207 195.52392578 C45.85414886 195.69668533 46.51957703 195.86944489 47.20516968 196.04743958 C49.3721864 196.61108609 51.53765215 197.18045371 53.703125 197.75 C55.25212595 198.15429305 56.80121553 198.55824662 58.35038757 198.96188354 C62.42172548 200.02374122 66.49174343 201.09057564 70.56152344 202.15838623 C73.79706778 203.00643522 77.03352961 203.85094778 80.27005196 204.69525528 C97.16439296 209.1026384 114.04920554 213.54432955 130.91120911 218.07400513 C132.03129868 218.37426605 133.15138824 218.67452698 134.30541992 218.98388672 C135.90660172 219.41347687 135.90660172 219.41347687 137.54013062 219.85174561 C141.69075413 220.93419777 145.86256686 221.92141581 150.04194641 222.88650513 C158.30697317 225.33915209 164.89351883 230.61439487 169.71484375 237.6796875 C172.86228211 243.50436764 174.8408451 248.92465365 174.83789158 255.57597733 C174.83988263 256.56625907 174.84187368 257.55654082 174.84392506 258.5768311 C174.84101222 259.66242716 174.83809938 260.74802321 174.83509827 261.86651611 C174.83595269 263.02149558 174.83680712 264.17647504 174.83768743 265.36645389 C174.83905095 268.57267531 174.8359211 271.77885643 174.83090937 274.98507309 C174.82659457 278.44243112 174.82805203 281.89978725 174.82881165 285.35714722 C174.82933623 291.34738868 174.82619629 297.33761925 174.82057381 303.32785797 C174.81244991 311.98875795 174.80984267 320.64965265 174.80858582 329.31055602 C174.8063967 343.36198825 174.79974041 357.41341467 174.7902832 371.46484375 C174.78110546 385.11523408 174.7740264 398.76562283 174.76977539 412.41601562 C174.76951267 413.25729748 174.76924994 414.09857934 174.76897926 414.96535459 C174.76767423 419.18578014 174.76641052 423.4062057 174.76516736 427.62663126 C174.75479911 462.64432081 174.7371846 497.66200362 174.71484375 532.6796875 C174.05484375 532.6796875 173.39484375 532.6796875 172.71484375 532.6796875 C172.67617187 534.04287109 172.67617187 534.04287109 172.63671875 535.43359375 C171.59950404 558.41732884 163.21695327 576.9193384 146.52734375 592.8671875 C136.35138329 601.51586593 123.13394397 608.48687859 109.71484375 609.6796875 C110.04484375 610.6696875 110.37484375 611.6596875 110.71484375 612.6796875 C110.98172287 614.86481437 111.20389621 617.0554811 111.40341854 619.24778461 C111.49689266 620.25823964 111.49689266 620.25823964 111.59225515 621.28910789 C111.80169291 623.56234101 112.00600856 625.83600649 112.21043396 628.10969543 C112.36058274 629.74970921 112.51107056 631.38969198 112.66186959 633.0296461 C112.98984959 636.60357183 113.31561685 640.17769013 113.63973236 643.75196838 C114.16712208 649.56689001 114.69951788 655.38134656 115.23286438 661.19572449 C115.41928209 663.22847215 115.6056923 665.2612205 115.7920953 667.29396951 C115.93308438 668.83141921 115.93308438 668.83141921 116.07692172 670.3999285 C116.3694146 673.5915212 116.66142602 676.78315763 116.95331657 679.97480547 C118.37334098 695.49711488 119.80863739 711.01796453 121.25318909 726.53800964 C121.40972889 728.22019719 121.40972889 728.22019719 121.56943112 729.93636832 C122.53880271 740.3522868 123.50916266 750.76811311 124.48004425 761.18389094 C125.14602674 768.32932918 125.81144017 775.47482024 126.47631836 782.62036133 C126.64200049 784.4008528 126.64200049 784.4008528 126.81102974 786.21731379 C128.60025586 805.45527162 130.35852217 824.69594532 132.1060568 843.93772963 C133.90003756 863.68243694 135.72946771 883.42363291 137.59137684 903.16205138 C138.73920216 915.34284883 139.8588247 927.52557385 140.94265933 939.71223464 C141.68789233 948.06219933 142.46728019 956.40852892 143.27379524 964.75279573 C143.73835159 969.56991142 144.18746115 974.38719651 144.5959816 979.20941544 C144.97026964 983.62367286 145.38738771 988.03167998 145.83906568 992.43867155 C145.99488245 994.03406845 146.13485677 995.63110799 146.25740736 997.22940443 C146.68349319 1005.81810913 146.68349319 1005.81810913 150.99027073 1012.86788499 C153.6015569 1014.50137606 153.6015569 1014.50137606 156.29051167 1015.60565871 C162.75901046 1018.47133622 165.52823322 1024.82009725 168.05078125 1031.0546875 C168.71484375 1033.6796875 168.71484375 1033.6796875 168.71484375 1040.6796875 C162.77484375 1040.6796875 156.83484375 1040.6796875 150.71484375 1040.6796875 C150.71484375 1041.3396875 150.71484375 1041.9996875 150.71484375 1042.6796875 C103.19484375 1042.6796875 55.67484375 1042.6796875 6.71484375 1042.6796875 C-0.18611195 977.12060832 -0.18611195 977.12060832 -3.29338288 945.60087919 C-3.7491648 940.98252036 -4.20730564 936.36439543 -4.66520691 931.74624634 C-5.7144608 921.16064523 -6.76127384 910.57480363 -7.80761719 899.98891449 C-9.1573591 886.33403253 -10.50784847 872.67922527 -11.86152953 859.02473319 C-12.40121365 853.58003232 -12.93941661 848.13518781 -13.47641623 842.69022155 C-13.80766295 839.33450921 -14.14015652 835.97892126 -14.47298431 832.6233654 C-14.62629791 831.07503018 -14.77909173 829.52664339 -14.93131828 827.97820091 C-15.13944076 825.86190252 -15.34944288 823.74579847 -15.55989075 821.62973022 C-15.67653989 820.44920263 -15.79318903 819.26867504 -15.91337299 818.05237389 C-16.29595624 814.58171379 -16.77292766 811.13339298 -17.28515625 807.6796875 C-17.4027703 808.86651249 -17.52038435 810.05333748 -17.64156246 811.27612686 C-20.43249055 839.43759048 -23.22649065 867.59874815 -26.02428314 895.75953062 C-26.36850634 899.22428769 -26.71270358 902.68904735 -27.05688477 906.15380859 C-27.15966751 907.18848275 -27.15966751 907.18848275 -27.26452667 908.24405941 C-28.37452205 919.41858366 -29.48241258 930.59331564 -30.58952784 941.76812556 C-31.72525037 953.23121018 -32.86327347 964.69406443 -34.00330979 976.15672088 C-34.64371402 982.59649937 -35.28306166 989.03637888 -35.91991997 995.47650909 C-36.51898292 1001.53410451 -37.12082008 1007.59141779 -37.72481537 1013.64852333 C-37.94636243 1015.87529347 -38.16688293 1018.10216601 -38.3863163 1020.32914543 C-38.68537924 1023.36271607 -38.98808715 1026.39590127 -39.29173279 1029.42901611 C-39.37831176 1030.3161738 -39.46489073 1031.20333149 -39.5540933 1032.11737275 C-39.63620245 1032.93000132 -39.71831159 1033.7426299 -39.8029089 1034.57988358 C-39.90714213 1035.63019001 -39.90714213 1035.63019001 -40.01348108 1036.70171475 C-40.28515625 1038.6796875 -40.28515625 1038.6796875 -41.28515625 1042.6796875 C-88.80515625 1042.6796875 -136.32515625 1042.6796875 -185.28515625 1042.6796875 C-185.28515625 1042.0196875 -185.28515625 1041.3596875 -185.28515625 1040.6796875 C-191.22515625 1040.6796875 -197.16515625 1040.6796875 -203.28515625 1040.6796875 C-202.73058848 1030.69746772 -200.39442234 1023.95052782 -193.28515625 1016.6796875 C-186.55692406 1011.6796875 -186.55692406 1011.6796875 -182.28515625 1011.6796875 C-182.23322475 1010.603439 -182.18129325 1009.5271905 -182.12778807 1008.4183284 C-181.55375339 997.06110698 -180.63152095 985.76507504 -179.53918457 974.44723511 C-179.36136682 972.57714528 -179.1838604 970.70702583 -179.00663424 968.83687985 C-178.52372987 963.75057698 -178.03645527 958.66470127 -177.54840112 953.57889032 C-177.020935 948.07413543 -176.49760248 942.5689873 -175.97373962 937.06388855 C-174.94909207 926.30300982 -173.92069147 915.54249296 -172.89101493 904.7820944 C-171.69149031 892.24513745 -170.49580419 879.70781529 -169.30028754 867.17047562 C-167.16741943 844.80445639 -165.03122243 822.43875636 -162.89306641 800.07324219 C-160.81884844 778.37651912 -158.74679386 756.67959093 -156.67724609 734.98242188 C-156.61341628 734.31323464 -156.54958646 733.6440474 -156.48382241 732.95458176 C-156.22647653 730.25658396 -155.96913229 727.558586 -155.71178816 724.86058803 C-155.58353316 723.51596211 -155.45527794 722.17133622 -155.3270225 720.82671034 C-155.19907528 719.48531478 -155.07112866 718.14391917 -154.94318267 716.80252349 C-152.90549988 695.43948007 -150.86594499 674.07661536 -148.82606962 652.7137812 C-148.11027019 645.21732775 -147.3947034 637.72085213 -146.67929757 630.22436111 C-145.5452036 618.34076792 -144.41032265 606.45725046 -143.27384341 594.57388513 C-142.75466819 589.14510942 -142.23585417 583.71629987 -141.71804619 578.28739357 C-141.24410734 573.31859338 -140.76908162 568.34989833 -140.29318327 563.38128544 C-140.12118912 561.58361606 -139.94958775 559.78590904 -139.77841812 557.98816095 C-139.54567813 555.54441076 -139.31149663 553.10080276 -139.0769577 550.65722466 C-138.97784671 549.61112701 -138.97784671 549.61112701 -138.87673348 548.54389608 C-138.42951416 543.90612618 -137.86362535 539.3074403 -137.28515625 534.6796875 C-58.08515625 534.6796875 21.11484375 534.6796875 102.71484375 534.6796875 C104.96853833 551.58239686 104.96853833 551.58239686 105.56640625 557.93359375 C105.66204361 558.94582253 105.66204361 558.94582253 105.75961304 559.97850037 C105.89033295 561.37005413 106.01963548 562.76174183 106.14746094 564.15356445 C106.34265689 566.27272859 106.54412111 568.39123769 106.74609375 570.50976562 C106.87406582 571.88017403 107.00168345 573.25061559 107.12890625 574.62109375 C107.24186035 575.83482666 107.35481445 577.04855957 107.47119141 578.29907227 C107.6976502 581.44113126 107.75990646 584.53100551 107.71484375 587.6796875 C125.00100807 582.09290436 136.49045222 573.45329378 144.96875 557.2890625 C148.78242868 549.23952669 149.73140047 541.53067701 150.71484375 532.6796875 C140.15484375 532.6796875 129.59484375 532.6796875 118.71484375 532.6796875 C118.71484375 465.0296875 118.71484375 397.3796875 118.71484375 327.6796875 C112.77484375 327.6796875 106.83484375 327.6796875 100.71484375 327.6796875 C100.71484375 394.9996875 100.71484375 462.3196875 100.71484375 531.6796875 C22.50484375 531.6796875 -55.70515625 531.6796875 -136.28515625 531.6796875 C-136.28515625 464.3596875 -136.28515625 397.0396875 -136.28515625 327.6796875 C-141.23515625 327.6796875 -146.18515625 327.6796875 -151.28515625 327.6796875 C-151.28515625 361.9996875 -151.28515625 396.3196875 -151.28515625 431.6796875 C-152.27515625 432.0096875 -153.26515625 432.3396875 -154.28515625 432.6796875 C-155.21407697 434.38458833 -155.21407697 434.38458833 -155.80322266 436.52514648 C-156.18844589 437.74662636 -156.18844589 437.74662636 -156.58145142 438.99278259 C-156.84718964 439.87817215 -157.11292786 440.76356171 -157.38671875 441.67578125 C-157.66865082 442.5796608 -157.95058289 443.48354034 -158.24105835 444.41481018 C-159.14225864 447.31218615 -160.02658234 450.21439296 -160.91015625 453.1171875 C-161.8044383 456.01520826 -162.70207453 458.91216962 -163.60067749 461.80885315 C-164.15934419 463.61409704 -164.71478928 465.42034159 -165.26675415 467.22764587 C-165.51726532 468.04511795 -165.76777649 468.86259003 -166.02587891 469.70483398 C-166.35539047 470.78618874 -166.35539047 470.78618874 -166.69155884 471.88938904 C-167.28515625 473.6796875 -167.28515625 473.6796875 -168.28515625 475.6796875 C-176.60813593 473.5038115 -184.79040789 470.9804906 -192.97265625 468.328125 C-194.28224971 467.90538801 -195.59190285 467.48283585 -196.90161133 467.06045532 C-199.64194038 466.1761242 -202.38172687 465.29013906 -205.12109375 464.40283203 C-208.54290185 463.29452817 -211.96574081 462.18945277 -215.38896179 461.0855217 C-233.05609864 455.38705947 -250.68670052 449.58717209 -268.28515625 443.6796875 C-265.06772853 432.6414954 -261.75241311 421.6421209 -258.28515625 410.6796875 C-258.86523438 411.15792969 -259.4453125 411.63617187 -260.04296875 412.12890625 C-266.14649186 416.35033251 -274.65413178 414.58449321 -281.53515625 413.46484375 C-298.86372802 409.83667404 -311.90175809 402.04460298 -324.28515625 389.6796875 C-324.88070312 389.09574219 -325.47625 388.51179688 -326.08984375 387.91015625 C-338.55539607 374.60233688 -344.70031193 355.12514361 -344.50390625 337.203125 C-344.13455351 332.94237737 -342.40662974 330.84121361 -339.53515625 327.8671875 C-336.28344061 326.15100424 -333.91055463 326.29806662 -330.28515625 326.6796875 C-325.57099844 328.6082066 -324.22225161 331.07774825 -322.28515625 335.6796875 C-321.90222166 338.20921315 -321.61637108 340.75466508 -321.41015625 343.3046875 C-319.96898346 357.21736334 -313.55215969 369.40116648 -303.33984375 379.0234375 C-292.51701098 387.74754604 -280.26087456 391.49767424 -266.55859375 392.421875 C-263.43586259 392.77599915 -261.64415717 393.60662609 -259.28515625 395.6796875 C-256.97265625 398.8671875 -256.97265625 398.8671875 -255.28515625 401.6796875 C-253.96515625 398.0496875 -252.64515625 394.4196875 -251.28515625 390.6796875 C-245.38377772 391.92128281 -239.69221935 393.39091089 -233.96875 395.28125 C-233.226819 395.5225766 -232.484888 395.7639032 -231.72047424 396.01254272 C-229.38656731 396.77267156 -227.05460113 397.5385633 -224.72265625 398.3046875 C-223.12577667 398.82590588 -221.52877244 399.34674254 -219.93164062 399.8671875 C-216.0480269 401.13362075 -212.16614061 402.40522047 -208.28515625 403.6796875 C-208.2818461 402.92615305 -208.27853596 402.1726186 -208.2751255 401.39624977 C-208.19378876 383.03323345 -208.10166155 364.6703 -207.99762917 346.30739784 C-207.9475775 337.42711726 -207.90113391 328.54684556 -207.86328125 319.66650391 C-207.83026699 311.92343638 -207.7903841 304.18043936 -207.74236619 296.43744981 C-207.71719471 292.34029809 -207.69538619 288.24319257 -207.68181229 284.14598465 C-207.66890658 280.28329991 -207.64676205 276.42077441 -207.61777306 272.55817795 C-207.60876335 271.14657064 -207.60302265 269.73493775 -207.60094261 268.32330322 C-207.57684659 254.44441449 -206.42840861 241.95262388 -196.59765625 231.3671875 C-189.82257109 225.14210925 -182.49037704 222.62459209 -173.72631836 220.43481445 C-164.14683959 217.97426395 -154.71796801 215.12303145 -145.28650093 212.1507473 C-142.45820495 211.25968177 -139.62813852 210.37444414 -136.79759216 209.49055481 C-129.79051779 207.30139573 -122.78599972 205.10411466 -115.78222656 202.90441895 C-109.8112909 201.02914895 -103.83902142 199.15826308 -97.86466789 197.29390907 C-95.08021045 196.42302592 -92.29786954 195.54559879 -89.51551819 194.66801453 C-87.81847982 194.13794234 -86.12133689 193.60820471 -84.42407227 193.07885742 C-83.65478897 192.83424271 -82.88550568 192.58962799 -82.09291077 192.33760071 C-78.62928909 191.26468755 -75.94841445 190.6796875 -72.28515625 190.6796875 C-72.28515625 183.7496875 -72.28515625 176.8196875 -72.28515625 169.6796875 C-76.74015625 168.1946875 -76.74015625 168.1946875 -81.28515625 166.6796875 C-91.11316213 161.21789407 -97.85522739 152.04082505 -101.32446289 141.53125 C-102.9807136 134.76444731 -102.53011825 127.72479275 -102.48046875 120.8046875 C-102.47673297 119.26912623 -102.47388867 117.73356256 -102.47189331 116.19799805 C-102.46430128 112.18012775 -102.4446915 108.16240484 -102.42248535 104.14459229 C-102.40193084 100.03521721 -102.39287116 95.92581805 -102.3828125 91.81640625 C-102.36144088 83.77076613 -102.32735925 75.72524521 -102.28515625 67.6796875 C-103.39117188 67.55464844 -104.4971875 67.42960937 -105.63671875 67.30078125 C-109.67929214 66.61259156 -110.80046399 65.83333537 -113.28515625 62.6796875 C-117.17524624 54.89950752 -113.930977 42.13653221 -111.59765625 34.375 C-107.28969954 22.24605044 -101.34853688 13.54430978 -92.28515625 4.6796875 C-91.6509375 4.01324219 -91.01671875 3.34679687 -90.36328125 2.66015625 C-66.11131028 -21.1089215 -25.99194072 -18.82472783 0 0 Z M-81.87890625 25.26171875 C-87.58270927 31.60537146 -92.28515625 41.1276032 -92.28515625 49.6796875 C-91.65867187 49.94523437 -91.0321875 50.21078125 -90.38671875 50.484375 C-89.16082031 51.01417969 -89.16082031 51.01417969 -87.91015625 51.5546875 C-86.69199219 52.07675781 -86.69199219 52.07675781 -85.44921875 52.609375 C-83.28515625 53.6796875 -83.28515625 53.6796875 -81.28515625 55.6796875 C-81.12660156 54.53113281 -80.96804688 53.38257813 -80.8046875 52.19921875 C-78.80152765 38.54587 -74.76832443 26.90114922 -68.28515625 14.6796875 C-73.25641896 14.6796875 -78.4820064 21.88979611 -81.87890625 25.26171875 Z M-13.28515625 18.6796875 C-22.91934946 28.13871356 -28.90695789 39.57289953 -30.73046875 52.9453125 C-30.97410156 54.70101562 -30.97410156 54.70101562 -31.22265625 56.4921875 C-31.35542969 57.59175781 -31.48820312 58.69132812 -31.625 59.82421875 C-32.32458963 62.85025437 -32.76912787 63.92199478 -35.28515625 65.6796875 C-39.81658197 66.71968685 -42.22506328 67.01342047 -46.66015625 65.6171875 C-49.96377328 63.17880351 -50.28581229 61.61607052 -51.28515625 57.6796875 C-51.84541519 46.33085264 -48.76003906 34.40932479 -43.55859375 24.3359375 C-43.13835937 23.459375 -42.718125 22.5828125 -42.28515625 21.6796875 C-42.78015625 20.6896875 -42.78015625 20.6896875 -43.28515625 19.6796875 C-54.26438219 28.82904245 -58.92195816 41.51145565 -60.27441406 55.38378906 C-60.66277929 59.04618143 -60.89359895 61.14787087 -63.1171875 64.16796875 C-66.40834485 66.46288387 -69.31286405 66.90870633 -73.28515625 66.6796875 C-76.16015625 65.3046875 -76.16015625 65.3046875 -78.28515625 63.6796875 C-78.94515625 63.3496875 -79.60515625 63.0196875 -80.28515625 62.6796875 C-80.35474689 72.09404376 -80.40801345 81.50831112 -80.44059277 90.92286873 C-80.45623128 95.2947004 -80.47743626 99.66635574 -80.51147461 104.03808594 C-80.544133 108.25912071 -80.56202292 112.47998615 -80.56978798 116.70113754 C-80.57531988 118.30945373 -80.5861224 119.91776092 -80.60234642 121.52600479 C-80.62420732 123.78332609 -80.62711964 126.03995271 -80.62573242 128.29736328 C-80.63239426 129.58087677 -80.63905609 130.86439026 -80.6459198 132.1867981 C-80.09122363 137.5573306 -78.07177022 141.502476 -73.91015625 144.9296875 C-73.34554688 145.40921875 -72.7809375 145.88875 -72.19921875 146.3828125 C-64.80343624 151.39383249 -60.18144273 149.6796875 -50.28515625 149.6796875 C-50.28515625 163.2096875 -50.28515625 176.7396875 -50.28515625 190.6796875 C-43.59565962 190.70270182 -36.90630162 190.72259804 -30.21679688 190.73461914 C-27.94335463 190.73963314 -25.66991558 190.74644598 -23.39648438 190.75512695 C-20.11978361 190.76732133 -16.84312565 190.77294528 -13.56640625 190.77734375 C-12.55775513 190.78250504 -11.549104 190.78766632 -10.5098877 190.79298401 C-9.54949585 190.79305954 -8.589104 190.79313507 -7.59960938 190.79321289 C-6.76465942 190.7954335 -5.92970947 190.79765411 -5.06945801 190.79994202 C-1.43518312 190.642977 2.1095667 190.16418372 5.71484375 189.6796875 C5.7850653 171.74633998 5.83789614 153.81302837 5.87028027 135.87957287 C5.88571946 127.5519112 5.90675231 119.22433519 5.94116211 110.89672852 C5.97115506 103.63456563 5.99044015 96.37246482 5.99710923 89.11024171 C6.00100481 85.26840007 6.01009774 81.42673591 6.03203392 77.5849514 C6.05255587 73.9611264 6.05864623 70.33755023 6.05416679 66.71367264 C6.05537208 64.76555947 6.07143136 62.81747274 6.08810425 60.86943054 C6.06191857 53.34713803 5.11783419 46.81754083 2.71484375 39.6796875 C0.76191408 42.60908201 0.40004684 43.65664642 0.00390625 46.98828125 C-0.10695313 47.81779297 -0.2178125 48.64730469 -0.33203125 49.50195312 C-0.55017954 51.24064692 -0.76116046 52.9802555 -0.96484375 54.72070312 C-1.48741403 58.54793658 -1.83051486 61.05754665 -4.140625 64.21875 C-7.43747618 66.46469233 -10.33637974 66.89164966 -14.28515625 66.6796875 C-17.90606381 65.10537986 -19.07770909 63.99085824 -21.28515625 60.6796875 C-22.97544241 47.90426886 -19.61088172 33.52689557 -13.140625 22.46484375 C-12.85832031 21.87574219 -12.57601562 21.28664062 -12.28515625 20.6796875 C-12.78015625 19.6896875 -12.78015625 19.6896875 -13.28515625 18.6796875 Z M-257.28515625 405.6796875 C-256.28515625 408.6796875 -256.28515625 408.6796875 -256.28515625 408.6796875 Z " fill="#2E4F7E" transform="translate(1275.28515625,213.3203125)"/>
<path d="M0 0 C0.33 0 0.66 0 1 0 C1.08917432 20.75350227 0.88746121 41.48224585 0.39421272 62.23034787 C0.30694092 65.94613173 0.22466535 69.66202643 0.14196777 73.37791443 C-0.10303944 84.34827937 -0.35550116 95.3184709 -0.60931396 106.28863525 C-0.85911506 117.08944933 -1.10510002 127.89033962 -1.34375 138.69140625 C-1.36018177 139.43251412 -1.37661354 140.17362199 -1.39354324 140.93718767 C-1.90973195 164.29269682 -2.22584461 187.63825736 -2 211 C-1.34 211 -0.68 211 0 211 C0.09156752 254.90811522 0.16204483 298.81622033 0.20426132 342.72441223 C0.20926411 347.90888565 0.2144414 353.09335889 0.21972656 358.27783203 C0.2207758 359.30996164 0.22182505 360.34209124 0.22290608 361.40549751 C0.24030844 378.11474199 0.27184522 394.82393139 0.30861118 411.53314321 C0.34602527 428.67999622 0.36823685 445.8268204 0.37635398 462.97371256 C0.38184077 473.55316221 0.39916663 484.13245615 0.43166587 494.71185787 C0.45281951 501.96783385 0.45919811 509.22372941 0.45400551 516.47973399 C0.45144506 520.66528036 0.4553534 524.85055476 0.4768219 529.0360527 C0.4963535 532.87202999 0.49722756 536.70755362 0.48359558 540.54355223 C0.48111759 542.58015894 0.49831018 544.61676067 0.51632524 546.6532892 C0.44415819 557.75504876 -2.02131633 565.88350885 -9.7109375 574.01953125 C-17.40555608 580.6768207 -25.65787672 582.39139234 -35.55078125 582.26953125 C-45.27695097 581.50950213 -52.6177767 577.29213867 -59 570 C-63.08234364 564.05227925 -65.12031824 558.94640336 -65.13422108 551.72165585 C-65.14090784 550.10838104 -65.14090784 550.10838104 -65.14772969 548.46251482 C-65.14754533 547.28169142 -65.14736097 546.10086801 -65.14717102 544.88426208 C-65.15084771 543.62931051 -65.1545244 542.37435893 -65.1583125 541.08137852 C-65.16832245 537.59592299 -65.17204763 534.11048468 -65.17470181 530.62501681 C-65.17860757 526.86697765 -65.18818537 523.1089521 -65.19691467 519.35092163 C-65.21666611 510.27723388 -65.22674128 501.20354504 -65.23564246 492.12984118 C-65.24002545 487.85903688 -65.24539204 483.58823382 -65.25063133 479.3174305 C-65.26763838 465.12609712 -65.28213513 450.93476451 -65.28938007 436.74342251 C-65.29129001 433.0617771 -65.29321034 429.38013171 -65.29516602 425.69848633 C-65.29589163 424.32588163 -65.29589163 424.32588163 -65.2966319 422.92554755 C-65.30494201 408.08387858 -65.33029776 393.24228994 -65.36274669 378.4006561 C-65.3957727 363.17133622 -65.41382458 347.94205727 -65.41702431 332.71270138 C-65.419193 324.15844268 -65.42799441 315.60430131 -65.45348549 307.05007744 C-65.47513125 299.76945433 -65.48327309 292.48897707 -65.47351871 285.20832544 C-65.46895678 281.49144787 -65.47096917 277.77487163 -65.49028015 274.0580349 C-65.51100384 270.03472648 -65.50098272 266.01209393 -65.48774719 261.98875427 C-65.49871644 260.80570015 -65.50968568 259.62264603 -65.52098733 258.40374178 C-65.51240644 257.33083299 -65.50382555 256.25792419 -65.49498463 255.15250301 C-65.49596144 254.22321733 -65.49693824 253.29393165 -65.49794465 252.3364858 C-65 250 -65 250 -63.09406346 248.17796856 C-61 247 -61 247 -59 247 C-55.04396257 221.00318264 -56.90421198 196.2155867 -63.20294189 170.77685547 C-74.398467 125.39119227 -53.80357027 83.74126612 -30.84741211 45.20214844 C-24.77273408 35.15495835 -18.33753702 25.44594363 -11.42138672 15.9609375 C-9.95208134 13.93389167 -8.50654459 11.89160458 -7.06640625 9.84375 C-6.60202148 9.18511963 -6.13763672 8.52648926 -5.65917969 7.84790039 C-4.78192373 6.60342471 -3.90619421 5.35787117 -3.03222656 4.11108398 C-2.04638042 2.72270459 -1.02683243 1.35834646 0 0 Z M-23 76 C-30.35940126 90.69340651 -37.19280657 105.26229713 -42 121 C-42.34675781 122.12535156 -42.69351562 123.25070312 -43.05078125 124.41015625 C-46.46165329 136.67959644 -46.43720716 147.79772438 -43.25445557 160.10107422 C-42.38184297 163.49396937 -41.59066436 166.90617085 -40.7890625 170.31640625 C-40.55030899 171.32249435 -40.55030899 171.32249435 -40.30673218 172.34890747 C-35.8141729 191.4005722 -35.34264699 210.5183416 -35 230 C-31.04825986 228.58574256 -27.99969853 226.96612144 -25 224 C-23.43474749 218.86629464 -23.57839363 213.75520841 -23.62109375 208.44140625 C-23.59755747 206.87344363 -23.56958445 205.30554212 -23.53746033 203.73773193 C-23.46337433 199.54562055 -23.44891215 195.3552546 -23.44573212 191.16257095 C-23.43198631 186.82103046 -23.36255152 182.48042441 -23.29736328 178.1394043 C-23.19956925 171.25249733 -23.13002925 164.36594439 -23.08251953 157.47851562 C-23.02494489 149.44662058 -22.8879023 141.42031291 -22.68359375 133.390625 C-22.65677521 132.3344397 -22.62995667 131.27825439 -22.60232544 130.19006348 C-22.55082904 128.18415432 -22.49899502 126.17825379 -22.44677734 124.17236328 C-22.04377366 108.11527098 -21.85203912 92.06197511 -22 76 C-22.33 76 -22.66 76 -23 76 Z M-31.9375 254.875 C-33.33645508 255.70837891 -33.33645508 255.70837891 -34.76367188 256.55859375 C-35.65505859 257.09355469 -36.54644531 257.62851562 -37.46484375 258.1796875 C-38.285896 258.67194824 -39.10694824 259.16420898 -39.95288086 259.67138672 C-42.10781125 260.96902387 -42.10781125 260.96902387 -44 263 C-44.30535985 265.18111767 -44.30535985 265.18111767 -44.25726891 267.74275589 C-44.2637178 268.74973912 -44.27016669 269.75672234 -44.276811 270.79422021 C-44.2737138 271.90878587 -44.2706166 273.02335152 -44.26742554 274.17169189 C-44.27195665 275.34931398 -44.27648776 276.52693607 -44.28115618 277.74024367 C-44.29166154 281.01923797 -44.29312004 284.29809512 -44.29076743 287.57710099 C-44.29036047 291.10960874 -44.30138692 294.64208336 -44.31088257 298.17457581 C-44.3275211 305.09991482 -44.33299344 312.02521979 -44.33410732 318.95057711 C-44.33505663 324.57929746 -44.33916106 330.20800654 -44.34550858 335.83672333 C-44.36313027 351.78706448 -44.37234622 367.73737867 -44.37084763 383.68772963 C-44.37076772 384.5482642 -44.3706878 385.40879878 -44.37060547 386.29541016 C-44.37052371 387.15699296 -44.37044195 388.01857576 -44.37035771 388.90626714 C-44.36954497 402.86659686 -44.38867701 416.82681865 -44.4168822 430.78711715 C-44.44559908 445.11351437 -44.4594231 459.43985893 -44.45769465 473.76628566 C-44.45703024 481.81261292 -44.46254453 489.8588271 -44.48405075 497.90512848 C-44.50224706 504.75716513 -44.50662289 511.60903746 -44.4930319 518.46108779 C-44.48649375 521.95757013 -44.48641496 525.4537371 -44.5037384 528.95018959 C-44.51910741 532.74053497 -44.5099366 536.53004691 -44.49447632 540.32037354 C-44.50476344 541.4260163 -44.51505057 542.53165907 -44.52564943 543.67080617 C-44.4707552 549.74306652 -44.15183874 553.43052723 -40 558 C-36.00979433 560.40918078 -33.95146564 561.12901229 -29.3125 560.5 C-25.02575373 558.55883188 -23.07654039 556.15308077 -21 552 C-20.90606884 550.3427667 -20.87626683 548.68173405 -20.87695217 547.02184105 C-20.87496112 545.96239009 -20.87297007 544.90293914 -20.87091869 543.81138361 C-20.87383153 542.63825195 -20.87674437 541.4651203 -20.87974548 540.25643921 C-20.87889106 539.01741399 -20.87803663 537.77838878 -20.87715632 536.50181735 C-20.8757895 533.0516382 -20.87893181 529.60151524 -20.88393438 526.15134287 C-20.88823955 522.43491521 -20.88679241 518.71848939 -20.8860321 515.00205994 C-20.88550691 508.5594275 -20.88865322 502.11680516 -20.89426994 495.67417526 C-20.90238558 486.35913245 -20.90500023 477.04409453 -20.90625793 467.72904857 C-20.90844835 452.6172145 -20.91510817 437.50538582 -20.92456055 422.39355469 C-20.93373492 407.71093777 -20.94081563 393.02832232 -20.94506836 378.34570312 C-20.94533108 377.44116891 -20.94559381 376.5366347 -20.94586449 375.60469036 C-20.9471695 371.06705805 -20.94843321 366.52942572 -20.94967639 361.99179339 C-20.96004869 324.32785846 -20.97766674 286.66392965 -21 249 C-24.43280105 249 -29.06074337 253.1445903 -31.9375 254.875 Z " fill="#2E4F7E" transform="translate(1634,391)"/>
<path d="M0 0 C5.6730959 4.88476288 8.99922275 11.96867247 12.5 18.4375 C13.73768784 20.68724176 14.9773214 22.93591402 16.21875 25.18359375 C16.84652344 26.3216748 17.47429688 27.45975586 18.12109375 28.63232422 C21.00428469 33.80003937 23.99844948 38.90041395 27 44 C31.96065959 52.45276748 36.83193104 60.95101776 41.625 69.5 C42.20507812 70.53253906 42.78515625 71.56507813 43.3828125 72.62890625 C51.98347288 88.02489971 51.98347288 88.02489971 52.0625 92.6875 C50.79756115 96.63113289 49.16209652 98.37777362 46 101 C43.61650513 102.19174743 42.33076879 102.11075627 39.6875 101.9375 C38.92824219 101.90527344 38.16898438 101.87304688 37.38671875 101.83984375 C30.38594942 99.37639791 26.86510426 89.68628849 23.5625 83.625 C22.31300199 81.36228408 21.06165324 79.10058932 19.80859375 76.83984375 C19.17421387 75.69499512 18.53983398 74.55014648 17.88623047 73.37060547 C15.03211471 68.27043434 12.08488383 63.22680931 9.125 58.1875 C3.77925381 49.0721114 -1.50546531 39.92385488 -6.75 30.75 C-7.27590729 29.83146744 -7.27590729 29.83146744 -7.81243896 28.89437866 C-8.80848525 27.15425002 -9.80271699 25.41308312 -10.796875 23.671875 C-11.36760742 22.6725293 -11.93833984 21.67318359 -12.52636719 20.64355469 C-13.01266602 19.77118164 -13.49896484 18.89880859 -14 18 C-14.38833008 17.30422852 -14.77666016 16.60845703 -15.17675781 15.89160156 C-16.57950196 12.66845161 -16.54898757 9.40914504 -16 6 C-14.20363006 2.93951788 -12.72196245 1.42927497 -9.6875 -0.375 C-5.95572881 -1.24285376 -3.69286057 -1.10137947 0 0 Z " fill="#2E4F7E" transform="translate(953,462)"/>
<path d="M0 0 C3.47741703 2.68050896 6.67958388 5.80179637 7.3359375 10.3046875 C7.44191794 17.27820069 7.44191794 17.27820069 5.125 21.0625 C1.80614053 24.08851892 -0.48058266 24.29216849 -4.97265625 24.2109375 C-9.36097554 23.75434937 -11.4892153 21.57980966 -14.3125 18.375 C-16.45247913 14.09504174 -16.88327309 10.70213027 -16 6 C-11.94214646 -0.49256567 -7.27489743 -1.04254436 0 0 Z " fill="#2E4F7E" transform="translate(480,0)"/>
<path d="M0 0 C3.43397938 1.89964817 4.65950675 3.27037161 6.3125 6.8125 C7.33567621 11.55631698 7.75333975 15.30498555 5.75 19.8125 C3.81803152 22.2274606 2.95224902 23.12230435 0 24 C-4.47405512 24.42610049 -6.8513445 24.61261626 -10.8125 22.5 C-14.61282356 18.15677308 -15.9650693 14.06091138 -16.0625 8.3125 C-14.96853483 4.9019027 -13.80099467 3.00924793 -10.87890625 0.8828125 C-7.28832513 -0.80423809 -3.84321016 -0.75871492 0 0 Z " fill="#2E4F7E" transform="translate(988,0)"/>
<path d="M0 0 C2.8605891 1.35937085 4.85927699 2.64520469 7 5 C5.34763349 9.29067546 2.1094793 12.1429553 -1.1015625 15.296875 C-1.69802582 15.89050842 -2.29448914 16.48414185 -2.9090271 17.09576416 C-4.8096981 18.98526627 -6.71721474 20.86768392 -8.625 22.75 C-9.91712468 24.03209065 -11.20879676 25.31463761 -12.5 26.59765625 C-15.66144479 29.73708432 -18.8290461 32.87017801 -22 36 C-24.8605891 34.64062915 -26.85927699 33.35479531 -29 31 C-27.34763349 26.70932454 -24.1094793 23.8570447 -20.8984375 20.703125 C-20.30197418 20.10949158 -19.70551086 19.51585815 -19.0909729 18.90423584 C-17.1903019 17.01473373 -15.28278526 15.13231608 -13.375 13.25 C-12.08287532 11.96790935 -10.79120324 10.68536239 -9.5 9.40234375 C-6.33855521 6.26291568 -3.1709539 3.12982199 0 0 Z " fill="#2E4F7E" transform="translate(1018,439)"/>
<path d="M0 0 C2.82424288 2.19022918 4.41508603 3.83017207 6 7 C6.3751455 11.97067782 6.15878799 15.05151502 3 19 C-0.03245311 21.35857464 -3.26065814 21.35933916 -7.03515625 21.25390625 C-9.95627792 20.87642532 -11.74314524 19.85858628 -14 18 C-16.57073939 14.57234748 -16.43037452 11.16028704 -16 7 C-11.96913784 -0.25555188 -8.00060882 -1.15732077 0 0 Z " fill="#2E4F7E" transform="translate(785,0)"/>
<path d="M0 0 C2.93423195 1.79646854 4.47205355 2.9441071 6 6 C6.55512815 10.63213493 6.6364242 13.98172127 4.125 18 C0.63287496 21.28670592 -2.01727652 21.41101167 -6.671875 21.3359375 C-10.8397042 20.73453933 -12.29785688 19.24257175 -15 16 C-16.5308543 11.78798844 -16.29932134 8.80816762 -14.75 4.625 C-10.99798001 -1.00302999 -6.20616809 -0.83144836 0 0 Z " fill="#2E4F7E" transform="translate(683,0)"/>
<path d="M0 0 C2.62855579 2.02774304 4.02292805 3.66542157 4.55859375 6.9921875 C4.73903462 13.97631062 4.73903462 13.97631062 1.8125 17.75 C-2.3024171 20.78720072 -4.65159023 21.20359098 -9.8125 20.6875 C-12.78922584 18.91469439 -15.24054007 16.83141985 -16.8125 13.6875 C-17.15958476 8.39445745 -17.32601894 4.95391586 -13.8125 0.6875 C-9.64519307 -2.4379802 -4.56769721 -2.13159203 0 0 Z " fill="#2E4F7E" transform="translate(482.8125,246.3125)"/>
<path d="M0 0 C2.8100346 1.79363911 4.50940468 3.01880935 6 6 C6.64507919 11.20671061 6.9173523 14.81709835 3.625 19.0625 C-0.52238563 22.12366559 -2.71369204 22.27283006 -7.734375 21.625 C-10 21 -10 21 -13.0625 18.4375 C-15.57402103 13.9815756 -15.64128313 12.05010467 -15 7 C-13.76467542 4.15875347 -12.7444561 2.57902141 -10.3125 0.6875 C-6.84767407 -0.34258338 -3.54883321 -0.5914722 0 0 Z " fill="#2E4F7E" transform="translate(481,148)"/>
<path d="M0 0 C3 1.9375 3 1.9375 5 5 C5.92194956 9.96873699 5.78352625 13.72024046 3.125 18.0625 C-0.43196646 21.30561647 -3.07414491 21.33412662 -7.73828125 21.2890625 C-11.08634301 20.86115823 -12.76066981 19.44926739 -15 17 C-16.2438276 13.2685172 -16.6643142 9.86908268 -16 6 C-12.27183965 -0.70780974 -7.17750476 -1.9689264 0 0 Z " fill="#2E4F7E" transform="translate(482,100)"/>
<path d="M0 0 C2.86094219 2.44372146 4.64101195 4.23267422 5.40625 8 C5.60949649 12.4714228 4.76223488 15.52163015 2 19 C-2.01858595 21.6790573 -5.27641721 21.69610694 -10 21 C-12.87029869 19.20606332 -14.49131638 18.01736724 -16 15 C-16.64060222 9.82942493 -16.89905059 6.19063457 -13.6875 1.9375 C-9.21979256 -1.28340536 -5.21413995 -1.62307858 0 0 Z " fill="#2E4F7E" transform="translate(990,52)"/>
<path d="M0 0 C5.53846154 3.07692308 5.53846154 3.07692308 7 6 C7.64507919 11.20671061 7.9173523 14.81709835 4.625 19.0625 C0.49664944 22.10961589 -1.83821743 22.34995136 -7 22 C-9.78901573 20.76043745 -11.44350587 19.71549246 -13.3125 17.3125 C-14.35150926 13.81765067 -14.69164143 10.56777412 -14 7 C-10.47664983 0.90945045 -6.87404234 -0.57283686 0 0 Z " fill="#2E4F7E" transform="translate(480,342)"/>
<path d="M0 0 C2.87029869 1.79393668 4.49131638 2.98263276 6 6 C6.61935091 10.99904661 6.80268427 14.77088971 4 19.0625 C-0.01096538 21.65291514 -2.21157511 22 -7 22 C-10.66584612 20.4521983 -13.17308143 18.55768353 -15 15 C-15.5104392 9.64038844 -15.4594433 6.35633601 -12 2 C-7.98141405 -0.6790573 -4.72358279 -0.69610694 0 0 Z " fill="#2E4F7E" transform="translate(481,51)"/>
<path d="M0 0 C2.94214318 1.30086496 3.83163498 2.39796197 6 5 C7.41816098 8.97405563 7.45403186 11.92466138 5.8125 15.8125 C1.73551637 20.73299748 1.73551637 20.73299748 -2.08203125 21.3203125 C-6.2192992 21.52614673 -8.42008631 21.36244605 -12 19.125 C-15.32530877 15.59185943 -15.33074386 12.95338737 -15.29296875 8.26171875 C-14.86344199 4.9457722 -13.39075646 3.25012373 -11 1 C-7.50018464 -0.74990768 -3.81877994 -0.551032 0 0 Z " fill="#2E4F7E" transform="translate(886,0)"/>
<path d="M0 0 C3.07933335 2.01099321 4.49196824 3.41519652 5.62109375 6.9375 C6.24070841 10.31024781 6.1452985 12.65587196 4.8125 15.8125 C0.7637987 20.69886364 0.7637987 20.69886364 -3.08203125 21.35546875 C-7.53863812 21.62892556 -9.3992726 21.47557586 -13 18.625 C-15.80312695 14.94589588 -16.3355147 12.71911715 -16.29296875 8.0390625 C-15.83745033 4.86865433 -14.24684343 3.1807598 -12 1 C-8.26992673 -0.86503664 -4.06217389 -0.54928766 0 0 Z " fill="#2E4F7E" transform="translate(836,0)"/>
<path d="M0 0 C2.82424288 2.19022918 4.41508603 3.83017207 6 7 C6.3751455 11.97067782 6.15878799 15.05151502 3 19 C-0.50887686 21.72912644 -4.75369747 21.41149736 -9 21 C-11.95224902 20.12230435 -12.81803152 19.2274606 -14.75 16.8125 C-16.32923797 13.25921457 -16.41323619 10.85687108 -16 7 C-12.60834796 -0.26782581 -7.45538401 -1.20094703 0 0 Z " fill="#2E4F7E" transform="translate(734,0)"/>
<path d="M0 0 C2.87029869 1.79393668 4.49131638 2.98263276 6 6 C6.55512815 10.63213493 6.6364242 13.98172127 4.125 18 C0.63287496 21.28670592 -2.01727652 21.41101167 -6.671875 21.3359375 C-10.8397042 20.73453933 -12.29785688 19.24257175 -15 16 C-16.41816098 12.02594437 -16.45403186 9.07533862 -14.8125 5.1875 C-10.47221537 -0.05077456 -6.72958415 -1.11559951 0 0 Z " fill="#2E4F7E" transform="translate(632,0)"/>
<path d="M0 0 C13.86 0 27.72 0 42 0 C42 2.97 42 5.94 42 9 C28.14 9 14.28 9 0 9 C0 6.03 0 3.06 0 0 Z " fill="#2E4F7E" transform="translate(996,487)"/>
<path d="M0 0 C2.97 0 5.94 0 9 0 C9 13.86 9 27.72 9 42 C6.03 42 3.06 42 0 42 C0 28.14 0 14.28 0 0 Z " fill="#2E4F7E" transform="translate(972,424)"/>
<path d="M0 0 C2.9375 1.9375 2.9375 1.9375 5 5 C5.92932618 9.96455828 5.78094602 13.72445483 3.125 18.0625 C-0.43270598 21.30629075 -3.07412967 21.33052231 -7.73828125 21.29296875 C-11.0542278 20.86344199 -12.74987627 19.39075646 -15 17 C-16.73263912 13.53472176 -16.4719774 9.78892972 -16 6 C-14.20726402 2.87931144 -12.75740595 1.45034948 -9.6875 -0.375 C-6.04992671 -1.22094728 -3.60960985 -0.96685978 0 0 Z " fill="#2E4F7E" transform="translate(482,197)"/>
<path d="M0 0 C2.70567626 1.82339052 4.53728718 3.07457436 6 6 C6.50866466 12.10397596 6.05703618 15.10769166 2 20 C-1.45739557 21.72869779 -5.21975568 21.48966895 -9 21 C-11.87029869 19.20606332 -13.49131638 18.01736724 -15 15 C-15.64060222 9.82942493 -15.89905059 6.19063457 -12.6875 1.9375 C-8.17031184 -1.31907751 -5.34137236 -1.19720415 0 0 Z " fill="#2E4F7E" transform="translate(989,101)"/>
<path d="M0 0 C5.57894737 3.15789474 5.57894737 3.15789474 7 6 C7.64507919 11.20671061 7.9173523 14.81709835 4.625 19.0625 C0.5100829 22.09970072 -1.83909023 22.51609098 -7 22 C-9.97672584 20.22719439 -12.42804007 18.14391985 -14 15 C-14.47210258 10.27897422 -14.73364092 7.34044655 -11.6875 3.5625 C-7.93054933 -0.01970878 -5.07443763 -0.49749389 0 0 Z " fill="#2E4F7E" transform="translate(480,439)"/>
<path d="M0 0 C2.83827206 2.75717857 3.13157031 4.5321453 3.5 8.4375 C3.13196535 12.78030882 1.90235449 14.77135622 -0.8125 18.125 C-4.32055054 19.87902527 -7.98464577 19.65718074 -11.8125 19.125 C-16.25069095 16.86697302 -16.25069095 16.86697302 -17.8125 14.125 C-18.6020755 10.30871842 -18.58644571 6.94313219 -17.8125 3.125 C-15.67097942 0.15066585 -14.18131748 -1.25682437 -10.875 -2.75 C-6.54311516 -3.01253848 -3.63365658 -2.42243772 0 0 Z " fill="#2E4F7E" transform="translate(991.8125,151.875)"/>
<path d="M0 0 C2.87274328 1.32359866 3.85418097 2.47866264 6 5 C7.27298235 9.11847231 7.29220314 11.20028616 5.8125 15.25 C2.94086957 19.60695652 2.94086957 19.60695652 0 21 C-4.67849244 21.71099041 -7.9353448 21.6654095 -12 19.125 C-15.32530877 15.59185943 -15.33074386 12.95338737 -15.29296875 8.26171875 C-14.86344199 4.9457722 -13.39075646 3.25012373 -11 1 C-7.5027666 -0.7486167 -3.81586672 -0.5570141 0 0 Z " fill="#2E4F7E" transform="translate(530,0)"/>
<path d="M0 0 C2.87029869 1.79393668 4.49131638 2.98263276 6 6 C6.52692027 9.76371619 6.76499499 13.40406217 5.09375 16.890625 C3.0840202 19.54449896 1.23218172 20.91419371 -1.875 22.0625 C-6.67082725 21.96658346 -10.26635913 20.45402137 -13.9375 17.375 C-15.61736736 13.62000237 -15.66909942 10.03618038 -15 6 C-11.10231905 -0.23628951 -6.98983895 -0.90541955 0 0 Z " fill="#2E4F7E" transform="translate(481,391)"/>
<path d="M0 0 C2.75569447 2.18159145 4.43588747 3.87177494 6 7 C6.27454818 10.63776343 6.2589518 13.32977182 4.9375 16.75 C2.24122386 19.88115939 -0.03631375 20.87695556 -4 22 C-7.71216772 21.43373713 -10.22120597 20.45928879 -13.4375 18.5625 C-16.05467813 14.27032787 -15.92797046 9.86285294 -15 5 C-11.88954234 -0.49318559 -5.71004687 -1.34601473 0 0 Z " fill="#2E4F7E" transform="translate(989,248)"/>
<path d="M0 0 C3.65125108 1.75018647 5.64504416 4.03953126 7.0625 7.875 C6.96658346 12.67082725 5.45402137 16.26635913 2.375 19.9375 C-1.37999763 21.61736736 -4.96381962 21.66909942 -9 21 C-11.87029869 19.20606332 -13.49131638 18.01736724 -15 15 C-15.55512815 10.36786507 -15.6364242 7.01827873 -13.125 3 C-9.17982984 -0.71310133 -5.22395362 -0.77132201 0 0 Z " fill="#2E4F7E" transform="translate(937,0)"/>
<path d="M0 0 C3.55680172 2.10504591 4.69468936 3.08406808 6 7 C6.37066773 12.00401435 6.09881835 14.98301324 3 19 C-1.26341649 21.84227766 -4.99990449 21.73249807 -10 21 C-13.125 19.1875 -13.125 19.1875 -15 16 C-15.95722984 10.67939746 -15.8917249 6.51593234 -13.125 1.8125 C-8.71683002 -0.74423859 -4.98004092 -0.89951478 0 0 Z " fill="#2E4F7E" transform="translate(989,199)"/>
<path d="M0 0 C3.40432151 2.65537078 4.62150515 4.05637782 5.43359375 8.2265625 C5.65926465 12.31599268 5.32836086 14.47462263 3.125 18 C-0.40814057 21.32530877 -3.04661263 21.33074386 -7.73828125 21.29296875 C-11.0542278 20.86344199 -12.74987627 19.39075646 -15 17 C-16.72869779 13.54260443 -16.48966895 9.78024432 -16 6 C-11.96879296 -0.44993127 -7.24970918 -1.16086395 0 0 Z " fill="#2E4F7E" transform="translate(482,294)"/>
<path d="M0 0 C2.87029869 1.79393668 4.49131638 2.98263276 6 6 C6.55512815 10.63213493 6.6364242 13.98172127 4.125 18 C0.59185943 21.32530877 -2.04661263 21.33074386 -6.73828125 21.29296875 C-10.0542278 20.86344199 -11.74987627 19.39075646 -14 17 C-15.72869779 13.54260443 -15.48966895 9.78024432 -15 6 C-11.10231905 -0.23628951 -6.98983895 -0.90541955 0 0 Z " fill="#2E4F7E" transform="translate(581,0)"/>
<path d="M0 0 C2.75569447 2.18159145 4.43588747 3.87177494 6 7 C6.54724071 12.69130337 5.59333707 15.56117185 2 20 C-1.50545379 21.7527269 -5.17501488 21.53818886 -9 21 C-12.12603632 19.75719449 -12.79695509 18.82441655 -15 16 C-16.04906942 11.03928416 -15.78130746 7.27613552 -13.125 2.9375 C-9.17604783 -0.66301521 -5.17156955 -0.82173471 0 0 Z " fill="#2E4F7E" transform="translate(989,297)"/>
</svg>
