<svg width="333" height="205" viewBox="0 0 333 205" fill="none" xmlns="http://www.w3.org/2000/svg">
<path d="M7.29493 96.5517L3.11101 101.259L2.84888 146.243L7.16433 152.127L47.44 151.735L46.787 140.228L49.4019 138.266L48.4867 96.2905L7.29493 96.5517Z" fill="white"/>
<path d="M198.552 2.31543H133.777V48.9573H198.552V2.31543Z" fill="white"/>
<path d="M282.559 51.2729H232.344V84.3896H282.559V51.2729Z" fill="white"/>
<path d="M328.119 98.1979C327.816 97.8163 327.394 97.5514 326.936 97.4208C326.763 97.0206 326.48 96.6631 326.089 96.4047L323.016 94.3706C322.065 93.7407 320.925 93.5175 319.8 93.7463C318.677 93.9732 317.711 94.6235 317.081 95.5757L306.835 111.055C306.203 112.008 305.982 113.151 306.211 114.274C306.439 115.396 307.089 116.36 308.041 116.99L311.115 119.025C311.401 119.215 311.715 119.308 312.034 119.357C312.289 119.613 312.603 119.809 312.964 119.92C313.101 119.971 313.801 120.272 314.006 121.156C314.263 122.262 314.1 125.633 307.074 133.036C299.826 140.673 296.48 140.755 295.622 140.598C294.788 140.446 294.478 139.799 294.444 139.727C294.299 139.315 294.033 138.969 293.701 138.702C293.636 138.384 293.507 138.073 293.301 137.795L291.108 134.829C289.702 132.932 287.018 132.531 285.122 133.933L270.196 144.977C268.301 146.381 267.9 149.066 269.302 150.965L271.495 153.928C271.754 154.277 272.095 154.521 272.468 154.676C272.633 155.057 272.887 155.397 273.236 155.646C273.33 155.712 279.205 159.799 287.409 159.798C292.484 159.798 298.451 158.234 304.487 153.184C305.782 152.101 306.891 151.237 307.963 150.4C310.529 148.4 312.952 146.512 316.876 142.378C320.796 138.246 322.542 135.747 324.392 133.1C325.167 131.991 325.968 130.844 326.981 129.497C339.486 112.856 328.234 98.3424 328.119 98.1979Z" fill="white"/>
<path d="M96.2419 179.69C86.9812 179.69 79.447 172.156 79.447 162.896C79.447 161.617 78.4105 160.58 77.1313 160.58C75.8522 160.58 74.8157 161.617 74.8157 162.896C74.8157 174.71 84.4275 184.321 96.2419 184.321C97.5211 184.321 98.5576 183.285 98.5576 182.005C98.5576 180.726 97.5211 179.69 96.2419 179.69Z" fill="#354F7A"/>
<path d="M93.0621 171.987C93.49 172.734 94.2709 173.152 95.074 173.152C95.4648 173.152 95.8604 173.054 96.2225 172.846C97.3322 172.21 97.7166 170.796 97.0821 169.686L79.6776 139.291C79.0413 138.18 77.626 137.799 76.5172 138.431C75.4076 139.068 75.0232 140.482 75.6577 141.592L93.0621 171.987Z" fill="#354F7A"/>
<path d="M89.5769 122.516H87.7244V138.068H89.5769V122.516Z" fill="#354F7A"/>
<path d="M111.578 146.765H96.0264V148.617H111.578V146.765Z" fill="#354F7A"/>
<path d="M104.923 128.588L93.9272 139.584L95.2372 140.894L106.233 129.898L104.923 128.588Z" fill="#354F7A"/>
<path d="M218.875 140.184L218.605 137.916C217.515 132.57 213.113 128.452 207.557 127.83L188.197 121.309V115.253C188.422 115.366 188.672 115.435 188.941 115.435C189.861 115.435 190.608 114.689 190.608 113.768V93.1326C190.608 82.9808 181.141 74.0767 170.349 74.0767C159.557 74.0767 150.089 82.9808 150.089 93.1326C150.089 94.0533 150.836 94.7999 151.757 94.7999C152.274 94.7999 152.728 94.56 153.035 94.1914C153.032 94.2358 153.022 94.2784 153.022 94.3238C153.022 98.266 153.022 107.444 153.024 107.593C153.192 112.769 156.847 116.973 161.712 117.999V121.125L143.677 127.832C138.129 128.46 133.734 132.576 132.646 137.916L131.964 167.905C131.945 169.184 132.967 170.236 134.246 170.255H134.281C135.543 170.255 136.577 169.241 136.596 167.974L136.988 141.591L137.021 140.29C137.126 136.107 140.349 132.717 144.516 132.405L146.659 131.665L162.32 125.84C162.743 126.306 163.348 126.603 164.028 126.603C165.307 126.603 166.343 125.567 166.343 124.287V113.608H164.028C160.565 113.608 157.764 110.9 157.654 107.506C157.654 107.312 157.654 100.068 157.654 96.4042L186.07 112.174C185.375 112.375 184.865 113.008 184.865 113.768V121.593C184.636 121.831 184.45 122.117 184.338 122.452C184.049 123.309 184.298 124.211 184.894 124.814C185.03 125.597 185.709 126.196 186.532 126.196C186.86 126.196 187.164 126.097 187.422 125.933L204.595 131.719L206.738 132.404C210.905 132.716 214.127 136.107 214.234 140.29L215.452 200.011C215.477 201.274 216.509 202.28 217.766 202.28C217.782 202.28 217.797 202.28 217.814 202.28C219.092 202.255 220.108 201.197 220.081 199.918L218.877 140.185L218.875 140.184Z" fill="#354F7A"/>
<path d="M148.108 181.505L108.865 184.061L106.937 173.21C106.713 171.95 105.506 171.114 104.252 171.336C102.993 171.559 102.153 172.762 102.378 174.02L105.031 188.951L148.409 186.127C149.686 186.043 150.653 184.942 150.57 183.666C150.486 182.388 149.376 181.431 148.108 181.505Z" fill="#354F7A"/>
<path d="M153.456 142.204C153.44 142.204 153.424 142.204 153.407 142.204C152.128 142.23 151.113 143.289 151.141 144.567L152.347 202.732C152.372 203.994 153.404 204.999 154.66 204.999C154.677 204.999 154.693 204.999 154.71 204.999C155.989 204.973 157.004 203.914 156.976 202.636L155.77 144.472C155.745 143.209 154.712 142.204 153.456 142.204Z" fill="#354F7A"/>
<path d="M198.728 142.205C198.711 142.205 198.695 142.205 198.678 142.205C197.422 142.205 196.391 143.21 196.365 144.472L195.157 202.637C195.13 203.915 196.144 204.973 197.423 205C197.44 205 197.456 205 197.472 205C198.728 205 199.76 203.995 199.786 202.732L200.994 144.567C201.021 143.289 200.007 142.231 198.728 142.205Z" fill="#354F7A"/>
<path d="M131.461 0V51.2732H200.868V0H131.461ZM196.237 24.9229H185.905V15.7928H196.237V24.9229ZM184.052 24.9229H173.258V15.7928H184.052V24.9229ZM160.609 24.9229V15.7928H171.404V24.9229H160.609ZM171.404 26.7754V36.2483H160.609V26.7754H171.404ZM173.257 13.9402V4.63131H184.051V13.9402H173.257ZM171.404 13.9402H160.609V4.63131H171.404V13.9402ZM158.756 13.9402H147.96V4.63131H158.756V13.9402ZM158.756 15.7928V24.9229H147.96V15.7928H158.756ZM146.108 24.9229H136.093V15.7928H146.108V24.9229ZM136.093 26.7754H146.108V36.2483H136.093V26.7754ZM147.96 26.7754H158.756V36.2483H147.96V26.7754ZM158.756 38.1008V46.6428H147.96V38.1008H158.756ZM160.609 38.1008H171.404V46.6428H160.609V38.1008ZM173.257 38.1008H184.051V46.6428H173.257V38.1008ZM173.257 36.2483V26.7754H184.051V36.2483H173.257ZM185.904 26.7754H196.236V36.2483H185.904V26.7754ZM196.236 13.9402H185.904V4.63131H196.236V13.9402ZM146.107 4.63131V13.9402H136.092V4.63131H146.107ZM136.092 38.1008H146.107V46.6428H136.092V38.1008ZM185.904 46.6428V38.1008H196.236V46.6428H185.904Z" fill="#354F7A"/>
<path d="M110.544 40.1033L107.27 36.8281L103.756 33.3138L100.48 30.0386L97.2052 33.3138L87.4721 43.047C83.4039 38.474 77.4777 35.5915 70.8753 35.5915C58.6079 35.5915 48.6636 45.5359 48.6636 57.8033C48.6636 70.0707 58.6079 80.015 70.8753 80.015C83.1427 80.015 93.0871 70.0707 93.0871 57.8033C93.0871 57.7236 93.0815 57.6439 93.0806 57.5643L107.267 43.3777L110.542 40.1033H110.544Z" fill="#354F7A"/>
<path d="M100.481 36.5894L103.995 40.1036L73.8544 70.2423L56.7556 53.1426L60.2689 49.6293L73.8544 63.2147L100.481 36.5894Z" fill="white"/>
<path d="M328.119 98.1979C327.816 97.8163 327.394 97.5514 326.936 97.4208C326.763 97.0206 326.48 96.6631 326.089 96.4047L323.016 94.3706C322.065 93.7407 320.925 93.5175 319.8 93.7463C318.677 93.9732 317.711 94.6235 317.081 95.5757L306.835 111.055C306.203 112.008 305.982 113.151 306.211 114.274C306.439 115.396 307.089 116.36 308.041 116.99L311.115 119.025C311.401 119.215 311.715 119.308 312.034 119.357C312.289 119.613 312.603 119.809 312.964 119.92C313.101 119.971 313.801 120.272 314.006 121.156C314.263 122.262 314.1 125.633 307.074 133.036C299.826 140.673 296.48 140.755 295.622 140.598C294.788 140.446 294.478 139.799 294.444 139.727C294.299 139.315 294.033 138.969 293.701 138.702C293.636 138.384 293.507 138.073 293.301 137.795L291.108 134.829C289.702 132.932 287.018 132.531 285.122 133.933L270.196 144.977C268.301 146.381 267.9 149.066 269.302 150.965L271.495 153.928C271.754 154.277 272.095 154.521 272.468 154.676C272.633 155.057 272.887 155.397 273.236 155.646C273.33 155.712 279.205 159.799 287.409 159.798C292.484 159.798 298.451 158.234 304.487 153.184C305.782 152.101 306.891 151.237 307.963 150.4C310.529 148.4 312.952 146.512 316.876 142.378C320.796 138.246 322.542 135.747 324.392 133.1C325.167 131.991 325.968 130.844 326.981 129.497C339.486 112.856 328.234 98.3424 328.119 98.1979ZM310.891 113.32L320.75 98.4239L323.201 100.047L312.983 114.705L310.891 113.32ZM287.595 137.865L289.134 139.945L274.846 150.667L273.234 148.49L287.595 137.865ZM323.279 126.716C322.217 128.125 321.394 129.306 320.596 130.448C318.773 133.056 317.199 135.31 313.516 139.19C309.83 143.072 307.645 144.776 305.116 146.748C304.014 147.608 302.872 148.498 301.516 149.631C292.172 157.448 283.293 155.365 278.856 153.447L291.804 143.731C292.482 144.324 293.392 144.858 294.598 145.116C298.742 145.998 303.917 143.09 310.434 136.223C316.927 129.382 319.556 124.05 318.473 119.921C318.154 118.703 317.566 117.799 316.931 117.139L326.174 103.879C328.264 108.159 330.694 116.848 323.279 126.716Z" fill="#354F7A"/>
<path d="M229.272 47.9219V87.4945H285.409V47.9219H229.272ZM279.087 52.5532L257.341 68.7137L235.595 52.5532H279.087ZM233.904 82.8632V57.0669L257.341 74.4834L280.778 57.0669V82.8632H233.905H233.904Z" fill="#354F7A"/>
<path d="M13.2842 113.348H40.0522C40.5644 113.348 40.9785 112.934 40.9785 112.422C40.9785 111.91 40.5644 111.496 40.0522 111.496H13.2842C12.7719 111.496 12.3579 111.91 12.3579 112.422C12.3579 112.934 12.7719 113.348 13.2842 113.348Z" fill="#354F7A"/>
<path d="M13.2842 108.263H40.0522C40.5644 108.263 40.9785 107.849 40.9785 107.337C40.9785 106.825 40.5644 106.411 40.0522 106.411H13.2842C12.7719 106.411 12.3579 106.825 12.3579 107.337C12.3579 107.849 12.7719 108.263 13.2842 108.263Z" fill="#354F7A"/>
<path d="M51.2904 142.78V93.5356H9.45952C4.66797 93.5356 0.770264 97.4333 0.770264 102.225V146.095C0.770264 150.592 4.66797 154.253 9.45952 154.253H51.1756V149.622H48.9007V142.78H51.2904ZM5.40157 102.225C5.40157 99.9871 7.22167 98.167 9.45952 98.167H46.6591V138.149H9.45952C7.98491 138.149 6.60664 138.47 5.40157 139.038V102.225ZM44.2694 149.622H9.45952C7.25965 149.622 5.40157 148.006 5.40157 146.095C5.40157 144.047 7.50789 142.78 9.45952 142.78H44.2694V149.622Z" fill="#354F7A"/>
</svg>
